<svg xmlns="http://www.w3.org/2000/svg" xmlns:xlink="http://www.w3.org/1999/xlink" width="1810.52" height="505.941" viewBox="0 0 1810.52 505.941">
  <defs>
    <linearGradient id="linear-gradient" x1="0.521" y1="0.42" x2="0.192" y2="1.687" gradientUnits="objectBoundingBox">
      <stop offset="0" stop-color="#f58220"/>
      <stop offset="0.51" stop-color="#f37522"/>
      <stop offset="1" stop-color="#f37124"/>
    </linearGradient>
    <linearGradient id="linear-gradient-2" x1="6.551" y1="3.615" x2="-10.945" y2="-5.592" gradientUnits="objectBoundingBox">
      <stop offset="0" stop-color="#faaf43"/>
      <stop offset="0.22" stop-color="#fbb92c"/>
      <stop offset="0.5" stop-color="#fdc316"/>
      <stop offset="0.76" stop-color="#fec908"/>
      <stop offset="1" stop-color="#ffcc04"/>
    </linearGradient>
    <linearGradient id="linear-gradient-3" x1="3.022" y1="3.715" x2="-2.879" y2="-3.973" xlink:href="#linear-gradient-2"/>
    <linearGradient id="linear-gradient-4" x1="7.237" y1="6.793" x2="-0.996" y2="-0.896" xlink:href="#linear-gradient-2"/>
    <linearGradient id="linear-gradient-5" x1="8.244" y1="7.765" x2="0.026" y2="0.056" xlink:href="#linear-gradient-2"/>
    <linearGradient id="linear-gradient-6" x1="1.553" y1="1.28" x2="-0.102" y2="0.059" xlink:href="#linear-gradient-2"/>
    <linearGradient id="linear-gradient-7" x1="100.824" y1="0.5" x2="101.824" y2="0.5" gradientUnits="objectBoundingBox">
      <stop offset="0" stop-color="#fff"/>
      <stop offset="0.57" stop-color="#fff" stop-opacity="0.431"/>
      <stop offset="1" stop-color="#fff" stop-opacity="0"/>
    </linearGradient>
    <linearGradient id="linear-gradient-8" x1="94.307" y1="-2.116" x2="93.865" y2="1.365" xlink:href="#linear-gradient-7"/>
    <linearGradient id="linear-gradient-9" x1="92.137" y1="0.003" x2="91.537" y2="0.627" xlink:href="#linear-gradient-7"/>
  </defs>
  <g id="Group_17905" data-name="Group 17905" transform="translate(-91.51 -122.41)">
    <g id="Group_16589" data-name="Group 16589" transform="translate(94.473 566.125)">
      <path id="Path_45173" data-name="Path 45173" d="M92.141,255.394l9.094-.869c.153,1.277,1.635,7.714,9.86,7.714,6.284,0,9.962-3.372,9.962-8.328,0-5.671-3.627-6.693-10.831-9.86-6.795-3.014-16.247-5.824-16.247-18.75,0-9.094,7.306-16.042,16.6-16.042s15.889,6.693,16.655,13.9l-9.094,1.124a7.457,7.457,0,0,0-7.561-5.824c-4.649,0-7.561,3.014-7.561,6.846,0,5.16,3.372,6.948,10.984,10.422,6.591,2.912,16.349,5.671,16.349,18.188,0,10.627-8.328,17.524-19.261,17.524-11.955,0-18.392-8.072-19.005-16.042Z" transform="translate(-92.09 -209.26)" fill="#424143"/>
      <path id="Path_45174" data-name="Path 45174" d="M101.62,209.46h9.2v60.133h-9.2Z" transform="translate(-52.931 -208.438)" fill="#424143"/>
      <path id="Path_45175" data-name="Path 45175" d="M106,209.46h9.6l17.268,27.384,17.268-27.384h9.6v60.133h-9.2V224.736l-15.02,23.348h-5.415l-14.969-23.348v44.857h-9.2V209.46Z" transform="translate(-35.14 -208.438)" fill="#424143"/>
      <path id="Path_45176" data-name="Path 45176" d="M119.03,209.46h17.013c12.108,0,20.9,6.693,20.9,18.648s-8.787,18.648-20.9,18.648h-7.817v22.837h-9.2V209.46Zm17.013,28.1c7.05,0,11.6-3.27,11.6-9.452s-4.547-9.452-11.6-9.452h-7.817v18.9h7.817Z" transform="translate(18.606 -208.438)" fill="#424143"/>
      <path id="Path_45177" data-name="Path 45177" d="M128.56,209.46h9.2V260.4h25.085v9.2H128.56Z" transform="translate(57.764 -208.438)" fill="#424143"/>
      <path id="Path_45178" data-name="Path 45178" d="M137.47,209.46h9.2v60.133h-9.2Z" transform="translate(94.375 -208.438)" fill="#424143"/>
      <path id="Path_45179" data-name="Path 45179" d="M141.81,209.46h34.537v8.43H151.006v18.239H174.1v8.43H151.006v25.085h-9.2V209.511Z" transform="translate(112.208 -208.438)" fill="#424143"/>
      <path id="Path_45180" data-name="Path 45180" d="M150.95,209.46h9.2v60.133h-9.2Z" transform="translate(149.764 -208.438)" fill="#424143"/>
      <path id="Path_45181" data-name="Path 45181" d="M155.29,209.46h33v8.43H164.486v16.757h23.041v8.43H164.486v18.137H189.06v8.43H155.29V209.511Z" transform="translate(167.597 -208.438)" fill="#424143"/>
      <path id="Path_45182" data-name="Path 45182" d="M164.27,209.46h16.5c19.823,0,33.413,11.7,33.413,30.041s-13.59,30.092-33.413,30.092h-16.5ZM180.721,260.4c14.765,0,24.319-7.561,24.319-20.9s-9.554-20.9-24.319-20.9h-7.306v41.74h7.306Z" transform="translate(204.496 -208.438)" fill="#424143"/>
      <path id="Path_45183" data-name="Path 45183" d="M179.96,240.374a31.319,31.319,0,1,1,31.369,31.114A31.322,31.322,0,0,1,179.96,240.374Zm31.318,21.917A21.919,21.919,0,1,0,189.1,240.374,22.044,22.044,0,0,0,211.278,262.291Z" transform="translate(268.966 -209.26)" fill="#424143"/>
      <path id="Path_45184" data-name="Path 45184" d="M194.291,209.5h16.042c12.006,0,21.151,6.284,21.151,18.188,0,8.225-4.292,13.743-10.831,16.4l17.166,25.494H226.478l-15.225-23.6h-7.919v23.6H194.24V209.45Zm16.093,27.333c7.05,0,11.751-2.81,11.751-9.094s-4.7-9.043-11.751-9.043h-6.948v18.137Z" transform="translate(327.642 -208.479)" fill="#424143"/>
      <path id="Path_45185" data-name="Path 45185" d="M204.39,209.46h16.5c19.823,0,33.413,11.7,33.413,30.041s-13.59,30.092-33.413,30.092h-16.5Zm16.5,50.936c14.765,0,24.319-7.561,24.319-20.9s-9.554-20.9-24.319-20.9h-7.306v41.74h7.306Z" transform="translate(369.348 -208.438)" fill="#424143"/>
      <path id="Path_45186" data-name="Path 45186" d="M216.2,209.46h33v8.43H225.4v16.757h23.042v8.43H225.4v18.137H249.97v8.43H216.2V209.511Z" transform="translate(417.875 -208.438)" fill="#424143"/>
      <path id="Path_45187" data-name="Path 45187" d="M225.221,209.5h16.042c12.006,0,21.151,6.284,21.151,18.188,0,8.225-4.292,13.743-10.831,16.4l17.166,25.494H257.408l-15.225-23.6h-7.919v23.6H225.17V209.45Zm16.042,27.333c7.05,0,11.751-2.81,11.751-9.094s-4.7-9.043-11.751-9.043h-6.948v18.137Z" transform="translate(454.733 -208.479)" fill="#424143"/>
      <path id="Path_45188" data-name="Path 45188" d="M239.751,209.46h9.6l17.268,27.384,17.268-27.384h9.6v60.133h-9.2V224.736l-15.02,23.348h-5.416L248.9,224.736v44.857h-9.2V209.46Z" transform="translate(514.436 -208.438)" fill="#424143"/>
      <path id="Path_45189" data-name="Path 45189" d="M275.543,209.46h9.809l23.6,60.133h-9.6l-6.437-16.5H267.982l-6.437,16.5h-9.6Zm14,35.252-9.094-23.195-9.094,23.195Z" transform="translate(564.73 -208.438)" fill="#424143"/>
      <path id="Path_45190" data-name="Path 45190" d="M264.8,209.46h10.218l30.909,46.39V209.46h9.2v60.133H305.008L274,223.2v46.39h-9.2V209.46Z" transform="translate(617.571 -208.438)" fill="#424143"/>
      <path id="Path_45191" data-name="Path 45191" d="M299.964,209.46h9.809l23.6,60.133h-9.6l-6.437-16.5H292.4l-6.437,16.5h-9.6l23.6-60.133Zm14,35.252-9.094-23.195-9.094,23.195Z" transform="translate(665.071 -208.438)" fill="#424143"/>
      <path id="Path_45192" data-name="Path 45192" d="M288.04,240.374a31.29,31.29,0,0,1,55.688-19.414l-7.306,5.518a22.723,22.723,0,0,0-17.115-7.97,21.918,21.918,0,1,0,0,43.835c10.576,0,17.013-6.08,19.414-15.225H317.774v-8.43h31.165c0,18.648-11.087,32.8-29.632,32.8A31.234,31.234,0,0,1,288.04,240.374Z" transform="translate(713.064 -209.26)" fill="#424143"/>
      <path id="Path_45193" data-name="Path 45193" d="M302,209.46h33v8.43H311.2v16.757h23.042v8.43H311.2v18.137H335.77v8.43H302V209.511Z" transform="translate(770.425 -208.438)" fill="#424143"/>
      <path id="Path_45194" data-name="Path 45194" d="M311.021,209.46h9.6l17.268,27.384,17.268-27.384h9.6v60.133h-9.2V224.736l-15.02,23.348h-5.416l-14.969-23.348v44.857h-9.2V209.46Z" transform="translate(807.283 -208.438)" fill="#424143"/>
      <path id="Path_45195" data-name="Path 45195" d="M324.05,209.46h33v8.43H333.246v16.757h23.042v8.43H333.246v18.137H357.82v8.43H324.05V209.511Z" transform="translate(861.028 -208.438)" fill="#424143"/>
      <path id="Path_45196" data-name="Path 45196" d="M333.03,209.46h10.218l30.909,46.39V209.46h9.2v60.133H373.238L342.226,223.2v46.39h-9.2V209.46Z" transform="translate(897.927 -208.438)" fill="#424143"/>
      <path id="Path_45197" data-name="Path 45197" d="M359.957,218.656H345.09v-9.2h38.93v9.2H369.153v50.937h-9.2Z" transform="translate(947.481 -208.438)" fill="#424143"/>
      <path id="Path_45198" data-name="Path 45198" d="M358.831,255.394l9.094-.869c.153,1.277,1.635,7.714,9.86,7.714,6.284,0,9.963-3.372,9.963-8.328,0-5.671-3.627-6.693-10.831-9.86-6.795-3.014-16.246-5.824-16.246-18.75,0-9.094,7.306-16.042,16.6-16.042s15.889,6.693,16.655,13.9l-9.094,1.124a7.457,7.457,0,0,0-7.561-5.824c-4.649,0-7.561,3.014-7.561,6.846,0,5.16,3.372,6.948,10.984,10.422,6.591,2.912,16.349,5.671,16.349,18.188,0,10.627-8.328,17.524-19.261,17.524-11.955,0-18.392-8.072-19.005-16.042Z" transform="translate(1003.733 -209.26)" fill="#424143"/>
      <path id="Path_45199" data-name="Path 45199" d="M367.81,240.374a31.319,31.319,0,1,1,31.369,31.114A31.322,31.322,0,0,1,367.81,240.374Zm31.369,21.917a21.919,21.919,0,1,0-22.173-21.917A22.044,22.044,0,0,0,399.179,262.291Z" transform="translate(1040.837 -209.26)" fill="#424143"/>
      <path id="Path_45200" data-name="Path 45200" d="M382.1,209.46h9.2V260.4h25.085v9.2H382.1Z" transform="translate(1099.555 -208.438)" fill="#424143"/>
      <path id="Path_45201" data-name="Path 45201" d="M390.85,245.632V209.46h9.2v36.172c0,9.043,4.547,15.736,14.612,15.736s14.612-6.693,14.612-15.736V209.46h9.2v36.172c0,14.1-8.685,24.932-23.808,24.932s-23.808-10.831-23.808-24.932Z" transform="translate(1135.508 -208.438)" fill="#424143"/>
      <path id="Path_45202" data-name="Path 45202" d="M417.237,218.656H402.37v-9.2H441.3v9.2H426.433v50.937h-9.2Z" transform="translate(1182.844 -208.438)" fill="#424143"/>
      <path id="Path_45203" data-name="Path 45203" d="M412.19,209.46h9.2v60.133h-9.2Z" transform="translate(1223.194 -208.438)" fill="#424143"/>
      <path id="Path_45204" data-name="Path 45204" d="M416.03,240.374A31.319,31.319,0,1,1,447.4,271.487,31.322,31.322,0,0,1,416.03,240.374Zm31.318,21.917a21.919,21.919,0,1,0-22.173-21.917A22.044,22.044,0,0,0,447.348,262.291Z" transform="translate(1238.972 -209.26)" fill="#424143"/>
      <path id="Path_45205" data-name="Path 45205" d="M430.32,209.46h10.218l30.909,46.39V209.46h9.2v60.133H470.527L439.516,223.2v46.39h-9.2Z" transform="translate(1297.689 -208.438)" fill="#424143"/>
    </g>
    <path id="Path_45206" data-name="Path 45206" d="M1702.319,122.41H291.22c-110.3,0-199.71,89.407-199.71,199.71h0V521.881H1702.319a199.724,199.724,0,0,0,199.71-199.761c0-110.3-89.407-199.71-199.71-199.71ZM1694.3,502.16H550.807V322.171h0V142.08H1694.3c98.041,0,177.588,79.5,177.588,177.588v4.9C1871.886,422.665,1792.34,502.16,1694.3,502.16Z" fill="url(#linear-gradient)"/>
    <g id="Group_16591" data-name="Group 16591" transform="translate(153.421 198.023)">
      <path id="Path_45207" data-name="Path 45207" d="M113.5,249.951a77.751,77.751,0,0,0,1.226,11.342,71.485,71.485,0,0,0,2.912,11.138,75.24,75.24,0,0,0,4.751,10.576,68.407,68.407,0,0,0,6.642,9.6c1.328,1.43,2.606,2.912,3.985,4.292l2.146,1.992a25.3,25.3,0,0,0,2.2,1.89,70.189,70.189,0,0,0,19.057,10.933,34.6,34.6,0,0,1,3.321-9.247,61.908,61.908,0,0,1-16.757-8.839,19.334,19.334,0,0,1-1.992-1.584l-1.89-1.635c-1.226-1.124-2.35-2.4-3.576-3.576a72.931,72.931,0,0,1-6.131-8.072,65.952,65.952,0,0,1-4.6-9.094,63.149,63.149,0,0,1-3.065-9.86,81.082,81.082,0,0,1-1.89-20.845,113.458,113.458,0,0,1,2.606-21.1,156.49,156.49,0,0,1,6.131-20.64,189.785,189.785,0,0,1,8.736-19.823c.92-1.839,1.839-3.627,2.861-5.416.971-1.737,1.941-3.525,2.963-5.262.971-1.686,1.992-3.372,3.014-5.007l1.992-3.219c-.715.92-1.431,1.839-2.095,2.759-1.073,1.431-2.146,2.861-3.168,4.343-1.073,1.482-2.095,3.014-3.117,4.547-1.379,2.095-2.759,4.189-4.087,6.335a180.707,180.707,0,0,0-10.32,19.414,131.651,131.651,0,0,0-11.7,42.711A92.348,92.348,0,0,0,113.4,249.9Z" transform="translate(-63.778 -49.73)" fill="#ffcc04"/>
      <g id="Group_16590" data-name="Group 16590" transform="translate(105.051 58.702)">
        <path id="Path_45208" data-name="Path 45208" d="M171.059,163.881c-1.022,1.941-2.095,3.934-3.27,5.926-1.073,1.89-2.095,3.576-3.065,5.16-1.022,1.635-2.044,3.321-3.168,4.9L157.98,163.83h13.028Z" transform="translate(14.652 -86.531)" fill="url(#linear-gradient-2)"/>
        <path id="Path_45209" data-name="Path 45209" d="M155.97,154.811h38.777c0,.562-.153,1.175-.2,1.737a104.318,104.318,0,0,1-3.883,17.422H160.21l-4.24-19.21Z" transform="translate(6.393 -123.799)" fill="url(#linear-gradient-3)"/>
        <path id="Path_45210" data-name="Path 45210" d="M154,183.05H130.45l-4.24-19.21h23.552Z" transform="translate(-115.89 -86.49)" fill="url(#linear-gradient-4)"/>
        <path id="Path_45211" data-name="Path 45211" d="M147.742,154.77l4.292,19.159h-23.6l-4.24-19.159Z" transform="translate(-124.19 -123.758)" fill="url(#linear-gradient-5)"/>
        <path id="Path_45212" data-name="Path 45212" d="M161.169,226.05l-6.08-27.18H134.5l-4.24-19.21H150.8l-5.007-22.531-1.533-6.948-.307-1.482H167.76l.307,1.482,1.533,6.948,5.007,22.531h35.3L204.9,157.13l-1.533-6.948-.307-1.482h23.808l.307,1.482,1.533,6.948,5.007,22.531h20.334l4.292,19.21H238.008l6.08,27.18h20.283l4.138,18.7s-.255.358-.358.511H248.328l3.883,17.524,1.533,6.9H229.936l-1.533-6.948-3.883-17.524h-35.3l3.883,17.524,1.533,6.948H170.825l-1.533-6.948-3.883-17.524H144.821L140.529,226h20.589Zm59.162,0-6.08-27.18h-35.3l6.08,27.18Z" transform="translate(-99.249 -148.7)" fill="url(#linear-gradient-6)"/>
      </g>
      <path id="Path_45213" data-name="Path 45213" d="M104.456,143.545c1.635-3.934,4.751-6.233,8.992-6.233,10.524,0,21.1-.1,31.625-.1,9.452,0,18.9,0,28.355.1,5.569,0,8.89,3.219,10.218,9.094,2.3,10.167,4.547,20.334,6.9,30.807H396.178l.307.307a50.379,50.379,0,0,1,9.452,14.663,54.183,54.183,0,0,1,1.89,5.313H194.987c8.89,40.054,17.728,79.8,26.567,119.5H363.277c-4.6,5.007-9.5,9.963-14.714,14.765-1.992,1.839-4.036,3.627-6.029,5.364H216.24c-8.021,0-12.619,3.627-12.619,9.963s4.649,9.962,12.619,9.962h99.727c-6.233,4.036-12.006,7.459-17.728,10.422-6.284,3.27-12.517,6.182-18.546,8.634-.869.358-1.737.715-2.606,1.022H238.362a32.25,32.25,0,0,1,14.867,7.255,30.921,30.921,0,0,1,2.861,2.912,30.6,30.6,0,0,1,1.941,2.555l.307.46a29.49,29.49,0,0,1,4.5,10.678,19.024,19.024,0,0,1,.46,3.423,27.044,27.044,0,0,1,.051,3.525,29.871,29.871,0,0,1-.46,4.7c-2.248,13.334-15.327,24.268-29.019,24.268h-1.073c-15.838-.664-27.793-12.21-29.172-28.2v-.358a16.945,16.945,0,0,1,0-3.219,19.531,19.531,0,0,1,.358-3.474,26.849,26.849,0,0,1,3.576-9.5,30.2,30.2,0,0,1,2.095-3.116,36.209,36.209,0,0,1,2.657-3.014,34.36,34.36,0,0,1,16.5-9.043H214.452c-14.152-.2-25.443-8.328-29.428-21.2a29.8,29.8,0,0,1,14.2-35c.766-.409,1.482-.868,2.4-1.43q-6.667-30.194-13.386-60.388c-.358-1.686-.715-3.321-1.124-4.956l-1.073-4.9a1.493,1.493,0,0,0-.1-.46v-.1l5.569-8.583-6.437,4.9-.153-.613c-.1-.409-.153-.766-.255-1.175q-9.5-42.992-19.108-85.984h-51.4c-7.612-.051-12.517-6.948-9.758-13.641ZM228.042,405.074s-.153.46-.255.715a5.148,5.148,0,0,0-.153,1.277,4.13,4.13,0,0,0,.051.766,5.158,5.158,0,0,0,.715,2.044,5.916,5.916,0,0,0,10.524-.307,6.078,6.078,0,0,0,.562-2.095v-.46a5.274,5.274,0,0,0-.2-1.533,4,4,0,0,0-.255-.715,6.047,6.047,0,0,0-5.467-3.627,5.946,5.946,0,0,0-5.569,3.985Z" transform="translate(-103.628 -137.21)" fill="#fff"/>
      <path id="Path_45214" data-name="Path 45214" d="M147.543,378.111c-2.912,1.073-5.824,2.044-8.787,2.912a37.225,37.225,0,0,1,4.189,10.882c5.415-1.533,10.729-3.372,15.94-5.364q9.733-3.755,19.005-8.43c2.555-1.277,5.109-2.606,7.663-4.036,2.35-1.277,4.7-2.657,7.05-4.036a250.064,250.064,0,0,0,28.764-20.129c1.635-1.328,3.27-2.657,4.854-4.036,1.584-1.328,3.117-2.657,4.649-4.036,1.073-.971,2.2-1.941,3.27-2.963.358-.307.664-.613.971-.92,1.431-1.328,2.81-2.657,4.189-4.036,1.379-1.328,2.708-2.657,4.036-4.036,17.83-18.239,33.106-39.186,43.835-62.636C293.3,253.5,298,238.994,299.74,223.769a99.27,99.27,0,0,0,.1-23.041,74.483,74.483,0,0,0-6.233-22.479,66.771,66.771,0,0,0-4.6-8.379c-.92-1.379-1.839-2.708-2.81-4.036-1.073-1.379-2.146-2.708-3.321-4.036-.868-.971-1.737-1.89-2.657-2.81a66.22,66.22,0,0,0-9.094-7.408c-1.584-1.175-3.321-2.044-4.956-3.065l-2.606-1.328q-1.3-.69-2.606-1.226l-2.657-1.124-2.708-.971c-1.788-.715-3.678-1.175-5.467-1.737a103.259,103.259,0,0,0-11.189-2.248,106.381,106.381,0,0,0-13.9-.92c-2.861,0-5.722.1-8.583.358a154.267,154.267,0,0,0-43.018,10.269,190.433,190.433,0,0,0-19.976,9.145c-1.941,1.022-3.832,2.095-5.722,3.168-2.3,1.277-4.547,2.657-6.795,4.036-2.095,1.277-4.189,2.657-6.233,4.036,2.555-1.379,5.16-2.708,7.817-4.036,2.81-1.379,5.671-2.759,8.532-4.036,1.073-.511,2.2-.971,3.27-1.43a206.717,206.717,0,0,1,20.334-7.561c13.743-4.24,28-7.1,42.149-7.357h3.014a100.182,100.182,0,0,1,17.984,1.584,94.335,94.335,0,0,1,10.116,2.5c1.635.613,3.27,1.073,4.854,1.788l2.35.971,2.3,1.124c.766.358,1.533.766,2.248,1.175l2.2,1.277c1.379.971,2.912,1.788,4.189,2.81a42.494,42.494,0,0,1,3.781,3.014c1.328,1.175,2.606,2.4,3.832,3.627l.358.409c1.175,1.277,2.3,2.657,3.372,4.036a56.747,56.747,0,0,1,7.1,12.313,63.639,63.639,0,0,1,2.708,7.97c.358,1.328.664,2.657.92,4.036a.649.649,0,0,0,.051.307,69.772,69.772,0,0,1,1.022,7.306c.1,1.022.153,2.044.2,3.065h0a95.332,95.332,0,0,1-.766,17.473c-1.839,13.743-6.437,27.129-12.415,39.85-2.095,4.5-4.445,8.89-6.948,13.232-1.022,1.788-2.095,3.576-3.168,5.313-1.482,2.4-2.963,4.751-4.547,7.1-2.2,3.27-4.547,6.539-6.948,9.656a7.519,7.519,0,0,1-.511.664c-.869,1.175-1.788,2.35-2.657,3.474-1.073,1.379-2.146,2.708-3.27,4.036-1.124,1.379-2.248,2.708-3.423,4.036a251.95,251.95,0,0,1-19.261,19.823c-.1.1-.255.2-.358.307l-4.445,3.985c-1.533,1.379-3.117,2.708-4.751,4.087-1.584,1.328-3.168,2.606-4.751,3.883-1.737,1.379-3.423,2.708-5.211,4.036-1.788,1.379-3.627,2.708-5.467,4.036q-4.215,2.989-8.583,5.824a211.843,211.843,0,0,1-18.29,10.78c-2.35,1.226-4.649,2.4-7.05,3.525-2.912,1.379-5.926,2.759-8.89,4.036-1.073.46-2.2.92-3.27,1.379-2.3.92-4.649,1.839-7,2.657Z" transform="translate(24.129 -130.019)" fill="#ffcc04"/>
      <path id="Path_45215" data-name="Path 45215" d="M147.585,374.729c-2.095.766-4.24,1.482-6.335,2.146l.2,6.233S255.486,348.469,289.1,239.545c22.122-71.781-22.326-102.077-74.08-99.625-28.866,1.379-58.958,13.641-80.313,26.72,2.606-1.379,5.211-2.708,7.817-4.036,2.81-1.43,5.671-2.759,8.532-4.036,1.073-.511,2.2-.971,3.27-1.43a194.141,194.141,0,0,1,20.334-7.51c13.794-4.24,28-7.05,42.2-7.357h3.014a100.182,100.182,0,0,1,17.984,1.584,85.98,85.98,0,0,1,10.116,2.5c1.635.613,3.27,1.073,4.854,1.788l2.4.971,2.3,1.124c.766.358,1.533.766,2.248,1.175l2.2,1.277c1.43.971,2.912,1.788,4.189,2.81a36.229,36.229,0,0,1,3.781,3.014c1.328,1.175,2.606,2.4,3.832,3.627l.409.409c1.175,1.277,2.3,2.657,3.372,4.036a56.749,56.749,0,0,1,7.1,12.313,63.645,63.645,0,0,1,2.708,7.97c.358,1.328.664,2.657.92,4.036a.649.649,0,0,0,.051.307,71.719,71.719,0,0,1,1.022,7.306c.1,1.022.153,1.992.2,3.065.051,1.533.1,3.065.1,4.6a90.934,90.934,0,0,1-.92,12.875c-1.839,13.692-6.437,27.129-12.415,39.85-2.095,4.5-4.445,8.89-6.948,13.181-1.022,1.788-2.095,3.576-3.168,5.364-1.482,2.4-2.963,4.751-4.547,7.05-2.2,3.321-4.547,6.539-6.948,9.707-.2.255-.358.46-.511.664-.869,1.175-1.737,2.35-2.657,3.474-1.073,1.328-2.146,2.657-3.27,4.036s-2.248,2.657-3.423,4.036A261.8,261.8,0,0,1,225.6,326.3c-.1.1-.255.2-.358.307l-4.445,3.985c-1.584,1.379-3.168,2.708-4.751,4.087-1.584,1.277-3.168,2.606-4.751,3.883-1.686,1.379-3.423,2.708-5.211,4.036-1.788,1.379-3.627,2.708-5.467,4.036q-4.215,2.989-8.583,5.824a211.834,211.834,0,0,1-18.29,10.78c-2.35,1.226-4.7,2.4-7.05,3.576-2.912,1.379-5.875,2.759-8.89,4.036-1.073.46-2.2.92-3.27,1.379-2.3.92-4.6,1.788-6.948,2.657Z" transform="translate(24.087 -126.637)" fill="url(#linear-gradient-7)"/>
      <path id="Path_45216" data-name="Path 45216" d="M128.98,165.313H302.89a57.355,57.355,0,0,0-10.882-20.283H159.174a223.638,223.638,0,0,0-30.143,20.232Z" transform="translate(0.543 -105.078)" opacity="0.2" fill="url(#linear-gradient-8)"/>
      <path id="Path_45217" data-name="Path 45217" d="M120.659,283.145c3.985,12.875,15.276,21.049,29.428,21.2h14.356a34.442,34.442,0,0,0-15.174,7.817c11.9,1.992,25.085,1.635,38.982-.971a32.653,32.653,0,0,0-14.2-6.693h38.726c.869-.358,1.686-.715,2.606-1.022,6.08-2.452,12.313-5.364,18.546-8.634a196.327,196.327,0,0,0,17.728-10.422H151.926c-7.97,0-12.619-3.678-12.619-9.963s4.649-9.962,12.619-9.962H278.22c1.993-1.737,4.036-3.576,6.029-5.364,5.211-4.854,10.116-9.758,14.714-14.765H157.239c-6.591-29.785-13.232-59.52-19.925-89.458a201.147,201.147,0,0,0-15.838,20.742,2.175,2.175,0,0,0,.1.562,1.492,1.492,0,0,0,.1.46l1.073,4.9c.358,1.635.715,3.27,1.124,4.956q6.667,30.194,13.386,60.388c-.92.511-1.635.971-2.4,1.431a29.626,29.626,0,0,0-14.2,35Z" transform="translate(-39.263 -64.481)" opacity="0.2" fill="url(#linear-gradient-9)"/>
    </g>
    <g id="Group_16592" data-name="Group 16592" transform="translate(589.686 248.244)">
      <path id="Path_45218" data-name="Path 45218" d="M189.02,223.624c0-42.3,34.69-76.584,76.992-76.584A76.739,76.739,0,0,1,325.889,175.8L308.11,189.342a55.808,55.808,0,0,0-42.1-19.67c-29.836,0-54.564,24.114-54.564,53.951s24.779,53.951,54.564,53.951A54.039,54.039,0,0,0,309.8,255.35l17.984,13.743a76.987,76.987,0,0,1-61.767,31.114c-42.3,0-76.992-34.281-76.992-76.584Z" transform="translate(-189.02 -147.04)" fill="#424143"/>
      <path id="Path_45219" data-name="Path 45219" d="M275.872,147.53h24.114l58.191,148.109H334.472l-15.889-40.616H257.224l-15.889,40.616H217.63L275.821,147.53Zm34.486,86.75-22.428-57.118L265.5,234.28h44.857Z" transform="translate(-71.462 -145.027)" fill="#424143"/>
      <path id="Path_45220" data-name="Path 45220" d="M281.351,170.163H244.72V147.53h95.844v22.633h-36.58V295.639H281.351V170.163Z" transform="translate(39.85 -145.026)" fill="#424143"/>
      <path id="Path_45221" data-name="Path 45221" d="M321.3,147.53h24.114l58.191,148.109H379.9l-15.889-40.616H302.655l-15.889,40.616H263.06L321.251,147.53Zm34.486,86.75-22.428-57.118L310.931,234.28h44.857Z" transform="translate(115.209 -145.027)" fill="#424143"/>
      <path id="Path_45222" data-name="Path 45222" d="M293.88,147.53h22.633V273.006H378.28v22.633h-84.4V147.53Z" transform="translate(241.847 -145.027)" fill="#424143"/>
      <path id="Path_45223" data-name="Path 45223" d="M312.48,223.624c0-42.3,34.894-76.584,77.248-76.584s76.992,34.281,76.992,76.584-34.894,76.584-76.992,76.584S312.48,265.926,312.48,223.624Zm77.2,53.951c29.836,0,54.36-24.114,54.36-53.951s-24.523-53.951-54.36-53.951-54.564,24.114-54.564,53.951S359.84,277.574,389.677,277.574Z" transform="translate(318.274 -147.04)" fill="#424143"/>
      <path id="Path_45224" data-name="Path 45224" d="M345.56,223.624c0-42.3,34.69-76.584,76.992-76.584A77.461,77.461,0,0,1,482.634,175.8L464.65,189.342a55.808,55.808,0,0,0-42.1-19.67c-29.836,0-54.359,24.114-54.359,53.951s24.523,53.951,54.359,53.951c26,0,41.894-15.02,47.82-37.449h-51.6V219.383H495.56c0,45.93-27.282,80.824-73.007,80.824-42.3,0-76.992-34.281-76.992-76.584Z" transform="translate(454.199 -147.04)" fill="#424143"/>
      <path id="Path_45225" data-name="Path 45225" d="M433.162,147.53h24.114l58.191,148.109H491.762l-15.889-40.616H414.515l-15.889,40.616H374.92L433.111,147.53Zm34.486,86.75-22.428-57.118L422.791,234.28h44.857Z" transform="translate(574.839 -145.027)" fill="#424143"/>
      <path id="Path_45226" data-name="Path 45226" d="M405.74,147.53h22.633v70.044l54.82-70.044h28.355l-59.673,73.825,67.694,74.284H488.659l-60.286-68.1v68.1H405.74V147.53Z" transform="translate(701.477 -145.027)" fill="#424143"/>
    </g>
  </g>
</svg>
