<svg xmlns="http://www.w3.org/2000/svg" xmlns:xlink="http://www.w3.org/1999/xlink" width="24" height="24" viewBox="0 0 24 24">
  <defs>
    <clipPath id="clip-path">
      <rect id="Rectangle_4935" data-name="Rectangle 4935" width="24" height="24" transform="translate(1306 36)" fill="#fff" stroke="#707070" stroke-width="1"/>
    </clipPath>
  </defs>
  <g id="Mask_Group_244" data-name="Mask Group 244" transform="translate(-1306 -36)" clip-path="url(#clip-path)">
    <g id="box" transform="translate(1305.563 35.572)">
      <path id="Path_43345" data-name="Path 43345" d="M22.976,10.883h-1.21a1.192,1.192,0,0,0-1.138-.874H19.336V6.849a.333.333,0,0,0-.163-.295L10.06,1.291a.337.337,0,0,0-.338,0L.606,6.555a.339.339,0,0,0-.169.295V17.376a.34.34,0,0,0,.17.295l9.117,5.264a.34.34,0,0,0,.17.046.358.358,0,0,0,.175-.046l4.8-2.767v2a1.44,1.44,0,0,0,1.452,1.444h6.657a1.448,1.448,0,0,0,1.462-1.444V12.349A1.467,1.467,0,0,0,22.976,10.883Zm-2.336-.194a.494.494,0,0,1,.494.494v.033a.494.494,0,0,1-.494.494H18.664a.494.494,0,0,1-.494-.494v-.033a.494.494,0,0,1,.494-.494ZM9.894,1.978l3.788,2.187L5.246,9.036,1.458,6.849ZM9.571,22.051,1.117,17.18V7.437l8.453,4.871Zm.323-10.332L5.926,9.428l8.436-4.87L18.33,6.849Zm4.972.63v7.033l-4.615,2.669V12.308l8.4-4.871v2.571h.011a1.192,1.192,0,0,0-1.138.874h-1.21A1.459,1.459,0,0,0,14.866,12.349Zm8.891,9.819a.767.767,0,0,1-.781.764H16.319a.759.759,0,0,1-.772-.764V12.349a.778.778,0,0,1,.772-.786h1.223a1.163,1.163,0,0,0,1.124.826h1.961a1.163,1.163,0,0,0,1.124-.826h1.223a.786.786,0,0,1,.781.786Z" fill="#fff"/>
      <path id="Path_43346" data-name="Path 43346" d="M16.71,15.789h.356a.34.34,0,1,0,0-.68h-.013v-.923h.938a.327.327,0,0,0,.323.23.341.341,0,0,0,.342-.339v-.229a.345.345,0,0,0-.344-.342h-1.6a.339.339,0,0,0-.338.342v1.6a.338.338,0,0,0,.338.34Z" fill="#fff"/>
      <path id="Path_43347" data-name="Path 43347" d="M16.713,18.9h1.6a.34.34,0,0,0,.34-.34v-1.6a.34.34,0,0,0-.34-.34h-1.6a.34.34,0,0,0-.34.34v1.6A.34.34,0,0,0,16.713,18.9Zm.34-1.6h.923v.923h-.923Z" fill="#fff"/>
      <path id="Path_43348" data-name="Path 43348" d="M17.066,21.328h-.013V20.4h.92a.342.342,0,1,0,.684,0v-.328a.355.355,0,0,0-.344-.353h-1.6a.349.349,0,0,0-.338.353v1.6a.328.328,0,0,0,.338.328h.356a.34.34,0,0,0,0-.68Z" fill="#fff"/>
      <path id="Path_43349" data-name="Path 43349" d="M19.1,13.923l-1,1-.3-.3a.34.34,0,1,0-.481.481l.543.543a.34.34,0,0,0,.481,0L19.576,14.4a.34.34,0,0,0-.481-.481Z" fill="#fff"/>
      <path id="Path_43350" data-name="Path 43350" d="M19.1,20.2l-1,1-.3-.3a.34.34,0,0,0-.481.481l.544.543a.34.34,0,0,0,.481,0l1.237-1.237A.34.34,0,0,0,19.1,20.2Z" fill="#fff"/>
      <path id="Path_43351" data-name="Path 43351" d="M22.584,14.332H20.448a.34.34,0,0,0,0,.68h2.136a.34.34,0,1,0,0-.68Z" fill="#fff"/>
      <path id="Path_43352" data-name="Path 43352" d="M22.584,17.441H20.448a.34.34,0,1,0,0,.68h2.136a.34.34,0,1,0,0-.68Z" fill="#fff"/>
      <path id="Path_43353" data-name="Path 43353" d="M22.584,20.551H20.448a.34.34,0,1,0,0,.68h2.136a.34.34,0,0,0,0-.68Z" fill="#fff"/>
    </g>
  </g>
</svg>
