<svg xmlns="http://www.w3.org/2000/svg" xmlns:xlink="http://www.w3.org/1999/xlink" width="20" height="20" viewBox="0 0 20 20">
  <defs>
    <clipPath id="clip-path">
      <rect id="Rectangle_19077" data-name="Rectangle 19077" width="20" height="20" fill="#fff" stroke="#707070" stroke-width="1"/>
    </clipPath>
  </defs>
  <g id="Mask_Group_15504" data-name="Mask Group 15504" clip-path="url(#clip-path)">
    <path id="box-open_1_" data-name="box-open (1)" d="M10.016,4.777,2.521,2.271,8.691.214a4.168,4.168,0,0,1,2.636,0l6.184,2.061ZM7.363,9.464,9.176,6.443,2.553,4.235a1.156,1.156,0,0,0-1.357.5L.257,6.3a1.689,1.689,0,0,0,.914,2.471l4.235,1.412a1.668,1.668,0,0,0,1.956-.724Zm-4.856-7.2v.009l.014-.005-.014-.005Zm6.668,17.66V9.683l-.383.638a3.314,3.314,0,0,1-2.847,1.621,3.352,3.352,0,0,1-1.067-.174L1.674,10.7v3.8a4.167,4.167,0,0,0,2.85,3.953l3.7,1.232a6.96,6.96,0,0,0,.955.239Zm10.6-13.594-.957-1.595a1.156,1.156,0,0,0-1.357-.5L10.842,6.442l1.813,3.021a1.666,1.666,0,0,0,1.956.724l4.266-1.422a1.663,1.663,0,0,0,.9-2.434Zm-5.706,5.612a3.312,3.312,0,0,1-2.847-1.621l-.383-.638V19.922a7.226,7.226,0,0,0,1.03-.262h.008l3.613-1.205a4.168,4.168,0,0,0,2.85-3.953V10.7l-3.2,1.069a3.352,3.352,0,0,1-1.067.174Z" transform="translate(-0.015 0.037)" fill="#fff"/>
  </g>
</svg>
