<svg xmlns="http://www.w3.org/2000/svg" xmlns:xlink="http://www.w3.org/1999/xlink" width="60" height="60" viewBox="0 0 60 60">
  <defs>
    <clipPath id="clip-path">
      <rect id="Rectangle_5748" data-name="Rectangle 5748" width="60" height="60" transform="translate(782 611)" fill="#fff" stroke="#707070" stroke-width="1"/>
    </clipPath>
  </defs>
  <g id="Mask_Group_15184" data-name="Mask Group 15184" transform="translate(-782 -611)" clip-path="url(#clip-path)">
    <g id="money_1_" data-name="money (1)" transform="translate(780.75 609.75)">
      <g id="Group_15886" data-name="Group 15886">
        <g id="Group_15855" data-name="Group 15855">
          <g id="Group_15842" data-name="Group 15842">
            <path id="Path_43838" data-name="Path 43838" d="M61.248,28,10.927,39.687,1.273,25.837l50.32-11.692Z" fill="#47a047"/>
          </g>
          <g id="Group_15843" data-name="Group 15843">
            <path id="Path_43839" data-name="Path 43839" d="M55.668,26.833l-19,4.418c2.4-1.3,3.122-3.687,1.55-5.946a7.734,7.734,0,0,0-2.458-2.181,11.6,11.6,0,0,0-5.8-1.483l19.01-4.417a3.511,3.511,0,0,1,2.391.277,1.683,1.683,0,0,1,.487.431l5.049,7.23c.454.664-.089,1.406-1.229,1.672Z" fill="#96d696"/>
          </g>
          <g id="Group_15844" data-name="Group 15844">
            <path id="Path_43840" data-name="Path 43840" d="M49.783,18.341a.906.906,0,0,1,.289.251c.27.392-.052.833-.727.988a2.039,2.039,0,0,1-1.411-.165.87.87,0,0,1-.289-.255c-.277-.388.052-.833.713-.988A2.075,2.075,0,0,1,49.783,18.341Z" fill="#47a047"/>
          </g>
          <g id="Group_15845" data-name="Group 15845">
            <path id="Path_43841" data-name="Path 43841" d="M52.021,26.893c-.09.208-.343.363-.752.461a1.911,1.911,0,0,1-1.1-.033,1.7,1.7,0,0,1-.257-.12,1.58,1.58,0,0,1-.507-.467A.76.76,0,0,1,49.247,26c.1-.212.343-.363.759-.457a1.856,1.856,0,0,1,1.092.029,1.614,1.614,0,0,1,.273.125,1.511,1.511,0,0,1,.5.467A.744.744,0,0,1,52.021,26.893Zm-.929.2c.253-.057.4-.159.428-.306a.619.619,0,0,0-.158-.514,1.186,1.186,0,0,0-.4-.385c-.032-.019-.066-.036-.1-.051a1.044,1.044,0,0,0-.677-.049c-.253.057-.394.163-.435.31a.671.671,0,0,0,.151.518,1.291,1.291,0,0,0,.409.381c.033.019.066.036.1.052a1.014,1.014,0,0,0,.684.045" fill="#414a61"/>
          </g>
          <g id="Group_15846" data-name="Group 15846">
            <path id="Path_43842" data-name="Path 43842" d="M48.127,26.028l1.215,1.751-.486.11-1.03-1.49-.612.143-.185-.261Z" fill="#414a61"/>
          </g>
          <g id="Group_15847" data-name="Group 15847">
            <path id="Path_43843" data-name="Path 43843" d="M19.583,28.38a3.494,3.494,0,0,1,1.133.99c1.058,1.514-.2,3.236-2.818,3.841a7.994,7.994,0,0,1-5.507-.651,3.461,3.461,0,0,1-1.132-.994c-1.058-1.514.207-3.232,2.818-3.841a7.987,7.987,0,0,1,5.506.654Z" fill="#47a047"/>
          </g>
          <g id="Group_15848" data-name="Group 15848">
            <path id="Path_43844" data-name="Path 43844" d="M42.616,20a.891.891,0,0,1,.293.257c.27.392-.052.833-.727.988a2.039,2.039,0,0,1-1.411-.165.87.87,0,0,1-.289-.255c-.277-.388.052-.833.72-.992A2.058,2.058,0,0,1,42.616,20Z" fill="#47a047"/>
          </g>
          <g id="Group_15849" data-name="Group 15849">
            <path id="Path_43845" data-name="Path 43845" d="M46.2,19.171a.894.894,0,0,1,.294.258c.277.388-.052.833-.727.988a2.077,2.077,0,0,1-1.418-.173.911.911,0,0,1-.29-.251c-.27-.392.052-.833.727-.988a2.04,2.04,0,0,1,1.414.167Z" fill="#47a047"/>
          </g>
          <g id="Group_15850" data-name="Group 15850">
            <path id="Path_43846" data-name="Path 43846" d="M55,26.2c-.09.208-.343.363-.752.461a1.911,1.911,0,0,1-1.1-.033,1.7,1.7,0,0,1-.257-.121,1.633,1.633,0,0,1-.514-.471.762.762,0,0,1-.152-.731,1.018,1.018,0,0,1,.751-.461,1.911,1.911,0,0,1,1.1.033,1.767,1.767,0,0,1,.268.126,1.47,1.47,0,0,1,.5.462A.741.741,0,0,1,55,26.2Zm-.929.2c.253-.057.4-.159.428-.306a.647.647,0,0,0-.158-.514,1.215,1.215,0,0,0-.4-.386c-.032-.018-.065-.035-.1-.051a1.022,1.022,0,0,0-.677-.049c-.253.057-.408.163-.435.31a.623.623,0,0,0,.144.514,1.346,1.346,0,0,0,.412.382c.032.018.064.035.1.05a1.034,1.034,0,0,0,.691.049" fill="#414a61"/>
          </g>
          <g id="Group_15851" data-name="Group 15851">
            <path id="Path_43847" data-name="Path 43847" d="M26.752,30.711A11.665,11.665,0,0,0,32.561,32.2L13.556,36.619a3.466,3.466,0,0,1-2.393-.285,1.527,1.527,0,0,1-.492-.429L5.627,28.673c-.455-.661.091-1.4,1.224-1.669l19.007-4.415c-2.406,1.294-3.14,3.69-1.567,5.95a7.609,7.609,0,0,0,2.462,2.173Zm-8.855,2.5c2.618-.6,3.876-2.326,2.818-3.841a3.5,3.5,0,0,0-1.133-.99,7.987,7.987,0,0,0-5.506-.654c-2.611.608-3.876,2.326-2.818,3.841a3.461,3.461,0,0,0,1.132.994,7.994,7.994,0,0,0,5.507.651" fill="#96d696"/>
          </g>
          <g id="Group_15852" data-name="Group 15852">
            <path id="Path_43848" data-name="Path 43848" d="M61.25,28l-.02,7.22L10.911,46.912l.02-7.22Z" fill="#47a047"/>
          </g>
          <g id="Group_15853" data-name="Group 15853">
            <path id="Path_43849" data-name="Path 43849" d="M61.236,32.852l-50.319,11.6v.518l50.319-11.6Z" fill="#5faf5f"/>
            <path id="Path_43850" data-name="Path 43850" d="M61.239,31.939,10.92,43.539v.519l50.319-11.6Z" fill="#5faf5f"/>
            <path id="Path_43851" data-name="Path 43851" d="M61.249,28.287,10.93,39.887v.518l50.319-11.6Z" fill="#5faf5f"/>
            <path id="Path_43852" data-name="Path 43852" d="M61.244,30.113l-50.319,11.6v.519l50.319-11.6Z" fill="#5faf5f"/>
            <path id="Path_43853" data-name="Path 43853" d="M61.241,31.026l-50.319,11.6v.519l50.319-11.6Z" fill="#5faf5f"/>
            <path id="Path_43854" data-name="Path 43854" d="M61.231,34.677l-50.319,11.6,0,.518L61.23,35.2Z" fill="#5faf5f"/>
            <path id="Path_43855" data-name="Path 43855" d="M61.247,29.2,10.928,40.8v.519l50.319-11.6Z" fill="#5faf5f"/>
            <path id="Path_43856" data-name="Path 43856" d="M61.234,33.765l-50.319,11.6v.518l50.319-11.6Z" fill="#5faf5f"/>
          </g>
          <path id="Path_43857" data-name="Path 43857" d="M29.649,35.342l-.02,7.22,7.219-1.677.02-7.22Z" fill="#ed5d71"/>
          <path id="Path_43858" data-name="Path 43858" d="M30.566,35.129l-.02,7.22,7.219-1.677.02-7.22Z" fill="#e3e7f0"/>
          <g id="Group_15854" data-name="Group 15854">
            <path id="Path_43859" data-name="Path 43859" d="M10.931,39.692l-.02,7.22L1.25,33.061l.02-7.22Z" fill="#5faf5f"/>
          </g>
        </g>
        <g id="Group_15884" data-name="Group 15884">
          <g id="Group_15882" data-name="Group 15882">
            <g id="Group_15863" data-name="Group 15863">
              <g id="Group_15862" data-name="Group 15862">
                <g id="Group_15856" data-name="Group 15856">
                  <path id="Path_43860" data-name="Path 43860" d="M56.52,26.321,56.5,33.937,39.478,43.828l.022-7.616Z" fill="#47a047"/>
                </g>
                <g id="Group_15857" data-name="Group 15857">
                  <path id="Path_43861" data-name="Path 43861" d="M39.5,36.213l-.022,7.616L3.377,22.986,3.4,15.37Z" fill="#47a047"/>
                </g>
                <g id="Group_15858" data-name="Group 15858">
                  <path id="Path_43862" data-name="Path 43862" d="M3.387,19.46l36.1,20.832V39.9L3.388,19.071Z" fill="#77cb77"/>
                  <path id="Path_43863" data-name="Path 43863" d="M3.389,18.559l36.1,20.832V39L3.39,18.169Z" fill="#77cb77"/>
                  <path id="Path_43864" data-name="Path 43864" d="M39.5,36.213,3.4,15.37v.484L39.5,36.686Z" fill="#77cb77"/>
                  <path id="Path_43865" data-name="Path 43865" d="M3.377,22.986l36.1,20.842v-.319L3.378,22.677Z" fill="#77cb77"/>
                  <path id="Path_43866" data-name="Path 43866" d="M3.382,21.263,39.482,42.1v-.389L3.383,20.874Z" fill="#77cb77"/>
                  <path id="Path_43867" data-name="Path 43867" d="M3.379,22.164,39.48,43v-.39L3.38,21.775Z" fill="#77cb77"/>
                  <path id="Path_43868" data-name="Path 43868" d="M3.384,20.361l36.1,20.833V40.8L3.385,19.972Z" fill="#77cb77"/>
                  <path id="Path_43869" data-name="Path 43869" d="M39.5,37.2,3.4,16.366v.39L39.5,37.587Z" fill="#77cb77"/>
                  <path id="Path_43870" data-name="Path 43870" d="M3.393,17.268v.389l36.1,20.832V38.1Z" fill="#77cb77"/>
                </g>
                <g id="Group_15859" data-name="Group 15859">
                  <path id="Path_43871" data-name="Path 43871" d="M25.692,28.241l-.022,7.616-6.416-3.7.022-7.616Z" fill="#d3dbea"/>
                </g>
                <g id="Group_15860" data-name="Group 15860">
                  <path id="Path_43872" data-name="Path 43872" d="M18.6,24.144l-.022,7.616.68.393.022-7.616Z" fill="#e34454"/>
                  <path id="Path_43873" data-name="Path 43873" d="M25.694,28.242l-.022,7.616.68.393.022-7.616Z" fill="#e34454"/>
                </g>
                <g id="Group_15861" data-name="Group 15861">
                  <path id="Path_43874" data-name="Path 43874" d="M56.52,26.321,39.5,36.213,3.4,15.37,20.42,5.478Z" fill="#47a047"/>
                </g>
              </g>
            </g>
            <g id="Group_15878" data-name="Group 15878">
              <g id="Group_15868" data-name="Group 15868">
                <g id="Group_15864" data-name="Group 15864">
                  <path id="Path_43875" data-name="Path 43875" d="M38.657,29.785c.186.107.246.226.174.36a1.043,1.043,0,0,1-.454.409,2.024,2.024,0,0,1-.712.268.893.893,0,0,1-.615-.1q-.268-.155-.18-.356a1.067,1.067,0,0,1,.453-.417,2.03,2.03,0,0,1,.712-.26A.913.913,0,0,1,38.657,29.785Z" fill="#96d696"/>
                </g>
                <g id="Group_15865" data-name="Group 15865">
                  <path id="Path_43876" data-name="Path 43876" d="M39.326,30.164a1.155,1.155,0,0,1-.585.6,2.5,2.5,0,0,1-1.035.341,1.585,1.585,0,0,1-.972-.2c-.292-.168-.412-.36-.353-.562s.249-.4.591-.6A2.527,2.527,0,0,1,38,29.4a1.582,1.582,0,0,1,.966.207C39.264,29.778,39.385,29.961,39.326,30.164Zm-1.661.658a2.024,2.024,0,0,0,.712-.268,1.043,1.043,0,0,0,.454-.409c.072-.134.012-.253-.174-.36a.913.913,0,0,0-.622-.1,2.03,2.03,0,0,0-.712.26,1.067,1.067,0,0,0-.453.417q-.088.2.18.356a.893.893,0,0,0,.615.1" fill="#4c5671"/>
                </g>
                <g id="Group_15866" data-name="Group 15866">
                  <path id="Path_43877" data-name="Path 43877" d="M40.791,31.017c.407.235.124.534-.28.769a1.354,1.354,0,0,1-1.327.165c-.4-.233-.133-.537.273-.773a2.03,2.03,0,0,1,.712-.26.913.913,0,0,1,.622.1Z" fill="#96d696"/>
                </g>
                <g id="Group_15867" data-name="Group 15867">
                  <path id="Path_43878" data-name="Path 43878" d="M40.875,32a2.02,2.02,0,0,1-2.007.138c-.626-.362-.387-.8.238-1.159a2.527,2.527,0,0,1,1.029-.344,1.582,1.582,0,0,1,.966.207c.624.36.4.8-.225,1.159Zm-1.076.057a2.024,2.024,0,0,0,.712-.268c.4-.235.687-.534.28-.769a.913.913,0,0,0-.622-.1,2.03,2.03,0,0,0-.712.26c-.406.236-.677.54-.273.773a.893.893,0,0,0,.615.1" fill="#4c5671"/>
                </g>
              </g>
              <g id="Group_15869" data-name="Group 15869">
                <path id="Path_43879" data-name="Path 43879" d="M49.325,26.089a.534.534,0,0,1,.006,1.01,1.919,1.919,0,0,1-1.744,0,.534.534,0,0,1-.006-1.01,1.92,1.92,0,0,1,1.744,0Z" fill="#47a047"/>
              </g>
              <g id="Group_15870" data-name="Group 15870">
                <path id="Path_43880" data-name="Path 43880" d="M44.188,23.123a.532.532,0,0,1,0,1.006,1.917,1.917,0,0,1-1.737,0,.534.534,0,0,1-.006-1.01A1.92,1.92,0,0,1,44.188,23.123Z" fill="#5faf5f"/>
              </g>
              <g id="Group_15871" data-name="Group 15871">
                <path id="Path_43881" data-name="Path 43881" d="M46.753,24.6a.534.534,0,0,1,.006,1.01,1.919,1.919,0,0,1-1.744,0,.532.532,0,0,1,0-1.006A1.918,1.918,0,0,1,46.753,24.6Z" fill="#47a047"/>
              </g>
              <g id="Group_15872" data-name="Group 15872">
                <path id="Path_43882" data-name="Path 43882" d="M37.548,28.848,35.395,30.1l-.351-.2,1.831-1.064-.437-.253.323-.187Z" fill="#4c5671"/>
              </g>
              <g id="Group_15877" data-name="Group 15877">
                <g id="Group_15873" data-name="Group 15873">
                  <path id="Path_43883" data-name="Path 43883" d="M34.372,16.464a13.5,13.5,0,0,0-9.417,1.405c-2.778,1.615-3.65,3.831-2.4,5.459L8.934,15.463a.9.9,0,0,1-.01-1.7L17.814,8.6a3.235,3.235,0,0,1,2.933,0Zm-18.754-.079a7.449,7.449,0,0,0,6.765,0c1.863-1.083,1.853-2.835-.022-3.918a7.449,7.449,0,0,0-6.765,0c-1.864,1.083-1.854,2.836.022,3.919" fill="#96d696"/>
                </g>
                <g id="Group_15874" data-name="Group 15874">
                  <path id="Path_43884" data-name="Path 43884" d="M22.361,12.467c1.876,1.083,1.885,2.835.022,3.918a7.449,7.449,0,0,1-6.765,0c-1.876-1.083-1.885-2.835-.022-3.919a7.449,7.449,0,0,1,6.765,0Z" fill="#47a047"/>
                </g>
                <g id="Group_15875" data-name="Group 15875">
                  <path id="Path_43885" data-name="Path 43885" d="M36.128,17.158a4.062,4.062,0,0,1,1.206,1.017c1.256,1.631.382,3.85-2.392,5.461a13.475,13.475,0,0,1-9.42,1.4,7,7,0,0,1-1.761-.7,4.055,4.055,0,0,1-1.2-1.016c-1.253-1.628-.381-3.844,2.4-5.459a13.5,13.5,0,0,1,9.417-1.405,6.966,6.966,0,0,1,1.756.694Z" fill="#47a047"/>
                </g>
                <g id="Group_15876" data-name="Group 15876">
                  <path id="Path_43886" data-name="Path 43886" d="M50.956,26.039c.815.471.826,1.232.016,1.7l-8.889,5.166a3.237,3.237,0,0,1-2.94,0L25.523,25.04a13.475,13.475,0,0,0,9.42-1.4c2.773-1.612,3.647-3.831,2.392-5.461Zm-11.116,6.3A2.5,2.5,0,0,0,40.876,32c.621-.361.849-.8.225-1.159a1.582,1.582,0,0,0-.966-.207,2.527,2.527,0,0,0-1.029.344c-.625.363-.864.8-.238,1.159a1.585,1.585,0,0,0,.972.2m-2.134-1.232a2.5,2.5,0,0,0,1.035-.341,1.155,1.155,0,0,0,.585-.6c.059-.2-.062-.387-.36-.559A1.582,1.582,0,0,0,38,29.4a2.527,2.527,0,0,0-1.029.344q-.513.3-.591.6c-.058.2.062.394.353.562a1.585,1.585,0,0,0,.972.2m9.88-4.006a1.919,1.919,0,0,0,1.744,0,.534.534,0,0,0-.006-1.01,1.92,1.92,0,0,0-1.744,0,.534.534,0,0,0,.006,1.01M42.45,24.134a1.917,1.917,0,0,0,1.737,0,.532.532,0,0,0,0-1.006,1.92,1.92,0,0,0-1.744,0,.534.534,0,0,0,.006,1.01m2.566.474a.532.532,0,0,0,0,1.006,1.919,1.919,0,0,0,1.744,0,.534.534,0,0,0-.006-1.01,1.918,1.918,0,0,0-1.737,0M35.395,30.1l2.153-1.251-.789-.455-.323.187.437.253L35.044,29.9Z" fill="#96d696"/>
                </g>
              </g>
            </g>
            <g id="Group_15881" data-name="Group 15881">
              <g id="Group_15879" data-name="Group 15879">
                <path id="Path_43887" data-name="Path 43887" d="M42.714,18.35,25.692,28.241l-6.416-3.7,17.016-9.895Z" fill="#e3e7f0"/>
              </g>
              <g id="Group_15880" data-name="Group 15880">
                <path id="Path_43888" data-name="Path 43888" d="M35.617,14.253,18.6,24.144l.68.393,17.016-9.895Z" fill="#ed5d71"/>
                <path id="Path_43889" data-name="Path 43889" d="M43.384,18.737l-.67-.387L25.692,28.242l.682.393Z" fill="#ed5d71"/>
              </g>
            </g>
          </g>
          <g id="Group_15883" data-name="Group 15883">
            <path id="Path_43890" data-name="Path 43890" d="M56.532,30.412,39.511,40.293V39.9l17.021-9.881Z" fill="#5faf5f"/>
            <path id="Path_43891" data-name="Path 43891" d="M56.529,29.51,39.508,39.391V39L56.528,29.12Z" fill="#5faf5f"/>
            <path id="Path_43892" data-name="Path 43892" d="M39.5,36.213,56.52,26.321v.484L39.5,36.686Z" fill="#5faf5f"/>
            <path id="Path_43893" data-name="Path 43893" d="M56.542,33.937,39.521,43.828v-.319l17.021-9.881Z" fill="#5faf5f"/>
            <path id="Path_43894" data-name="Path 43894" d="M56.537,32.215,39.516,42.1v-.389l17.021-9.881Z" fill="#5faf5f"/>
            <path id="Path_43895" data-name="Path 43895" d="M56.54,33.116,39.518,43v-.39l17.021-9.881Z" fill="#5faf5f"/>
            <path id="Path_43896" data-name="Path 43896" d="M56.534,31.313,39.513,41.194V40.8l17.021-9.881Z" fill="#5faf5f"/>
            <path id="Path_43897" data-name="Path 43897" d="M39.5,37.2l17.021-9.881v.39L39.5,37.587Z" fill="#5faf5f"/>
            <path id="Path_43898" data-name="Path 43898" d="M56.526,28.219v.389L39.506,38.489V38.1Z" fill="#5faf5f"/>
          </g>
        </g>
        <g id="Group_15885" data-name="Group 15885">
          <path id="Path_43899" data-name="Path 43899" d="M10.915,45.247,1.255,31.417l0,.541,9.661,13.829Z" fill="#47a047"/>
          <path id="Path_43900" data-name="Path 43900" d="M10.929,40.487l-9.66-13.83,0,.541,9.66,13.829Z" fill="#47a047"/>
          <path id="Path_43901" data-name="Path 43901" d="M10.918,44.295,1.257,30.466l0,.541,9.661,13.829Z" fill="#47a047"/>
          <path id="Path_43902" data-name="Path 43902" d="M10.931,39.692,1.27,25.84v.406L10.93,40.076Z" fill="#47a047"/>
          <path id="Path_43903" data-name="Path 43903" d="M10.921,43.343,1.26,29.514l0,.541,9.66,13.829Z" fill="#47a047"/>
          <path id="Path_43904" data-name="Path 43904" d="M10.923,42.391,1.263,28.562l0,.541,9.661,13.829Z" fill="#47a047"/>
          <path id="Path_43905" data-name="Path 43905" d="M10.926,41.439,1.265,27.609l0,.541L10.924,41.98Z" fill="#47a047"/>
          <path id="Path_43906" data-name="Path 43906" d="M10.912,46.2,1.252,32.37l0,.54,9.66,13.829Z" fill="#47a047"/>
        </g>
      </g>
      <g id="Group_15900" data-name="Group 15900">
        <g id="Group_15892" data-name="Group 15892">
          <g id="Group_15891" data-name="Group 15891">
            <g id="Group_15887" data-name="Group 15887">
              <path id="Path_43907" data-name="Path 43907" d="M37.694,49.8l0,1.264A2.984,2.984,0,0,0,35.928,48.6,8.629,8.629,0,0,0,31.7,47.593,8.535,8.535,0,0,0,27.478,48.6a2.965,2.965,0,0,0-1.735,2.432l0-1.268a2.96,2.96,0,0,1,1.735-2.432A8.567,8.567,0,0,1,31.7,46.321a8.673,8.673,0,0,1,4.229,1.016A2.983,2.983,0,0,1,37.694,49.8Z" fill="#efa143"/>
            </g>
            <g id="Group_15888" data-name="Group 15888">
              <path id="Path_43908" data-name="Path 43908" d="M35.932,47.892c2.34,1.351,2.352,3.542.028,4.893a9.312,9.312,0,0,1-8.45,0c-2.342-1.352-2.355-3.544-.027-4.9a9.312,9.312,0,0,1,8.45,0Z" fill="#ffdd94"/>
            </g>
            <g id="Group_15889" data-name="Group 15889">
              <path id="Path_43909" data-name="Path 43909" d="M38.886,49.84l0,.988A3.557,3.557,0,0,1,36.8,53.742a11.165,11.165,0,0,1-10.133,0,3.589,3.589,0,0,1-2.118-2.957l0-.988a3.589,3.589,0,0,0,2.118,2.957,11.165,11.165,0,0,0,10.133,0,3.557,3.557,0,0,0,2.081-2.914Z" fill="#efa143"/>
            </g>
            <g id="Group_15890" data-name="Group 15890">
              <path id="Path_43910" data-name="Path 43910" d="M36.772,46.885c2.806,1.62,2.821,4.249.033,5.869a11.165,11.165,0,0,1-10.133,0c-2.809-1.622-2.826-4.249-.036-5.871A11.17,11.17,0,0,1,36.772,46.885ZM27.51,52.232a9.312,9.312,0,0,0,8.45,0c2.325-1.351,2.312-3.542-.028-4.893a9.312,9.312,0,0,0-8.45,0c-2.327,1.352-2.315,3.544.027,4.9Z" fill="#febb61"/>
            </g>
          </g>
        </g>
        <g id="Group_15899" data-name="Group 15899">
          <g id="Group_15893" data-name="Group 15893">
            <path id="Path_43911" data-name="Path 43911" d="M30.992,51.71l2.088-1.216v.471l-2.088,1.216-.482-.287-.034-1.021a2.167,2.167,0,0,0-.057-.471.369.369,0,0,0-.195-.241.667.667,0,0,0-.344-.08.74.74,0,0,0-.356.08.413.413,0,0,0-.126.115V50.7l-.837.126a.8.8,0,0,1-.069-.344v-.471a.92.92,0,0,0,.069.344l.78-.1V50a.361.361,0,0,1,.184-.309.734.734,0,0,1,.356-.081.661.661,0,0,1,.344.081.484.484,0,0,1,.206.252,3.174,3.174,0,0,1,.046.459l.034,1.021Z" fill="#efa143"/>
            <path id="Path_43912" data-name="Path 43912" d="M32.071,48.808v-.47c0-.092.069-.184.206-.264a.979.979,0,0,1,.711-.092,2.608,2.608,0,0,1,.86.333,1.416,1.416,0,0,1,.574.493.28.28,0,0,1,.046.15v.47a.252.252,0,0,0-.046-.149,1.416,1.416,0,0,0-.574-.493,2.6,2.6,0,0,0-.86-.333.976.976,0,0,0-.711.092A.308.308,0,0,0,32.071,48.808Z" fill="#efa143"/>
            <path id="Path_43913" data-name="Path 43913" d="M35.329,48.888v.471c0,.229-.172.447-.516.642a2.277,2.277,0,0,1-1.342.3,3.534,3.534,0,0,1-1.423-.471A1.619,1.619,0,0,1,31.233,49a.576.576,0,0,1-.023-.138V48.4a.576.576,0,0,0,.023.138,1.622,1.622,0,0,0,.814.826,3.533,3.533,0,0,0,1.423.47,2.174,2.174,0,0,0,1.342-.3C35.157,49.336,35.329,49.118,35.329,48.888Z" fill="#efa143"/>
          </g>
          <g id="Group_15898" data-name="Group 15898">
            <g id="Group_15895" data-name="Group 15895">
              <g id="Group_15894" data-name="Group 15894">
                <path id="Path_43914" data-name="Path 43914" d="M35.31,48.762q.112.419-.5.774a2.209,2.209,0,0,1-1.335.292,3.493,3.493,0,0,1-1.426-.469,1.574,1.574,0,0,1-.815-.825c-.082-.283.084-.541.492-.778a2.188,2.188,0,0,1,1.341-.287,3.439,3.439,0,0,1,1.426.469A1.6,1.6,0,0,1,35.31,48.762Zm-1.756.554a1.024,1.024,0,0,0,.715-.093c.2-.114.247-.254.158-.414a1.5,1.5,0,0,0-.58-.495,2.639,2.639,0,0,0-.856-.334,1.026,1.026,0,0,0-.715.093c-.2.114-.247.254-.158.414a1.472,1.472,0,0,0,.579.495,2.664,2.664,0,0,0,.856.334" fill="#febb61"/>
              </g>
            </g>
            <g id="Group_15897" data-name="Group 15897">
              <g id="Group_15896" data-name="Group 15896">
                <path id="Path_43915" data-name="Path 43915" d="M33.085,50.5,31,51.71l-.491-.283-.027-1.019a2.247,2.247,0,0,0-.054-.469.4.4,0,0,0-.2-.241.662.662,0,0,0-.344-.089.711.711,0,0,0-.357.089c-.182.106-.232.288-.129.541l-.839.123a.8.8,0,0,1-.04-.546.979.979,0,0,1,.465-.465,2,2,0,0,1,.926-.249,1.712,1.712,0,0,1,.957.216.74.74,0,0,1,.316.326,1.328,1.328,0,0,1,.112.563l.026.63,1.171-.681Z" fill="#febb61"/>
              </g>
            </g>
          </g>
        </g>
      </g>
      <g id="Group_15914" data-name="Group 15914">
        <g id="Group_15906" data-name="Group 15906">
          <g id="Group_15905" data-name="Group 15905">
            <g id="Group_15901" data-name="Group 15901">
              <path id="Path_43916" data-name="Path 43916" d="M27.4,51.863l0,1.264a2.984,2.984,0,0,0-1.762-2.459,8.629,8.629,0,0,0-4.229-1.011,8.535,8.535,0,0,0-4.221,1.011A2.965,2.965,0,0,0,15.451,53.1l0-1.268A2.96,2.96,0,0,1,17.19,49.4a8.567,8.567,0,0,1,4.221-1.016A8.673,8.673,0,0,1,25.64,49.4,2.983,2.983,0,0,1,27.4,51.863Z" fill="#efa143"/>
            </g>
            <g id="Group_15902" data-name="Group 15902">
              <path id="Path_43917" data-name="Path 43917" d="M25.641,49.956c2.34,1.351,2.352,3.542.028,4.893a9.312,9.312,0,0,1-8.45,0c-2.342-1.352-2.355-3.544-.027-4.9a9.312,9.312,0,0,1,8.45,0Z" fill="#ffdd94"/>
            </g>
            <g id="Group_15903" data-name="Group 15903">
              <path id="Path_43918" data-name="Path 43918" d="M28.6,51.9l0,.988a3.557,3.557,0,0,1-2.081,2.914,11.165,11.165,0,0,1-10.133,0,3.589,3.589,0,0,1-2.118-2.957l0-.988a3.589,3.589,0,0,0,2.118,2.957,11.165,11.165,0,0,0,10.133,0A3.557,3.557,0,0,0,28.6,51.9Z" fill="#efa143"/>
            </g>
            <g id="Group_15904" data-name="Group 15904">
              <path id="Path_43919" data-name="Path 43919" d="M26.481,48.949c2.806,1.62,2.821,4.249.033,5.869a11.165,11.165,0,0,1-10.133,0c-2.809-1.622-2.826-4.249-.036-5.871a11.17,11.17,0,0,1,10.135,0ZM17.218,54.3a9.312,9.312,0,0,0,8.45,0c2.325-1.351,2.312-3.542-.028-4.893a9.312,9.312,0,0,0-8.45,0c-2.327,1.352-2.315,3.544.027,4.9Z" fill="#febb61"/>
            </g>
          </g>
        </g>
        <g id="Group_15913" data-name="Group 15913">
          <g id="Group_15907" data-name="Group 15907">
            <path id="Path_43920" data-name="Path 43920" d="M21.523,53.48l.642-.367v.459l-.642.378-2.409-1.4-.562.333-.562-.333v-.459l.562.321.562-.321Z" fill="#efa143"/>
            <path id="Path_43921" data-name="Path 43921" d="M24.035,52.528a2.253,2.253,0,0,1-1.342.3,3.583,3.583,0,0,1-1.422-.471c-.47-.275-.746-.55-.815-.826a.576.576,0,0,1-.023-.138v-.459a.593.593,0,0,0,.023.126c.069.276.344.551.815.826a3.582,3.582,0,0,0,1.422.47,2.332,2.332,0,0,0,1.342-.287c.356-.206.516-.424.516-.654v.471C24.551,52.115,24.391,52.333,24.035,52.528Z" fill="#efa143"/>
            <path id="Path_43922" data-name="Path 43922" d="M21.293,51.335v-.459c0-.1.08-.2.206-.276a1,1,0,0,1,.711-.092,2.731,2.731,0,0,1,.86.322,1.564,1.564,0,0,1,.585.5.277.277,0,0,1,.046.149v.459a.325.325,0,0,0-.046-.137,1.565,1.565,0,0,0-.585-.505,2.783,2.783,0,0,0-.86-.333,1.048,1.048,0,0,0-.711.1C21.362,51.151,21.293,51.243,21.293,51.335Z" fill="#efa143"/>
          </g>
          <g id="Group_15912" data-name="Group 15912">
            <g id="Group_15909" data-name="Group 15909">
              <g id="Group_15908" data-name="Group 15908">
                <path id="Path_43923" data-name="Path 43923" d="M24.538,51.283c.074.279-.085.541-.5.782a2.229,2.229,0,0,1-1.342.288,3.438,3.438,0,0,1-1.426-.469,1.574,1.574,0,0,1-.815-.825q-.112-.419.5-.774a2.217,2.217,0,0,1,1.342-.3,3.438,3.438,0,0,1,1.426.469,1.574,1.574,0,0,1,.815.825Zm-1.756.562a1,1,0,0,0,.708-.1c.2-.118.261-.254.166-.41a1.508,1.508,0,0,0-.58-.5,2.727,2.727,0,0,0-.863-.33.973.973,0,0,0-.708.1c-.2.114-.254.25-.166.41a1.62,1.62,0,0,0,.58.495,2.9,2.9,0,0,0,.863.338" fill="#febb61"/>
              </g>
            </g>
            <g id="Group_15911" data-name="Group 15911">
              <g id="Group_15910" data-name="Group 15910">
                <path id="Path_43924" data-name="Path 43924" d="M22.168,53.11l-.64.372-2.417-1.4-.56.326-.564-.326,1.2-.7Z" fill="#febb61"/>
              </g>
            </g>
          </g>
        </g>
      </g>
    </g>
  </g>
</svg>
