<svg xmlns="http://www.w3.org/2000/svg" xmlns:xlink="http://www.w3.org/1999/xlink" width="24" height="24" viewBox="0 0 24 24">
  <defs>
    <clipPath id="clip-path">
      <rect id="Rectangle_5247" data-name="Rectangle 5247" width="24" height="24" transform="translate(36 859)" fill="#a8a8a8" stroke="#707070" stroke-width="1"/>
    </clipPath>
  </defs>
  <g id="Mask_Group_14756" data-name="Mask Group 14756" transform="translate(-36 -859)" clip-path="url(#clip-path)">
    <g id="customer" transform="translate(36 859)">
      <g id="Group_15367" data-name="Group 15367">
        <g id="Group_15366" data-name="Group 15366">
          <path id="Path_43643" data-name="Path 43643" d="M23.249,11.84a2.108,2.108,0,0,0-2.9.175l-2.067,2.218a2.113,2.113,0,0,0-2.015-1.484H12.577c-.28,0-.374-.107-.86-.481a4.932,4.932,0,0,0-6.485.015L3.877,13.477a2.1,2.1,0,0,0-1.933-.024L.389,14.23a.7.7,0,0,0-.315.944l4.219,8.437a.7.7,0,0,0,.944.315l1.555-.778a2.108,2.108,0,0,0,1.165-1.961h8.309A4.945,4.945,0,0,0,20.2,19.218l3.375-4.5A2.1,2.1,0,0,0,23.249,11.84ZM6.162,21.89l-.926.463-3.59-7.179.926-.463a.7.7,0,0,1,.943.315l2.961,5.922A.7.7,0,0,1,6.162,21.89Zm16.29-8.016-3.375,4.5a3.532,3.532,0,0,1-2.812,1.406h-8.8l-2.635-5.27L6.162,13.34a3.524,3.524,0,0,1,4.645,0,2.489,2.489,0,0,0,1.77.817h3.688a.7.7,0,0,1,0,1.406H12.674a.7.7,0,0,0,0,1.406h4.062a2.115,2.115,0,0,0,1.544-.672l3.1-3.323a.7.7,0,0,1,1.078.9Z" fill="#a8a8a8"/>
        </g>
      </g>
      <g id="Group_15369" data-name="Group 15369">
        <g id="Group_15368" data-name="Group 15368">
          <path id="Path_43644" data-name="Path 43644" d="M14.784,4.8a2.8,2.8,0,0,0,.778-1.939A2.851,2.851,0,0,0,12.749,0,2.9,2.9,0,0,0,9.89,2.86a2.76,2.76,0,0,0,.8,1.944,4.289,4.289,0,0,0-2.21,3.727v.7a.7.7,0,0,0,.7.7h7.078a.7.7,0,0,0,.7-.7v-.7A4.286,4.286,0,0,0,14.784,4.8ZM12.749,1.407A1.45,1.45,0,0,1,14.156,2.86a1.408,1.408,0,0,1-1.406,1.406A1.45,1.45,0,0,1,11.3,2.86,1.491,1.491,0,0,1,12.749,1.407ZM9.89,8.531a2.9,2.9,0,0,1,2.859-2.859,2.839,2.839,0,0,1,2.812,2.859Z" fill="#a8a8a8"/>
        </g>
      </g>
    </g>
  </g>
</svg>
