<svg xmlns="http://www.w3.org/2000/svg" xmlns:xlink="http://www.w3.org/1999/xlink" width="24" height="24" viewBox="0 0 24 24">
  <defs>
    <clipPath id="clip-path">
      <rect id="Rectangle_2348" data-name="Rectangle 2348" width="24" height="24" transform="translate(16 229)" fill="#359757" stroke="#707070" stroke-width="1"/>
    </clipPath>
  </defs>
  <g id="Group_1" data-name="Group 1" transform="translate(-16 -229)" clip-path="url(#clip-path)">
    <g id="dashboard_1_" data-name="dashboard (1)" transform="translate(16 229)">
      <path id="Path_74" data-name="Path 74" d="M9.25,8H1.75A1.752,1.752,0,0,1,0,6.25V1.75A1.752,1.752,0,0,1,1.75,0h7.5A1.752,1.752,0,0,1,11,1.75v4.5A1.752,1.752,0,0,1,9.25,8ZM1.75,1.5a.25.25,0,0,0-.25.25v4.5a.25.25,0,0,0,.25.25h7.5a.25.25,0,0,0,.25-.25V1.75a.25.25,0,0,0-.25-.25Zm0,0" transform="translate(0 0)" fill="#359757"/>
      <path id="Path_75" data-name="Path 75" d="M9.25,22.333H1.75A1.752,1.752,0,0,1,0,20.583v-10.5a1.752,1.752,0,0,1,1.75-1.75h7.5A1.752,1.752,0,0,1,11,10.083v10.5A1.752,1.752,0,0,1,9.25,22.333Zm-7.5-12.5a.25.25,0,0,0-.25.25v10.5a.25.25,0,0,0,.25.25h7.5a.25.25,0,0,0,.25-.25v-10.5a.25.25,0,0,0-.25-.25Zm0,0" transform="translate(0 1.667)" fill="#359757"/>
      <path id="Path_76" data-name="Path 76" d="M20.083,21.333h-7.5a1.752,1.752,0,0,1-1.75-1.75v-4.5a1.752,1.752,0,0,1,1.75-1.75h7.5a1.752,1.752,0,0,1,1.75,1.75v4.5A1.752,1.752,0,0,1,20.083,21.333Zm-7.5-6.5a.25.25,0,0,0-.25.25v4.5a.25.25,0,0,0,.25.25h7.5a.25.25,0,0,0,.25-.25v-4.5a.25.25,0,0,0-.25-.25Zm0,0" transform="translate(2.167 2.667)" fill="#359757"/>
      <path id="Path_77" data-name="Path 77" d="M20.083,14h-7.5a1.752,1.752,0,0,1-1.75-1.75V1.75A1.752,1.752,0,0,1,12.583,0h7.5a1.752,1.752,0,0,1,1.75,1.75v10.5A1.752,1.752,0,0,1,20.083,14Zm-7.5-12.5a.25.25,0,0,0-.25.25v10.5a.25.25,0,0,0,.25.25h7.5a.25.25,0,0,0,.25-.25V1.75a.25.25,0,0,0-.25-.25Zm0,0" transform="translate(2.167 0)" fill="#359757"/>
    </g>
  </g>
</svg>
