<svg xmlns="http://www.w3.org/2000/svg" xmlns:xlink="http://www.w3.org/1999/xlink" width="20" height="20" viewBox="0 0 20 20">
  <defs>
    <clipPath id="clip-path">
      <rect id="Rectangle_19349" data-name="Rectangle 19349" width="20" height="20" transform="translate(63 365)" fill="#404040" stroke="#707070" stroke-width="1"/>
    </clipPath>
  </defs>
  <g id="Mask_Group_15795" data-name="Mask Group 15795" transform="translate(-63 -365)" clip-path="url(#clip-path)">
    <g id="scooter_1_" data-name="scooter (1)" transform="translate(63 365)">
      <path id="Path_46516" data-name="Path 46516" d="M19.4,13.757a.585.585,0,0,0,.553-.584,3.012,3.012,0,0,0-3.081-3.007h-.571l-.7-3.313a1.9,1.9,0,0,0-.753-3.647h-2.7a.586.586,0,0,0-.585.586v.73H10.131a.586.586,0,0,0,0,1.172h1.439v.73a.586.586,0,0,0,.585.586h.26a3.275,3.275,0,0,0-.778,2.121v3.334a.031.031,0,0,1-.031.031H9.242a.031.031,0,0,1-.03-.022l-.637-2.156a1.207,1.207,0,0,0,.893-1.164,2.4,2.4,0,0,0-2.4-2.4H1.8a1.8,1.8,0,0,0-.251,3.585A4.523,4.523,0,0,0,.037,13.717v1.824a.586.586,0,0,0,.585.586h.506a2.971,2.971,0,0,0,5.827,0h7.159a2.972,2.972,0,1,0,5.29-2.37Zm-.713-1.17H17.374a2.938,2.938,0,0,0-.958.043V11.338h.46A1.882,1.882,0,0,1,18.692,12.587ZM12.74,4.378h2.115a.73.73,0,0,1,0,1.459H12.74Zm-3.5,9.29h2.364a1.2,1.2,0,0,0,1.2-1.2V9.131a2.119,2.119,0,0,1,1.649-2.064l.789,3.746v2.349a2.981,2.981,0,0,0-1.131,1.793H8.3A4.177,4.177,0,0,0,4.12,11.28a4.013,4.013,0,0,0-2.518.858,3.357,3.357,0,0,1,2.96-1.78h2.8l.724,2.448a1.208,1.208,0,0,0,1.152.862ZM1.255,14.955a3.09,3.09,0,0,1,.776-1.621,2.821,2.821,0,0,1,2.089-.882,3.016,3.016,0,0,1,2.991,2.5H1.255ZM1.8,9.186a.63.63,0,0,1,0-1.26H7.072A1.227,1.227,0,0,1,8.3,9.153c-.005.024-.044.04-.115.033H1.8Zm2.243,8.158a1.8,1.8,0,0,1-1.7-1.218H5.745A1.8,1.8,0,0,1,4.042,17.345Zm12.986,0a1.8,1.8,0,1,1,1.8-1.8A1.8,1.8,0,0,1,17.028,17.345Z" fill="#404040"/>
      <ellipse id="Ellipse_644" data-name="Ellipse 644" cx="0.589" cy="0.59" rx="0.589" ry="0.59" transform="translate(16.439 14.951)" fill="#404040"/>
      <path id="Path_46517" data-name="Path 46517" d="M.61,5.056H5.859a.586.586,0,0,0,0-1.172H.61a.586.586,0,0,0,0,1.172Z" fill="#404040"/>
      <path id="Path_46518" data-name="Path 46518" d="M2.554,2.655H7.848a.586.586,0,0,0,0-1.172H2.554a.586.586,0,0,0,0,1.172Z" fill="#404040"/>
    </g>
  </g>
</svg>
