<svg xmlns="http://www.w3.org/2000/svg" xmlns:xlink="http://www.w3.org/1999/xlink" width="20" height="20" viewBox="0 0 20 20">
  <defs>
    <clipPath id="clip-path">
      <rect id="Rectangle_3876" data-name="Rectangle 3876" width="20" height="20" transform="translate(80 496)" fill="#a8a8a8" stroke="#707070" stroke-width="1"/>
    </clipPath>
  </defs>
  <g id="Mask_Group_14751" data-name="Mask Group 14751" transform="translate(-80 -496)" clip-path="url(#clip-path)">
    <g id="email" transform="translate(80 496)">
      <g id="Group_15288" data-name="Group 15288">
        <path id="Path_43605" data-name="Path 43605" d="M15.833,8.354V4.167A1.668,1.668,0,0,0,14.167,2.5H1.667A1.668,1.668,0,0,0,0,4.167V12.5a1.668,1.668,0,0,0,1.667,1.667h9.344a4.581,4.581,0,0,0,6.7,2.72.417.417,0,0,0-.417-.721,3.751,3.751,0,1,1,1.875-3.249v.417a.833.833,0,0,1-1.667,0V11.667a.415.415,0,0,0-.7-.3,2.083,2.083,0,1,0,.176,2.922A1.664,1.664,0,0,0,20,13.333v-.417A4.588,4.588,0,0,0,15.833,8.354ZM1.667,3.333h12.5c.017,0,.032.009.049.01L8.259,8.232a.7.7,0,0,1-.657.021L1.618,3.343C1.635,3.342,1.649,3.333,1.667,3.333ZM15,8.354a4.588,4.588,0,0,0-4.167,4.562c0,.141.009.279.021.417H1.667A.834.834,0,0,1,.833,12.5V4.167A.825.825,0,0,1,.9,3.835L7.11,8.925A1.466,1.466,0,0,0,8.7,8.943.4.4,0,0,0,8.762,8.9l6.167-5.062A.825.825,0,0,1,15,4.167V8.354Zm.417,5.812a1.25,1.25,0,1,1,1.25-1.25A1.251,1.251,0,0,1,15.417,14.167Z" fill="#a8a8a8"/>
      </g>
    </g>
  </g>
</svg>
