<svg xmlns="http://www.w3.org/2000/svg" xmlns:xlink="http://www.w3.org/1999/xlink" width="160" height="160" viewBox="0 0 160 160">
  <defs>
    <clipPath id="clip-path">
      <rect id="Rectangle_5220" data-name="Rectangle 5220" width="160" height="160" transform="translate(1062 206)" fill="#fff" stroke="#707070" stroke-width="1"/>
    </clipPath>
  </defs>
  <g id="Mask_Group_14757" data-name="Mask Group 14757" transform="translate(-1062 -206)" clip-path="url(#clip-path)">
    <g id="_x33_1" transform="translate(1057.002 201.112)">
      <g id="Group_15495" data-name="Group 15495">
        <g id="Group_15389" data-name="Group 15389">
          <g id="Group_15382" data-name="Group 15382">
            <g id="Group_15379" data-name="Group 15379">
              <g id="Group_15371" data-name="Group 15371">
                <path id="Path_43645" data-name="Path 43645" d="M154.694,87.468c0-.25-.25-.25-.25-.5-2.249-4-7.247-4-11-1.5-5.248,3.5-16.244,8.247-26.241,11.746v26.241l34.987-25.991A7.835,7.835,0,0,0,154.694,87.468Z" fill="#f2a496"/>
              </g>
              <g id="Group_15372" data-name="Group 15372">
                <path id="Path_43646" data-name="Path 43646" d="M164.191,91.217c-2-4-7-4.5-10.746-2.249-5.5,3.249-16.994,7.5-27.24,10.246,0,0,.75-4-1.25-6.748a9.945,9.945,0,0,0-11.5-3.5l-33.738,7.5c-2.5,1-11.5-.25-14.495-1a44.775,44.775,0,0,0-30.239,2.249v47.733c9.5-6.5,34.238-5,49.232-3.5a35.471,35.471,0,0,0,23.492-5.5l53.731-34.737a8.419,8.419,0,0,0,2.749-10.5Z" fill="#fabdab"/>
              </g>
              <g id="Group_15373" data-name="Group 15373">
                <path id="Path_43647" data-name="Path 43647" d="M160.442,87.968a8.1,8.1,0,0,1-3,9.746l-44.984,29.239a37.909,37.909,0,0,1-19.243,6c-55.23,2.249-58.229,12.5-58.229,12.5,9.5-6.5,34.238-5,49.232-3.5a35.47,35.47,0,0,0,23.492-5.5l53.731-34.737c5.248-3.5,4.5-12-1-13.745Z" fill="#f2a496"/>
              </g>
              <g id="Group_15375" data-name="Group 15375">
                <g id="Group_15374" data-name="Group 15374">
                  <path id="Path_43648" data-name="Path 43648" d="M121.956,93.466a6.29,6.29,0,0,0-7-2.249l-5.748,2c-1,5.248,0,9.5,3.5,12.246l7-3.249c3.5-1.25,4.5-5.748,2.249-8.747Z" fill="#f8f9fe"/>
                </g>
              </g>
              <g id="Group_15377" data-name="Group 15377">
                <g id="Group_15376" data-name="Group 15376">
                  <path id="Path_43649" data-name="Path 43649" d="M121.956,93.466a5.811,5.811,0,0,0-6.248-2.249,5.911,5.911,0,0,1,4.5,7.247c-1,4-8,7-7.5,7.247l7-3.249a5.94,5.94,0,0,0,2.249-9Z" fill="#f3f1fc"/>
                </g>
              </g>
              <g id="Group_15378" data-name="Group 15378">
                <path id="Path_43650" data-name="Path 43650" d="M125.954,99.214c-1.749,7-10,8.5-15.744,11.246a299.8,299.8,0,0,1-33.238,10c7.247-2.5,14.745-5,21.992-7.5l11-3.749c5.748-2.249,13.5-3.5,15.994-10Z" fill="#f2a496"/>
              </g>
            </g>
            <g id="Group_15380" data-name="Group 15380">
              <path id="Path_43651" data-name="Path 43651" d="M40.235,86.219H21.742a3.416,3.416,0,0,0-3.5,3.5v56.23a3.416,3.416,0,0,0,3.5,3.5H40.235a3.416,3.416,0,0,0,3.5-3.5V89.718A3.755,3.755,0,0,0,40.235,86.219Z" fill="#e9e7fc"/>
            </g>
            <g id="Group_15381" data-name="Group 15381">
              <path id="Path_43652" data-name="Path 43652" d="M31.489,80.471H8.5A3.416,3.416,0,0,0,5,83.97V151.7a3.367,3.367,0,0,0,3.5,3.249H31.489a3.416,3.416,0,0,0,3.5-3.5V83.97A3.416,3.416,0,0,0,31.489,80.471Z" fill="#4c5c75"/>
            </g>
          </g>
          <g id="Group_15384" data-name="Group 15384">
            <g id="Group_15383" data-name="Group 15383">
              <path id="Path_43653" data-name="Path 43653" d="M8.5,154.944H31.489a3.416,3.416,0,0,0,3.5-3.5V83.97a3.612,3.612,0,0,0-.5-1.749c-2,13-10.5,60.478-29.239,70.724a3.348,3.348,0,0,0,3.249,2Z" fill="#1d2943"/>
            </g>
          </g>
          <g id="Group_15385" data-name="Group 15385">
            <path id="Path_43654" data-name="Path 43654" d="M30.989,151.2a104.5,104.5,0,0,1,0-24.991,107.99,107.99,0,0,1,.75,12.5A104.785,104.785,0,0,1,30.989,151.2Z" fill="#fff"/>
          </g>
          <g id="Group_15386" data-name="Group 15386">
            <circle id="Ellipse_558" data-name="Ellipse 558" cx="6.248" cy="6.248" r="6.248" transform="translate(13.745 87.468)" fill="#e9e7fc"/>
          </g>
          <g id="Group_15388" data-name="Group 15388">
            <g id="Group_15387" data-name="Group 15387">
              <path id="Path_43655" data-name="Path 43655" d="M21.242,87.718a5.852,5.852,0,0,1,2,4.5,6.187,6.187,0,0,1-6.248,6.248h-1a7.084,7.084,0,0,0,4,1.5,6.18,6.18,0,0,0,1.25-12.246Z" fill="#dedffb"/>
            </g>
          </g>
        </g>
        <g id="Group_15494" data-name="Group 15494">
          <g id="Group_15423" data-name="Group 15423">
            <g id="Group_15421" data-name="Group 15421">
              <g id="Group_15410" data-name="Group 15410">
                <g id="Group_15409" data-name="Group 15409">
                  <g id="Group_15408" data-name="Group 15408">
                    <g id="Group_15390" data-name="Group 15390">
                      <path id="Path_43656" data-name="Path 43656" d="M69.975,46.233V28.49a13.655,13.655,0,0,0-13.5-13.5,13.439,13.439,0,0,0-13.5,13.5V46.233Q57.6,49.607,69.975,46.233Z" fill="#1d2943"/>
                    </g>
                    <g id="Group_15407" data-name="Group 15407">
                      <g id="Group_15406" data-name="Group 15406">
                        <g id="Group_15398" data-name="Group 15398">
                          <g id="Group_15391" data-name="Group 15391">
                            <path id="Path_43657" data-name="Path 43657" d="M78.222,63.977c0,10-43.734,10-43.734,0a12.532,12.532,0,0,1,12.5-12.5h1.25a8.247,8.247,0,1,0,16.494,0h.75a12.587,12.587,0,0,1,12.745,12.5Z" fill="#78e75a"/>
                          </g>
                          <g id="Group_15393" data-name="Group 15393">
                            <g id="Group_15392" data-name="Group 15392">
                              <path id="Path_43658" data-name="Path 43658" d="M78.222,63.977a12.372,12.372,0,0,0-6-10.746c-1.749,2.749-9.746,12-35.487,14.245C45.983,73.723,78.222,72.724,78.222,63.977Z" fill="#72d561"/>
                            </g>
                          </g>
                          <g id="Group_15394" data-name="Group 15394">
                            <path id="Path_43659" data-name="Path 43659" d="M64.727,51.481a8.247,8.247,0,1,1-16.494,0Z" fill="#fff"/>
                          </g>
                          <g id="Group_15395" data-name="Group 15395">
                            <path id="Path_43660" data-name="Path 43660" d="M61.978,45.983v5.5a5.5,5.5,0,1,1-11,0v-5.5Z" fill="#fabdab"/>
                          </g>
                          <g id="Group_15396" data-name="Group 15396">
                            <path id="Path_43661" data-name="Path 43661" d="M61.978,47.233v3.249c-9,.5-11-2.749-11-2.749v-.5Z" fill="#ea8b82"/>
                          </g>
                          <g id="Group_15397" data-name="Group 15397">
                            <path id="Path_43662" data-name="Path 43662" d="M66.726,31.239v7.747a10.543,10.543,0,0,1-9.247,10.5,10.125,10.125,0,0,1-11-10v-8c0-6,20.243-6,20.243-.25Z" fill="#fabdab"/>
                          </g>
                        </g>
                        <g id="Group_15399" data-name="Group 15399">
                          <path id="Path_43663" data-name="Path 43663" d="M53.481,42.984c-.25,0-.5.5-.5.75a3.639,3.639,0,0,0,6.5,0c.25-.25,0-.75-.5-.75Z" fill="#fff"/>
                        </g>
                        <g id="Group_15400" data-name="Group 15400">
                          <path id="Path_43664" data-name="Path 43664" d="M57.729,39.736a1.66,1.66,0,0,1-1.25,1,1.143,1.143,0,0,1-1.25-1Z" fill="#ea8b82"/>
                        </g>
                        <g id="Group_15403" data-name="Group 15403">
                          <g id="Group_15401" data-name="Group 15401">
                            <path id="Path_43665" data-name="Path 43665" d="M52.731,35.987a1.339,1.339,0,0,1-1.25,1.25,1.143,1.143,0,0,1-1-1.25,1.075,1.075,0,0,1,1-1A1.143,1.143,0,0,1,52.731,35.987Z" fill="#1d2943"/>
                          </g>
                          <g id="Group_15402" data-name="Group 15402">
                            <path id="Path_43666" data-name="Path 43666" d="M62.227,35.987a1.339,1.339,0,0,1-1.25,1.25,1.143,1.143,0,0,1-1-1.25,1.075,1.075,0,0,1,1-1A1.143,1.143,0,0,1,62.227,35.987Z" fill="#1d2943"/>
                          </g>
                        </g>
                        <g id="Group_15404" data-name="Group 15404">
                          <path id="Path_43667" data-name="Path 43667" d="M54.23,33.488a.538.538,0,0,1-.5.5H49.482a.5.5,0,1,1,0-1h4.248A.538.538,0,0,1,54.23,33.488Z" fill="#1d2943"/>
                        </g>
                        <g id="Group_15405" data-name="Group 15405">
                          <path id="Path_43668" data-name="Path 43668" d="M63.727,33.488a.537.537,0,0,1-.5.5H58.979a.5.5,0,1,1,0-1h4.248A.538.538,0,0,1,63.727,33.488Z" fill="#1d2943"/>
                        </g>
                      </g>
                    </g>
                  </g>
                </g>
              </g>
              <g id="Group_15415" data-name="Group 15415">
                <g id="Group_15412" data-name="Group 15412">
                  <g id="Group_15411" data-name="Group 15411">
                    <path id="Path_43669" data-name="Path 43669" d="M70.475,34.987a3.844,3.844,0,0,1-3.749,3.749v-7.5A3.844,3.844,0,0,1,70.475,34.987Z" fill="#fabdab"/>
                  </g>
                </g>
                <g id="Group_15414" data-name="Group 15414">
                  <g id="Group_15413" data-name="Group 15413">
                    <path id="Path_43670" data-name="Path 43670" d="M67.476,31.239v7.247h-.75v-7.5A.918.918,0,0,0,67.476,31.239Z" fill="#ea8b82"/>
                  </g>
                </g>
              </g>
              <g id="Group_15420" data-name="Group 15420">
                <g id="Group_15417" data-name="Group 15417">
                  <g id="Group_15416" data-name="Group 15416">
                    <path id="Path_43671" data-name="Path 43671" d="M42.735,34.987a3.844,3.844,0,0,0,3.749,3.749v-7.5A3.844,3.844,0,0,0,42.735,34.987Z" fill="#fabdab"/>
                  </g>
                </g>
                <g id="Group_15419" data-name="Group 15419">
                  <g id="Group_15418" data-name="Group 15418">
                    <path id="Path_43672" data-name="Path 43672" d="M45.733,31.239v7.247h.75v-7.5A.918.918,0,0,1,45.733,31.239Z" fill="#ea8b82"/>
                  </g>
                </g>
              </g>
            </g>
            <g id="Group_15422" data-name="Group 15422">
              <path id="Path_43673" data-name="Path 43673" d="M47.483,24.241a7.066,7.066,0,0,1,3.5-4.5,7.749,7.749,0,0,1,5.748-1,17.45,17.45,0,0,0-5,2,11.429,11.429,0,0,0-4.248,3.5Z" fill="#fff"/>
            </g>
          </g>
          <g id="Group_15457" data-name="Group 15457">
            <g id="Group_15455" data-name="Group 15455">
              <g id="Group_15444" data-name="Group 15444">
                <g id="Group_15443" data-name="Group 15443">
                  <g id="Group_15442" data-name="Group 15442">
                    <g id="Group_15424" data-name="Group 15424">
                      <path id="Path_43674" data-name="Path 43674" d="M145.2,28.49V55.48h-26.74V28.49a13.439,13.439,0,0,1,13.5-13.5,13.214,13.214,0,0,1,9.5,4,14.59,14.59,0,0,1,3.749,9.5Z" fill="#1d2943"/>
                    </g>
                    <g id="Group_15441" data-name="Group 15441">
                      <g id="Group_15440" data-name="Group 15440">
                        <g id="Group_15432" data-name="Group 15432">
                          <g id="Group_15425" data-name="Group 15425">
                            <path id="Path_43675" data-name="Path 43675" d="M153.445,63.977c0,10-43.734,10-43.734,0a12.532,12.532,0,0,1,12.5-12.5h1.25a8.247,8.247,0,1,0,16.494,0h.75A12.432,12.432,0,0,1,153.445,63.977Z" fill="#57b3fe"/>
                          </g>
                          <g id="Group_15427" data-name="Group 15427">
                            <g id="Group_15426" data-name="Group 15426">
                              <path id="Path_43676" data-name="Path 43676" d="M153.445,63.977a12.372,12.372,0,0,0-6-10.746c-1.749,2.749-9.746,12-35.487,14.245C121.206,73.723,153.445,72.724,153.445,63.977Z" fill="#5094ff"/>
                            </g>
                          </g>
                          <g id="Group_15428" data-name="Group 15428">
                            <path id="Path_43677" data-name="Path 43677" d="M140.2,51.481a8.247,8.247,0,1,1-16.494,0Z" fill="#fff"/>
                          </g>
                          <g id="Group_15429" data-name="Group 15429">
                            <path id="Path_43678" data-name="Path 43678" d="M137.45,45.983v5.5a5.5,5.5,0,1,1-11,0v-5.5Z" fill="#fabdab"/>
                          </g>
                          <g id="Group_15430" data-name="Group 15430">
                            <path id="Path_43679" data-name="Path 43679" d="M137.45,47.233v3.249c-9,.5-11-2.749-11-2.749v-.5Z" fill="#ea8b82"/>
                          </g>
                          <g id="Group_15431" data-name="Group 15431">
                            <path id="Path_43680" data-name="Path 43680" d="M141.949,31.239v7.747a10.543,10.543,0,0,1-9.247,10.5,10.125,10.125,0,0,1-11-10v-8c0-6,20.243-6,20.243-.25Z" fill="#fabdab"/>
                          </g>
                        </g>
                        <g id="Group_15433" data-name="Group 15433">
                          <path id="Path_43681" data-name="Path 43681" d="M128.953,42.984c-.25,0-.5.5-.5.75a3.639,3.639,0,0,0,6.5,0c.25-.25,0-.75-.5-.75Z" fill="#fff"/>
                        </g>
                        <g id="Group_15434" data-name="Group 15434">
                          <path id="Path_43682" data-name="Path 43682" d="M132.952,39.736a1.66,1.66,0,0,1-1.25,1,1.143,1.143,0,0,1-1.25-1Z" fill="#ea8b82"/>
                        </g>
                        <g id="Group_15437" data-name="Group 15437">
                          <g id="Group_15435" data-name="Group 15435">
                            <path id="Path_43683" data-name="Path 43683" d="M128.2,35.987a1.339,1.339,0,0,1-1.25,1.25,1.143,1.143,0,0,1-1-1.25,1.075,1.075,0,0,1,1-1A1.143,1.143,0,0,1,128.2,35.987Z" fill="#1d2943"/>
                          </g>
                          <g id="Group_15436" data-name="Group 15436">
                            <path id="Path_43684" data-name="Path 43684" d="M137.45,35.987a1.339,1.339,0,0,1-1.25,1.25,1.143,1.143,0,0,1-1-1.25,1.075,1.075,0,0,1,1-1A1.143,1.143,0,0,1,137.45,35.987Z" fill="#1d2943"/>
                          </g>
                        </g>
                        <g id="Group_15438" data-name="Group 15438">
                          <path id="Path_43685" data-name="Path 43685" d="M129.453,33.488a.538.538,0,0,1-.5.5h-4a.5.5,0,1,1,0-1H129.2C129.453,32.988,129.453,33.238,129.453,33.488Z" fill="#1d2943"/>
                        </g>
                        <g id="Group_15439" data-name="Group 15439">
                          <path id="Path_43686" data-name="Path 43686" d="M138.95,33.488a.537.537,0,0,1-.5.5H134.2a.5.5,0,1,1,0-1h4.248A.538.538,0,0,1,138.95,33.488Z" fill="#1d2943"/>
                        </g>
                      </g>
                    </g>
                  </g>
                </g>
              </g>
              <g id="Group_15449" data-name="Group 15449">
                <g id="Group_15446" data-name="Group 15446">
                  <g id="Group_15445" data-name="Group 15445">
                    <path id="Path_43687" data-name="Path 43687" d="M145.7,34.987a3.844,3.844,0,0,1-3.749,3.749v-7.5A3.844,3.844,0,0,1,145.7,34.987Z" fill="#fabdab"/>
                  </g>
                </g>
                <g id="Group_15448" data-name="Group 15448">
                  <g id="Group_15447" data-name="Group 15447">
                    <path id="Path_43688" data-name="Path 43688" d="M142.7,31.239v7.247h-.75v-7.5A.918.918,0,0,0,142.7,31.239Z" fill="#ea8b82"/>
                  </g>
                </g>
              </g>
              <g id="Group_15454" data-name="Group 15454">
                <g id="Group_15451" data-name="Group 15451">
                  <g id="Group_15450" data-name="Group 15450">
                    <path id="Path_43689" data-name="Path 43689" d="M117.957,34.987a3.844,3.844,0,0,0,3.749,3.749v-7.5A3.844,3.844,0,0,0,117.957,34.987Z" fill="#fabdab"/>
                  </g>
                </g>
                <g id="Group_15453" data-name="Group 15453">
                  <g id="Group_15452" data-name="Group 15452">
                    <path id="Path_43690" data-name="Path 43690" d="M120.956,31.239v7.247h.75v-7.5A.918.918,0,0,1,120.956,31.239Z" fill="#ea8b82"/>
                  </g>
                </g>
              </g>
            </g>
            <g id="Group_15456" data-name="Group 15456">
              <path id="Path_43691" data-name="Path 43691" d="M122.956,24.241a7.066,7.066,0,0,1,3.5-4.5,7.749,7.749,0,0,1,5.748-1,17.45,17.45,0,0,0-5,2,9.763,9.763,0,0,0-4.248,3.5Z" fill="#fff"/>
            </g>
          </g>
          <g id="Group_15493" data-name="Group 15493">
            <g id="Group_15490" data-name="Group 15490">
              <g id="Group_15489" data-name="Group 15489">
                <g id="Group_15466" data-name="Group 15466">
                  <g id="Group_15465" data-name="Group 15465">
                    <g id="Group_15464" data-name="Group 15464">
                      <g id="Group_15463" data-name="Group 15463">
                        <g id="Group_15462" data-name="Group 15462">
                          <g id="Group_15458" data-name="Group 15458">
                            <path id="Path_43692" data-name="Path 43692" d="M121.206,75.973c0,7-14.745,9.247-21.492,9.746-9.746,1-36.737,0-36.737-9.746a17.454,17.454,0,0,1,5-12,15.246,15.246,0,0,1,4-3,16.486,16.486,0,0,1,8-2h24.491a14.25,14.25,0,0,1,3.249.25,3.552,3.552,0,0,1,1.5.5,17.18,17.18,0,0,1,12,16.244Z" fill="#f34b58"/>
                          </g>
                          <g id="Group_15461" data-name="Group 15461">
                            <g id="Group_15459" data-name="Group 15459">
                              <path id="Path_43693" data-name="Path 43693" d="M81.221,59.229l2.749,11c.5,2,2.5,2.5,3.5,1.5l5-4.748-7-8.5Z" fill="#e9e7fc"/>
                            </g>
                            <g id="Group_15460" data-name="Group 15460">
                              <path id="Path_43694" data-name="Path 43694" d="M103.712,59.229l-3,11.746a1.965,1.965,0,0,1-3.249,1l-5-4.748,7-8.5Z" fill="#e9e7fc"/>
                            </g>
                          </g>
                        </g>
                      </g>
                    </g>
                  </g>
                </g>
                <g id="Group_15488" data-name="Group 15488">
                  <g id="Group_15487" data-name="Group 15487">
                    <g id="Group_15483" data-name="Group 15483">
                      <g id="Group_15482" data-name="Group 15482">
                        <g id="Group_15474" data-name="Group 15474">
                          <g id="Group_15467" data-name="Group 15467">
                            <path id="Path_43695" data-name="Path 43695" d="M99.464,52.981v7a7,7,0,0,1-13.995,0v-7Z" fill="#fabdab"/>
                          </g>
                          <g id="Group_15468" data-name="Group 15468">
                            <path id="Path_43696" data-name="Path 43696" d="M99.464,54.73v4c-11.246.5-13.995-3.5-13.995-3.5v-.75H99.464Z" fill="#ea8b82"/>
                          </g>
                          <g id="Group_15469" data-name="Group 15469">
                            <path id="Path_43697" data-name="Path 43697" d="M105.212,28.99V44.734a12.745,12.745,0,1,1-25.491,0V28.99Z" fill="#fabdab"/>
                          </g>
                          <g id="Group_15470" data-name="Group 15470">
                            <path id="Path_43698" data-name="Path 43698" d="M109.46,40.485a4.212,4.212,0,0,1-4.248,4.248V36.487A3.864,3.864,0,0,1,109.46,40.485Z" fill="#fabdab"/>
                          </g>
                          <g id="Group_15471" data-name="Group 15471">
                            <path id="Path_43699" data-name="Path 43699" d="M106.212,36.237v8.247h-1V36.237Z" fill="#ea8b82"/>
                          </g>
                          <g id="Group_15472" data-name="Group 15472">
                            <path id="Path_43700" data-name="Path 43700" d="M75.473,40.485a4.212,4.212,0,0,0,4.248,4.248V36.487A3.751,3.751,0,0,0,75.473,40.485Z" fill="#fabdab"/>
                          </g>
                          <g id="Group_15473" data-name="Group 15473">
                            <path id="Path_43701" data-name="Path 43701" d="M78.722,36.237v8.247h1V36.237Z" fill="#ea8b82"/>
                          </g>
                        </g>
                        <g id="Group_15475" data-name="Group 15475">
                          <path id="Path_43702" data-name="Path 43702" d="M88.718,49.232c-.5,0-.75.5-.5,1a4.452,4.452,0,0,0,4,2.5,4.189,4.189,0,0,0,4-2.5c.25-.5,0-1-.5-1Z" fill="#fff"/>
                        </g>
                        <g id="Group_15476" data-name="Group 15476">
                          <path id="Path_43703" data-name="Path 43703" d="M93.966,44.984a1.849,1.849,0,0,1-3.5,0Z" fill="#ea8b82"/>
                        </g>
                        <g id="Group_15479" data-name="Group 15479">
                          <g id="Group_15477" data-name="Group 15477">
                            <path id="Path_43704" data-name="Path 43704" d="M87.718,40.485a1.5,1.5,0,1,1-1.5-1.5C86.969,39.236,87.718,39.736,87.718,40.485Z" fill="#1d2943"/>
                          </g>
                          <g id="Group_15478" data-name="Group 15478">
                            <path id="Path_43705" data-name="Path 43705" d="M99.464,40.485a1.5,1.5,0,1,1-1.5-1.5Q99.464,39.361,99.464,40.485Z" fill="#1d2943"/>
                          </g>
                        </g>
                        <g id="Group_15480" data-name="Group 15480">
                          <path id="Path_43706" data-name="Path 43706" d="M89.468,37.237a.538.538,0,0,1-.5.5H83.72a.5.5,0,0,1,0-1h5.248A.538.538,0,0,1,89.468,37.237Z" fill="#1d2943"/>
                        </g>
                        <g id="Group_15481" data-name="Group 15481">
                          <path id="Path_43707" data-name="Path 43707" d="M101.463,37.237a.538.538,0,0,1-.5.5H95.715a.5.5,0,0,1,0-1h5.248A.538.538,0,0,1,101.463,37.237Z" fill="#1d2943"/>
                        </g>
                      </g>
                    </g>
                    <g id="Group_15486" data-name="Group 15486">
                      <g id="Group_15484" data-name="Group 15484">
                        <path id="Path_43708" data-name="Path 43708" d="M105.712,41.485a97.462,97.462,0,0,1-3-12.246c-8.247,3.249-17.744,2.5-22.992-1-4.748-3.249-4-8.247-.25-10.746,4.748-3.5,13.745-4,20.243,1.25,0,0,8.5-3.249,5.5,5C110.71,21.992,108.961,30.739,105.712,41.485Z" fill="#1d2943"/>
                      </g>
                      <g id="Group_15485" data-name="Group 15485">
                        <path id="Path_43709" data-name="Path 43709" d="M78.971,23.741c5.248-1.749,3.5,7,.25,17.744a97.462,97.462,0,0,1-3-12.246s-.75-5.748,2.749-5.5Z" fill="#1d2943"/>
                      </g>
                    </g>
                  </g>
                </g>
              </g>
            </g>
            <g id="Group_15492" data-name="Group 15492">
              <g id="Group_15491" data-name="Group 15491">
                <path id="Path_43710" data-name="Path 43710" d="M121.206,75.973a16.443,16.443,0,0,0-8.747-14.745c-2,6.748-10.5,22.242-48.982,16.494C68.225,89.468,121.206,88.718,121.206,75.973Z" fill="#e11226"/>
              </g>
            </g>
          </g>
        </g>
      </g>
      <g id="Group_15496" data-name="Group 15496">
        <path id="Path_43711" data-name="Path 43711" d="M118.457,73.723c.25,2.5-1.25,4.748-3.249,6.248a7.585,7.585,0,0,1-7.247.5,15.349,15.349,0,0,0,6.248-2,19.809,19.809,0,0,0,4.248-4.748Z" fill="#fff"/>
      </g>
      <g id="Group_15497" data-name="Group 15497">
        <path id="Path_43712" data-name="Path 43712" d="M151.7,59.978c.25,2.5-1.25,4.748-3.249,6.248a5.971,5.971,0,0,1-3.5,1.25,6.759,6.759,0,0,1-3.749-.75,15.349,15.349,0,0,0,6.248-2,13.189,13.189,0,0,0,4.248-4.748Z" fill="#fff"/>
      </g>
      <g id="Group_15498" data-name="Group 15498">
        <path id="Path_43713" data-name="Path 43713" d="M38.236,61.728c-.25-1.749,1-3.5,2.5-4.5a8.953,8.953,0,0,1,2.749-1,4.943,4.943,0,0,1,2.749.5,11.944,11.944,0,0,0-4.5,1.5,6.038,6.038,0,0,0-3.5,3.5Z" fill="#fff"/>
      </g>
    </g>
  </g>
</svg>
