<svg xmlns="http://www.w3.org/2000/svg" xmlns:xlink="http://www.w3.org/1999/xlink" width="24" height="24" viewBox="0 0 24 24">
  <defs>
    <clipPath id="clip-path">
      <rect id="Rectangle_5789" data-name="Rectangle 5789" width="24" height="24" transform="translate(430 138)" fill="#06c" stroke="#707070" stroke-width="1"/>
    </clipPath>
  </defs>
  <g id="Mask_Group_15291" data-name="Mask Group 15291" transform="translate(-430 -138)" clip-path="url(#clip-path)">
    <path id="box-open" d="M23.621,6.836,22.269,4.01a3.016,3.016,0,0,0-1.758-1.552l-6.3-2.1a7.044,7.044,0,0,0-4.428,0l-6.3,2.1A3.015,3.015,0,0,0,1.73,4.012L.443,6.719A3.027,3.027,0,0,0,2,11.124l-.005,6.314a4.993,4.993,0,0,0,3.418,4.748l4.365,1.455a7.044,7.044,0,0,0,4.428,0l4.369-1.457a4.994,4.994,0,0,0,3.419-4.739l0-6.32a2.981,2.981,0,0,0,1.819-1.79,2.92,2.92,0,0,0-.2-2.5Zm-13.2-4.579a5.029,5.029,0,0,1,3.162,0l4.248,1.416-5.822,1.95L6.172,3.673l4.246-1.415ZM2.2,7.666,3.53,4.884c.048.025,7.057,2.373,7.057,2.373L8.966,10.515a1.006,1.006,0,0,1-1.173.434L2.712,9.256a1.025,1.025,0,0,1-.639-.619,1.1,1.1,0,0,1,.129-.97ZM6.044,20.29a3,3,0,0,1-2.051-2.848L4,11.793,7.16,12.847a3,3,0,0,0,3.559-1.371L11,10.919,10.992,21.9a4.827,4.827,0,0,1-.581-.155L6.045,20.291Zm11.9,0-4.37,1.457a5.021,5.021,0,0,1-.581.155l.005-11,.319.64A2.978,2.978,0,0,0,15.875,13a3.025,3.025,0,0,0,.96-.157L20,11.794l0,5.651a3,3,0,0,1-2.052,2.844Zm4-11.645a.991.991,0,0,1-.619.6L16.2,10.95a1,1,0,0,1-1.136-.365L13.413,7.262s7.006-2.351,7.054-2.377l1.393,2.9a.993.993,0,0,1,.081.859Z" transform="translate(429.992 137.999)" fill="#06c"/>
  </g>
</svg>
