<svg xmlns="http://www.w3.org/2000/svg" xmlns:xlink="http://www.w3.org/1999/xlink" width="16" height="16" viewBox="0 0 16 16">
  <defs>
    <clipPath id="clip-path">
      <rect id="Rectangle_3875" data-name="Rectangle 3875" width="16" height="16" transform="translate(101 663)" fill="#a8a8a8" stroke="#707070" stroke-width="1"/>
    </clipPath>
  </defs>
  <g id="Mask_Group_116" data-name="Mask Group 116" transform="translate(-101 -663)" clip-path="url(#clip-path)">
    <path id="Hide" d="M9.986,8.135l.909-.909A2.989,2.989,0,0,1,7.226,10.9l.909-.909A1.991,1.991,0,0,0,9.986,8.135Zm5.951-.378A10.472,10.472,0,0,0,13.3,4.823l-.728.728A10.007,10.007,0,0,1,14.912,8,8.6,8.6,0,0,1,8,12a7.347,7.347,0,0,1-1.68-.2l-.822.822A8.47,8.47,0,0,0,8,13c5.234,0,7.829-4.563,7.937-4.757a.5.5,0,0,0,0-.486Zm-2.083-4.9-11,11a.5.5,0,1,1-.707-.707l1.4-1.4a10.492,10.492,0,0,1-3.483-3.5.5.5,0,0,1,0-.486C.171,7.563,2.766,3,8,3a8.42,8.42,0,0,1,3.528.765l1.619-1.619a.5.5,0,0,1,.707.707ZM4.292,11,5.557,9.736A3,3,0,0,1,9.736,5.557l1.024-1.024A7.362,7.362,0,0,0,8,4,8.6,8.6,0,0,0,1.088,8a9.817,9.817,0,0,0,3.2,3ZM6.283,9.01,9.009,6.283A1.977,1.977,0,0,0,8,6,2,2,0,0,0,6,8,1.977,1.977,0,0,0,6.283,9.01Z" transform="translate(101 663)" fill="#a8a8a8"/>
  </g>
</svg>
