<svg xmlns="http://www.w3.org/2000/svg" xmlns:xlink="http://www.w3.org/1999/xlink" width="28" height="28" viewBox="0 0 28 28">
  <defs>
    <clipPath id="clip-path">
      <rect id="Rectangle_4935" data-name="Rectangle 4935" width="28" height="28" transform="translate(343 796)" fill="#fff" stroke="#707070" stroke-width="1"/>
    </clipPath>
  </defs>
  <g id="Mask_Group_176" data-name="Mask Group 176" transform="translate(-343 -796)" clip-path="url(#clip-path)">
    <g id="facebook_3_" data-name="facebook (3)" transform="translate(343 796)">
      <path id="Path_22210" data-name="Path 22210" d="M28,14A14,14,0,1,1,14,0,14,14,0,0,1,28,14Zm0,0" fill="#4a7aff"/>
      <path id="Path_22211" data-name="Path 22211" d="M13.487,27.4A14,14,0,0,0,26.873,13.412c0-.054,0-.109,0-.163L17.153,3.53,6.762,14.391l5.773,5.773L9.873,23.783Zm0,0" transform="translate(1.127 0.588)" fill="#0053bf"/>
      <path id="Path_22212" data-name="Path 22212" d="M17.153,3.563v3.17s-3.64-.528-3.64,1.82V10.9H16.8l-.411,3.581H13.513v9.334H9.874V14.482l-3.111-.059V10.9H9.815V8.2a4.61,4.61,0,0,1,3.757-4.755,10.577,10.577,0,0,1,3.581.117Zm0,0" transform="translate(1.127 0.556)" fill="#fff"/>
      <path id="Path_22213" data-name="Path 22213" d="M16.283,6.733V3.563A10.577,10.577,0,0,0,12.7,3.446a5.55,5.55,0,0,0-.718.183V23.816h.66V14.482h2.876L15.93,10.9H12.643V8.553c0-2.348,3.64-1.82,3.64-1.82Zm0,0" transform="translate(1.997 0.556)" fill="#dce1eb"/>
    </g>
  </g>
</svg>
