<svg xmlns="http://www.w3.org/2000/svg" xmlns:xlink="http://www.w3.org/1999/xlink" width="24" height="24" viewBox="0 0 24 24">
  <defs>
    <clipPath id="clip-path">
      <rect id="Rectangle_5790" data-name="Rectangle 5790" width="24" height="24" transform="translate(720 136)" fill="#ffbc02" stroke="#707070" stroke-width="1"/>
    </clipPath>
  </defs>
  <g id="Mask_Group_15292" data-name="Mask Group 15292" transform="translate(-720 -136)" clip-path="url(#clip-path)">
    <path id="box-open-full" d="M23.612,10.837,21.894,7.245a1,1,0,0,0-1.219-.517L12,9.624l-8.69-2.9a1,1,0,0,0-1.219.518L.436,10.72a3.026,3.026,0,0,0,1.554,4.4l-.006,2.315A5,5,0,0,0,5.4,22.187l4.365,1.456a7.054,7.054,0,0,0,4.428,0l4.369-1.456a4.993,4.993,0,0,0,3.419-4.738l.006-2.322a2.978,2.978,0,0,0,1.819-1.788,2.926,2.926,0,0,0-.2-2.5Zm-21.418.83L3.512,8.9l7.066,2.354-1.62,3.256a1,1,0,0,1-1.174.436L2.7,13.255a1.021,1.021,0,0,1-.639-.618,1.1,1.1,0,0,1,.13-.97ZM6.036,20.29a3,3,0,0,1-2.052-2.848l0-1.65,3.164,1.055a3,3,0,0,0,3.559-1.372l.277-.555,0,6.98a5.088,5.088,0,0,1-.582-.154L6.037,20.29Zm11.9,0-4.369,1.456a5.059,5.059,0,0,1-.58.155l0-7,.319.64A2.981,2.981,0,0,0,15.869,17a3.03,3.03,0,0,0,.96-.157l3.16-1.053,0,1.651a3,3,0,0,1-2.052,2.844Zm4-7.646a1,1,0,0,1-.619.6L16.2,14.949a1,1,0,0,1-1.136-.365l-1.654-3.322L20.471,8.9l1.382,2.88a.993.993,0,0,1,.081.859ZM5.214,5.9a1,1,0,0,1,0-1.414l3.9-3.9a2,2,0,0,1,2.828,0l1.6,1.6a2.057,2.057,0,0,1,2.353.345l2.255,2.255A1,1,0,0,1,16.73,6.2L14.475,3.941,11.324,7.093A1,1,0,0,1,9.91,5.678l2.147-2.147L10.527,2l-3.9,3.9a1,1,0,0,1-1.414,0Z" transform="translate(720 136)" fill="#ffbc02"/>
  </g>
</svg>
