<svg xmlns="http://www.w3.org/2000/svg" xmlns:xlink="http://www.w3.org/1999/xlink" width="28" height="28" viewBox="0 0 28 28">
  <defs>
    <clipPath id="clip-path">
      <rect id="Rectangle_3940" data-name="Rectangle 3940" width="28" height="28" transform="translate(3002 16)" fill="#404040" stroke="#707070" stroke-width="1"/>
    </clipPath>
  </defs>
  <g id="Mask_Group_136" data-name="Mask Group 136" transform="translate(-3002 -16)" clip-path="url(#clip-path)">
    <g id="_00-38-apps_-arrange_-array_-grid_-layout_-menu_-view" data-name="00-38-apps,-arrange,-array,-grid,-layout,-menu,-view" transform="translate(3002 16)">
      <path id="Shape" d="M29.526,18.7a2.331,2.331,0,0,1,2.321,2.321v8.509a2.32,2.32,0,0,1-2.321,2.321H21.017A2.332,2.332,0,0,1,18.7,29.526V21.017A2.322,2.322,0,0,1,21.017,18.7Zm-14.7,0a2.331,2.331,0,0,1,2.321,2.321v8.509a2.32,2.32,0,0,1-2.321,2.321H6.321A2.332,2.332,0,0,1,4,29.526V21.017A2.322,2.322,0,0,1,6.321,18.7Zm14.7,1.547H21.017a.777.777,0,0,0-.774.774v8.509a.77.77,0,0,0,.774.774h8.509a.77.77,0,0,0,.774-.774V21.017A.766.766,0,0,0,29.526,20.244Zm-14.7,0H6.321a.777.777,0,0,0-.774.774v8.509a.77.77,0,0,0,.774.774h8.509a.77.77,0,0,0,.774-.774V21.017A.766.766,0,0,0,14.829,20.244ZM29.526,4a2.331,2.331,0,0,1,2.321,2.321v8.509a2.32,2.32,0,0,1-2.321,2.321H21.017A2.332,2.332,0,0,1,18.7,14.829V6.321A2.322,2.322,0,0,1,21.017,4Zm-14.7,0A2.331,2.331,0,0,1,17.15,6.321v8.509a2.32,2.32,0,0,1-2.321,2.321H6.321A2.332,2.332,0,0,1,4,14.829V6.321A2.322,2.322,0,0,1,6.321,4Zm14.7,1.547H21.017a.777.777,0,0,0-.774.774v8.509a.77.77,0,0,0,.774.774h8.509a.77.77,0,0,0,.774-.774V6.321A.766.766,0,0,0,29.526,5.547Zm-14.7,0H6.321a.777.777,0,0,0-.774.774v8.509a.77.77,0,0,0,.774.774h8.509a.77.77,0,0,0,.774-.774V6.321A.766.766,0,0,0,14.829,5.547Z" transform="translate(-4 -4)" fill="#404040"/>
    </g>
  </g>
</svg>
