<svg xmlns="http://www.w3.org/2000/svg" xmlns:xlink="http://www.w3.org/1999/xlink" width="28" height="28" viewBox="0 0 28 28">
  <defs>
    <clipPath id="clip-path">
      <rect id="Rectangle_4936" data-name="Rectangle 4936" width="28" height="28" transform="translate(383 796)" fill="#fff" stroke="#707070" stroke-width="1"/>
    </clipPath>
    <linearGradient id="linear-gradient" x1="0.119" y1="0.881" x2="0.83" y2="0.17" gradientUnits="objectBoundingBox">
      <stop offset="0" stop-color="#fee411"/>
      <stop offset="0.052" stop-color="#fedb16"/>
      <stop offset="0.138" stop-color="#fec125"/>
      <stop offset="0.248" stop-color="#fe983d"/>
      <stop offset="0.376" stop-color="#fe5f5e"/>
      <stop offset="0.5" stop-color="#fe2181"/>
      <stop offset="1" stop-color="#9000dc"/>
    </linearGradient>
  </defs>
  <g id="Mask_Group_177" data-name="Mask Group 177" transform="translate(-383 -796)" clip-path="url(#clip-path)">
    <g id="instagram_1_" data-name="instagram (1)" transform="translate(383 796)">
      <circle id="Ellipse_318" data-name="Ellipse 318" cx="14" cy="14" r="14" transform="translate(0 0)" fill="url(#linear-gradient)"/>
      <g id="Group_14392" data-name="Group 14392" transform="translate(6.228 6.222)">
        <path id="Path_22214" data-name="Path 22214" d="M17.738,6.987H11.8a4.806,4.806,0,0,0-4.8,4.8v5.942a4.806,4.806,0,0,0,4.8,4.8h5.942a4.806,4.806,0,0,0,4.8-4.8V11.79a4.806,4.806,0,0,0-4.8-4.8Zm3.068,10.752a3.076,3.076,0,0,1-3.074,3.074H11.789a3.076,3.076,0,0,1-3.074-3.074V11.8a3.076,3.076,0,0,1,3.074-3.074h5.942A3.076,3.076,0,0,1,20.805,11.8Z" transform="translate(-6.992 -6.987)" fill="#fff"/>
        <path id="Path_22215" data-name="Path 22215" d="M14.221,10.245A3.976,3.976,0,1,0,18.2,14.221,3.983,3.983,0,0,0,14.221,10.245Zm0,6.39a2.414,2.414,0,1,1,2.414-2.414,2.417,2.417,0,0,1-2.414,2.414Z" transform="translate(-6.45 -6.444)" fill="#fff"/>
        <circle id="Ellipse_319" data-name="Ellipse 319" cx="0.672" cy="0.672" r="0.672" transform="translate(11.172 3.019) rotate(-9.208)" fill="#fff"/>
      </g>
    </g>
  </g>
</svg>
