<svg xmlns="http://www.w3.org/2000/svg" xmlns:xlink="http://www.w3.org/1999/xlink" width="24" height="24" viewBox="0 0 24 24">
  <defs>
    <clipPath id="clip-path">
      <rect id="Rectangle_3862" data-name="Rectangle 3862" width="24" height="24" transform="translate(80 363)" fill="#404040" stroke="#707070" stroke-width="1"/>
    </clipPath>
  </defs>
  <g id="Mask_Group_15263" data-name="Mask Group 15263" transform="translate(-80 -363)" clip-path="url(#clip-path)">
    <g id="category" transform="translate(75.543 358.543)">
      <path id="Path_44045" data-name="Path 44045" d="M11.171,4.486c-.418-.028-.927-.028-1.536-.028H9.565c-.61,0-1.118,0-1.536.028a3.872,3.872,0,0,0-1.244.259A3.771,3.771,0,0,0,4.744,6.785a3.872,3.872,0,0,0-.259,1.244c-.028.418-.028.927-.028,1.536v.069c0,.61,0,1.118.028,1.536a3.872,3.872,0,0,0,.259,1.244,3.771,3.771,0,0,0,2.041,2.041,3.87,3.87,0,0,0,1.244.259c.418.029.927.029,1.536.029h.069c.61,0,1.118,0,1.536-.029a3.87,3.87,0,0,0,1.244-.259,3.771,3.771,0,0,0,2.041-2.041,3.87,3.87,0,0,0,.259-1.244c.029-.418.029-.927.029-1.536V9.565c0-.61,0-1.118-.029-1.536a3.87,3.87,0,0,0-.259-1.244,3.771,3.771,0,0,0-2.041-2.041,3.872,3.872,0,0,0-1.244-.259Zm-3.6,2.159a1.892,1.892,0,0,1,.6-.107c.339-.023.778-.024,1.431-.024s1.091,0,1.431.024a1.892,1.892,0,0,1,.6.107,1.714,1.714,0,0,1,.928.928,1.892,1.892,0,0,1,.107.6c.023.339.024.778.024,1.431s0,1.091-.024,1.431a1.892,1.892,0,0,1-.107.6,1.714,1.714,0,0,1-.928.928,1.892,1.892,0,0,1-.6.107c-.339.023-.778.024-1.431.024s-1.091,0-1.431-.024a1.892,1.892,0,0,1-.6-.107,1.714,1.714,0,0,1-.928-.928,1.892,1.892,0,0,1-.107-.6c-.023-.339-.024-.778-.024-1.431s0-1.091.024-1.431a1.892,1.892,0,0,1,.107-.6,1.714,1.714,0,0,1,.928-.928Z" fill="#404040" fill-rule="evenodd"/>
      <path id="Path_44046" data-name="Path 44046" d="M24.343,5.486a1.029,1.029,0,1,0-2.057,0V8.571H19.2a1.029,1.029,0,1,0,0,2.057h3.086v3.086a1.029,1.029,0,1,0,2.057,0V10.629h3.086a1.029,1.029,0,1,0,0-2.057H24.343Z" fill="#404040"/>
      <g id="Group_16353" data-name="Group 16353">
        <path id="Path_44047" data-name="Path 44047" d="M11.171,18.2c-.418-.029-.927-.029-1.536-.029H9.565c-.61,0-1.118,0-1.536.029a3.87,3.87,0,0,0-1.244.259A3.772,3.772,0,0,0,4.744,20.5a3.872,3.872,0,0,0-.259,1.244c-.028.418-.028.927-.028,1.536v.069c0,.609,0,1.118.028,1.536a3.872,3.872,0,0,0,.259,1.244A3.772,3.772,0,0,0,6.785,28.17a3.87,3.87,0,0,0,1.244.259c.418.029.927.029,1.536.029h.069c.61,0,1.118,0,1.536-.029a3.87,3.87,0,0,0,1.244-.259,3.772,3.772,0,0,0,2.041-2.041,3.87,3.87,0,0,0,.259-1.244c.029-.418.029-.927.029-1.536V23.28c0-.609,0-1.118-.029-1.536a3.87,3.87,0,0,0-.259-1.244,3.772,3.772,0,0,0-2.041-2.041A3.87,3.87,0,0,0,11.171,18.2Zm-3.6,2.159a1.889,1.889,0,0,1,.6-.107c.339-.023.778-.024,1.431-.024s1.091,0,1.431.024a1.889,1.889,0,0,1,.6.107,1.714,1.714,0,0,1,.928.928,1.892,1.892,0,0,1,.107.6c.023.339.024.778.024,1.431s0,1.091-.024,1.431a1.893,1.893,0,0,1-.107.6,1.715,1.715,0,0,1-.928.928,1.894,1.894,0,0,1-.6.107c-.339.023-.778.024-1.431.024s-1.091,0-1.431-.024a1.894,1.894,0,0,1-.6-.107,1.715,1.715,0,0,1-.928-.928,1.893,1.893,0,0,1-.107-.6c-.023-.339-.024-.778-.024-1.431s0-1.091.024-1.431a1.893,1.893,0,0,1,.107-.6,1.714,1.714,0,0,1,.928-.928Z" fill="#404040" fill-rule="evenodd"/>
        <path id="Path_44048" data-name="Path 44048" d="M24.885,18.2c-.418-.029-.927-.029-1.536-.029H23.28c-.609,0-1.118,0-1.536.029a3.87,3.87,0,0,0-1.244.259A3.772,3.772,0,0,0,18.458,20.5a3.87,3.87,0,0,0-.259,1.244c-.029.418-.029.927-.029,1.536v.069c0,.609,0,1.118.029,1.536a3.87,3.87,0,0,0,.259,1.244A3.772,3.772,0,0,0,20.5,28.17a3.87,3.87,0,0,0,1.244.259c.418.029.927.029,1.536.029h.069c.609,0,1.118,0,1.536-.029a3.87,3.87,0,0,0,1.244-.259,3.772,3.772,0,0,0,2.041-2.041,3.87,3.87,0,0,0,.259-1.244c.029-.418.029-.927.029-1.536V23.28c0-.609,0-1.118-.029-1.536A3.87,3.87,0,0,0,28.17,20.5a3.772,3.772,0,0,0-2.041-2.041A3.87,3.87,0,0,0,24.885,18.2Zm-3.6,2.159a1.89,1.89,0,0,1,.6-.107c.339-.023.778-.024,1.431-.024s1.091,0,1.431.024a1.89,1.89,0,0,1,.6.107,1.715,1.715,0,0,1,.928.928,1.9,1.9,0,0,1,.107.6c.023.339.024.778.024,1.431s0,1.091-.024,1.431a1.9,1.9,0,0,1-.107.6,1.715,1.715,0,0,1-.928.928,1.9,1.9,0,0,1-.6.107c-.339.023-.778.024-1.431.024s-1.091,0-1.431-.024a1.9,1.9,0,0,1-.6-.107,1.715,1.715,0,0,1-.928-.928,1.89,1.89,0,0,1-.107-.6c-.023-.339-.024-.778-.024-1.431s0-1.091.024-1.431a1.889,1.889,0,0,1,.107-.6,1.714,1.714,0,0,1,.928-.928Z" fill="#404040" fill-rule="evenodd"/>
      </g>
    </g>
  </g>
</svg>
