<svg xmlns="http://www.w3.org/2000/svg" xmlns:xlink="http://www.w3.org/1999/xlink" width="24" height="24" viewBox="0 0 24 24">
  <defs>
    <clipPath id="clip-path">
      <rect id="Rectangle_3960" data-name="Rectangle 3960" width="24" height="24" transform="translate(36 383)" fill="#f89800" stroke="#707070" stroke-width="1"/>
    </clipPath>
  </defs>
  <g id="Mask_Group_15281" data-name="Mask Group 15281" transform="translate(-36 -383)" clip-path="url(#clip-path)">
    <g id="layer1" transform="translate(34.286 381.286)">
      <path id="path2171" d="M12,1.714a5.143,5.143,0,1,0,5.143,5.143A5.156,5.156,0,0,0,12,1.714Zm0,1.714A3.429,3.429,0,1,1,8.571,6.857,3.416,3.416,0,0,1,12,3.429Z" fill="#f89800"/>
      <path id="path2173" d="M9.429,13.714a7.716,7.716,0,0,0-7.714,7.714v1.714A.857.857,0,0,0,2.571,24h9.3a.857.857,0,1,0,0-1.714H3.429v-.857a5.968,5.968,0,0,1,6-6h3.442a.857.857,0,1,0,0-1.714Z" fill="#f89800"/>
      <path id="path2175" d="M19.7,13.714a.858.858,0,0,0-.849.869v.932a4.266,4.266,0,0,0-1.5.631l-.658-.658a.83.83,0,0,0-.648-.275.866.866,0,0,0-.564,1.487l.661.661a4.264,4.264,0,0,0-.628,1.5h-.931a.857.857,0,1,0,0,1.714h.934a4.266,4.266,0,0,0,.626,1.49l-.666.666a.857.857,0,1,0,1.212,1.212l.665-.665a4.266,4.266,0,0,0,1.5.629v.932a.857.857,0,1,0,1.714,0v-.931a4.263,4.263,0,0,0,1.5-.628l.67.67a.857.857,0,1,0,1.212-1.212l-.666-.666a4.265,4.265,0,0,0,.629-1.5h.934a.857.857,0,1,0,0-1.714h-.931a4.265,4.265,0,0,0-.631-1.512l.661-.661a.856.856,0,1,0-1.209-1.212l-.663.663a4.263,4.263,0,0,0-1.5-.629v-.931a.855.855,0,0,0-.865-.869Zm.012,3.428a2.571,2.571,0,1,1-2.571,2.571A2.558,2.558,0,0,1,19.715,17.143Z" fill="#f89800"/>
    </g>
  </g>
</svg>
