<svg xmlns="http://www.w3.org/2000/svg" xmlns:xlink="http://www.w3.org/1999/xlink" width="80" height="80" viewBox="0 0 80 80">
  <defs>
    <clipPath id="clip-path">
      <rect id="Rectangle_5749" data-name="Rectangle 5749" width="80" height="80" transform="translate(717 510)" fill="#fff" stroke="#707070" stroke-width="1"/>
    </clipPath>
  </defs>
  <g id="Mask_Group_15183" data-name="Mask Group 15183" transform="translate(-717 -510)" clip-path="url(#clip-path)">
    <g id="credit-card_4_" data-name="credit-card (4)" transform="translate(717 510)">
      <g id="Group_15841" data-name="Group 15841">
        <g id="Group_15816" data-name="Group 15816">
          <g id="Group_15811" data-name="Group 15811">
            <path id="Path_43809" data-name="Path 43809" d="M74.813,67.187H5.187A5.2,5.2,0,0,1,0,61.984V18.016a5.2,5.2,0,0,1,5.187-5.187H74.8A5.2,5.2,0,0,1,80,18.016V61.984A5.2,5.2,0,0,1,74.813,67.187Z" fill="#505278"/>
            <path id="Path_43810" data-name="Path 43810" d="M74.813,12.828H40V67.187H74.812A5.185,5.185,0,0,0,80,62V18.016a5.194,5.194,0,0,0-5.187-5.187Z" fill="#424566"/>
          </g>
          <g id="Group_15815" data-name="Group 15815">
            <g id="Group_15813" data-name="Group 15813">
              <g id="Group_15812" data-name="Group 15812">
                <path id="Path_43811" data-name="Path 43811" d="M41.734,12.828A29.963,29.963,0,0,1,11.812,41.75,29.531,29.531,0,0,1,0,39.313V32.328a23.5,23.5,0,0,0,11.812,3.156A23.707,23.707,0,0,0,35.469,12.813h6.266v.016Z" fill="#575982"/>
              </g>
              <path id="Path_43812" data-name="Path 43812" d="M40,12.828v9.078a30.18,30.18,0,0,0,1.734-9.078Z" fill="#505278"/>
            </g>
            <g id="Group_15814" data-name="Group 15814">
              <path id="Path_43813" data-name="Path 43813" d="M80,44.609v6.344a38.292,38.292,0,0,0-11.031-.672c-6.547.656-12.625,3.719-19.141,9.641-1.047.953-2.109,1.938-3.125,2.891-1.562,1.453-3.125,2.922-4.766,4.359H31.812A85.776,85.776,0,0,0,42.437,58.25c1.047-.969,2.109-1.984,3.187-2.953,7.563-6.859,14.781-10.437,22.719-11.234A44.609,44.609,0,0,1,80,44.609Z" fill="#505278"/>
              <path id="Path_43814" data-name="Path 43814" d="M31.812,67.187H40V60.516a68.916,68.916,0,0,1-8.187,6.672Z" fill="#575982"/>
            </g>
          </g>
        </g>
        <g id="Group_15840" data-name="Group 15840">
          <g id="Group_15818" data-name="Group 15818">
            <path id="Path_43815" data-name="Path 43815" d="M16.75,39.281H9.078a2.127,2.127,0,0,1-2.125-2.125V32.062a2.127,2.127,0,0,1,2.125-2.125H16.75a2.127,2.127,0,0,1,2.125,2.125v5.094A2.127,2.127,0,0,1,16.75,39.281Z" fill="#424566"/>
            <g id="Group_15817" data-name="Group 15817">
              <path id="Path_43816" data-name="Path 43816" d="M16.75,39.156H9.063a1.987,1.987,0,0,1-1.984-1.984V32.062a1.987,1.987,0,0,1,1.984-1.984H16.75a1.987,1.987,0,0,1,1.984,1.984v5.109a1.987,1.987,0,0,1-1.984,1.984Z" fill="#febd55"/>
              <path id="Path_43817" data-name="Path 43817" d="M18.734,34.781v-.312H14.672V33.094l1.047-1.047h3.016a1.925,1.925,0,0,0-.031-.312H15.641a.142.142,0,0,0-.109.047l-1.094,1.094H13.062V30.094H12.75v2.781H11.391L10.3,31.781a.169.169,0,0,0-.109-.047H7.109a1.925,1.925,0,0,0-.031.312h3.047l1.031,1.031v1.391H7.078v.312h4.078v1.391L10.125,37.2H7.078a1.925,1.925,0,0,0,.031.312h3.078a.142.142,0,0,0,.109-.047l1.094-1.094H12.75v2.781h.312V36.375h1.375l1.094,1.094a.142.142,0,0,0,.109.047H18.7a1.925,1.925,0,0,0,.031-.312H15.719l-1.047-1.047V34.781Zm-4.375,1.281H11.469V33.172h2.891Z" fill="#b5613c"/>
            </g>
          </g>
          <path id="Path_43818" data-name="Path 43818" d="M71.625,39.062a.432.432,0,0,1-.2-.047.45.45,0,0,1-.2-.625,8.276,8.276,0,0,0,0-7.516.465.465,0,1,1,.828-.422,9.171,9.171,0,0,1,0,8.359A.492.492,0,0,1,71.625,39.062Zm-1.609-.891a7.1,7.1,0,0,0,0-7.094.469.469,0,0,0-.812.469,6.139,6.139,0,0,1,0,6.172.478.478,0,0,0,.172.641.441.441,0,0,0,.234.062A.57.57,0,0,0,70.016,38.172Zm-2-.641a5.074,5.074,0,0,0,0-5.844.472.472,0,0,0-.781.531,4.185,4.185,0,0,1,0,4.781.476.476,0,0,0,.125.656.409.409,0,0,0,.266.078.416.416,0,0,0,.391-.2Zm-2.109-.594a3.048,3.048,0,0,0,0-4.625.465.465,0,1,0-.625.687,2.135,2.135,0,0,1,0,3.25.467.467,0,0,0-.031.656.5.5,0,0,0,.344.156.5.5,0,0,0,.312-.125Z" fill="#cad4ff"/>
          <path id="Path_43819" data-name="Path 43819" d="M39.359,59.312H7.547a.469.469,0,0,1,0-.937H39.359a.46.46,0,0,1,.469.469A.47.47,0,0,1,39.359,59.312Z" fill="#e6eaff"/>
          <path id="Path_43820" data-name="Path 43820" d="M72.578,59.312H66.547a.469.469,0,0,1,0-.937h6.031a.46.46,0,0,1,.469.469A.47.47,0,0,1,72.578,59.312Zm-8.594-.469a.46.46,0,0,0-.469-.469H57.484a.469.469,0,0,0,0,.937h6.031A.47.47,0,0,0,63.984,58.844Z" fill="#cad4ff"/>
          <path id="Path_43821" data-name="Path 43821" d="M7.547,23.484a.46.46,0,0,1-.469-.469V21.172a.469.469,0,1,1,.937,0V23A.474.474,0,0,1,7.547,23.484Zm3.016-.469V21.172a.469.469,0,0,0-.937,0V23a.46.46,0,0,0,.469.469A.448.448,0,0,0,10.563,23.016Zm2.563,0V21.172a.469.469,0,0,0-.937,0V23a.469.469,0,0,0,.937.016Zm2.547,0V21.172a.469.469,0,0,0-.937,0V23a.46.46,0,0,0,.469.469A.448.448,0,0,0,15.672,23.016Z" fill="#e6eaff"/>
          <g id="Group_15839" data-name="Group 15839">
            <g id="Group_15823" data-name="Group 15823">
              <g id="Group_15819" data-name="Group 15819">
                <path id="Path_43822" data-name="Path 43822" d="M8.516,51.359H8.437a1.427,1.427,0,0,1-1.422-1.422V47.719A1.427,1.427,0,0,1,8.437,46.3h.078a1.427,1.427,0,0,1,1.422,1.422v2.219A1.417,1.417,0,0,1,8.516,51.359Zm-.078-4.125a.487.487,0,0,0-.484.484v2.219a.487.487,0,0,0,.484.484h.078A.487.487,0,0,0,9,49.937V47.719a.487.487,0,0,0-.484-.484Z" fill="#e6eaff"/>
              </g>
              <g id="Group_15820" data-name="Group 15820">
                <path id="Path_43823" data-name="Path 43823" d="M12.312,51.359h-.078a1.427,1.427,0,0,1-1.422-1.422V47.719A1.427,1.427,0,0,1,12.234,46.3h.078a1.427,1.427,0,0,1,1.422,1.422v2.219A1.417,1.417,0,0,1,12.312,51.359Zm-.078-4.125a.487.487,0,0,0-.484.484v2.219a.487.487,0,0,0,.484.484h.078a.487.487,0,0,0,.484-.484V47.719a.487.487,0,0,0-.484-.484Z" fill="#e6eaff"/>
              </g>
              <g id="Group_15821" data-name="Group 15821">
                <path id="Path_43824" data-name="Path 43824" d="M16.109,51.359h-.078a1.427,1.427,0,0,1-1.422-1.422V47.719A1.427,1.427,0,0,1,16.031,46.3h.078a1.427,1.427,0,0,1,1.422,1.422v2.219A1.427,1.427,0,0,1,16.109,51.359Zm-.078-4.125a.487.487,0,0,0-.484.484v2.219a.487.487,0,0,0,.484.484h.078a.487.487,0,0,0,.484-.484V47.719a.487.487,0,0,0-.484-.484Z" fill="#e6eaff"/>
              </g>
              <g id="Group_15822" data-name="Group 15822">
                <path id="Path_43825" data-name="Path 43825" d="M19.906,51.359h-.078a1.427,1.427,0,0,1-1.422-1.422V47.719A1.427,1.427,0,0,1,19.828,46.3h.078a1.427,1.427,0,0,1,1.422,1.422v2.219A1.427,1.427,0,0,1,19.906,51.359Zm-.078-4.125a.487.487,0,0,0-.484.484v2.219a.487.487,0,0,0,.484.484h.078a.487.487,0,0,0,.484-.484V47.719a.487.487,0,0,0-.484-.484Z" fill="#e6eaff"/>
              </g>
            </g>
            <g id="Group_15828" data-name="Group 15828">
              <g id="Group_15824" data-name="Group 15824">
                <path id="Path_43826" data-name="Path 43826" d="M25.734,51.359h-.078a1.427,1.427,0,0,1-1.422-1.422V47.719A1.427,1.427,0,0,1,25.656,46.3h.078a1.427,1.427,0,0,1,1.422,1.422v2.219A1.427,1.427,0,0,1,25.734,51.359Zm-.078-4.125a.487.487,0,0,0-.484.484v2.219a.487.487,0,0,0,.484.484h.078a.487.487,0,0,0,.484-.484V47.719a.487.487,0,0,0-.484-.484Z" fill="#e6eaff"/>
              </g>
              <g id="Group_15825" data-name="Group 15825">
                <path id="Path_43827" data-name="Path 43827" d="M29.531,51.359h-.078a1.427,1.427,0,0,1-1.422-1.422V47.719A1.427,1.427,0,0,1,29.453,46.3h.078a1.427,1.427,0,0,1,1.422,1.422v2.219A1.427,1.427,0,0,1,29.531,51.359Zm-.078-4.125a.487.487,0,0,0-.484.484v2.219a.487.487,0,0,0,.484.484h.078a.487.487,0,0,0,.484-.484V47.719a.487.487,0,0,0-.484-.484Z" fill="#e6eaff"/>
              </g>
              <g id="Group_15826" data-name="Group 15826">
                <path id="Path_43828" data-name="Path 43828" d="M33.328,51.359H33.25a1.427,1.427,0,0,1-1.422-1.422V47.719A1.427,1.427,0,0,1,33.25,46.3h.078a1.427,1.427,0,0,1,1.422,1.422v2.219A1.427,1.427,0,0,1,33.328,51.359Zm-.078-4.125a.487.487,0,0,0-.484.484v2.219a.487.487,0,0,0,.484.484h.078a.487.487,0,0,0,.484-.484V47.719a.487.487,0,0,0-.484-.484Z" fill="#e6eaff"/>
              </g>
              <g id="Group_15827" data-name="Group 15827">
                <path id="Path_43829" data-name="Path 43829" d="M37.125,51.359h-.078a1.427,1.427,0,0,1-1.422-1.422V47.719A1.427,1.427,0,0,1,37.047,46.3h.078a1.427,1.427,0,0,1,1.422,1.422v2.219A1.427,1.427,0,0,1,37.125,51.359Zm-.078-4.125a.487.487,0,0,0-.484.484v2.219a.487.487,0,0,0,.484.484h.078a.487.487,0,0,0,.484-.484V47.719a.487.487,0,0,0-.484-.484Z" fill="#e6eaff"/>
              </g>
            </g>
            <g id="Group_15833" data-name="Group 15833">
              <g id="Group_15829" data-name="Group 15829">
                <path id="Path_43830" data-name="Path 43830" d="M42.953,51.359h-.078a1.427,1.427,0,0,1-1.422-1.422V47.719A1.427,1.427,0,0,1,42.875,46.3h.078a1.427,1.427,0,0,1,1.422,1.422v2.219A1.427,1.427,0,0,1,42.953,51.359Zm-.078-4.125a.487.487,0,0,0-.484.484v2.219a.487.487,0,0,0,.484.484h.078a.487.487,0,0,0,.484-.484V47.719a.487.487,0,0,0-.484-.484Z" fill="#cad4ff"/>
              </g>
              <g id="Group_15830" data-name="Group 15830">
                <path id="Path_43831" data-name="Path 43831" d="M46.75,51.359h-.078a1.427,1.427,0,0,1-1.422-1.422V47.719A1.427,1.427,0,0,1,46.672,46.3h.078a1.427,1.427,0,0,1,1.422,1.422v2.219A1.427,1.427,0,0,1,46.75,51.359Zm-.078-4.125a.487.487,0,0,0-.484.484v2.219a.487.487,0,0,0,.484.484h.078a.487.487,0,0,0,.484-.484V47.719a.487.487,0,0,0-.484-.484Z" fill="#cad4ff"/>
              </g>
              <g id="Group_15831" data-name="Group 15831">
                <path id="Path_43832" data-name="Path 43832" d="M50.547,51.359h-.078a1.427,1.427,0,0,1-1.422-1.422V47.719A1.427,1.427,0,0,1,50.469,46.3h.078a1.427,1.427,0,0,1,1.422,1.422v2.219A1.427,1.427,0,0,1,50.547,51.359Zm-.078-4.125a.487.487,0,0,0-.484.484v2.219a.487.487,0,0,0,.484.484h.078a.487.487,0,0,0,.484-.484V47.719a.487.487,0,0,0-.484-.484Z" fill="#cad4ff"/>
              </g>
              <g id="Group_15832" data-name="Group 15832">
                <path id="Path_43833" data-name="Path 43833" d="M54.344,51.359h-.078a1.427,1.427,0,0,1-1.422-1.422V47.719A1.427,1.427,0,0,1,54.266,46.3h.078a1.427,1.427,0,0,1,1.422,1.422v2.219A1.427,1.427,0,0,1,54.344,51.359Zm-.078-4.125a.487.487,0,0,0-.484.484v2.219a.487.487,0,0,0,.484.484h.078a.487.487,0,0,0,.484-.484V47.719a.487.487,0,0,0-.484-.484Z" fill="#cad4ff"/>
              </g>
            </g>
            <g id="Group_15838" data-name="Group 15838">
              <g id="Group_15834" data-name="Group 15834">
                <path id="Path_43834" data-name="Path 43834" d="M60.172,51.359h-.078a1.427,1.427,0,0,1-1.422-1.422V47.719A1.427,1.427,0,0,1,60.094,46.3h.078a1.427,1.427,0,0,1,1.422,1.422v2.219A1.427,1.427,0,0,1,60.172,51.359Zm-.078-4.125a.487.487,0,0,0-.484.484v2.219a.487.487,0,0,0,.484.484h.078a.487.487,0,0,0,.484-.484V47.719a.487.487,0,0,0-.484-.484Z" fill="#cad4ff"/>
              </g>
              <g id="Group_15835" data-name="Group 15835">
                <path id="Path_43835" data-name="Path 43835" d="M63.969,51.359h-.078a1.427,1.427,0,0,1-1.422-1.422V47.719A1.427,1.427,0,0,1,63.891,46.3h.078a1.427,1.427,0,0,1,1.422,1.422v2.219A1.427,1.427,0,0,1,63.969,51.359Zm-.078-4.125a.487.487,0,0,0-.484.484v2.219a.487.487,0,0,0,.484.484h.078a.487.487,0,0,0,.484-.484V47.719a.487.487,0,0,0-.484-.484Z" fill="#cad4ff"/>
              </g>
              <g id="Group_15836" data-name="Group 15836">
                <path id="Path_43836" data-name="Path 43836" d="M67.766,51.359h-.078a1.427,1.427,0,0,1-1.422-1.422V47.719A1.427,1.427,0,0,1,67.687,46.3h.078a1.427,1.427,0,0,1,1.422,1.422v2.219A1.427,1.427,0,0,1,67.766,51.359Zm-.078-4.125a.487.487,0,0,0-.484.484v2.219a.487.487,0,0,0,.484.484h.078a.487.487,0,0,0,.484-.484V47.719a.487.487,0,0,0-.484-.484Z" fill="#cad4ff"/>
              </g>
              <g id="Group_15837" data-name="Group 15837">
                <path id="Path_43837" data-name="Path 43837" d="M71.562,51.359h-.078a1.427,1.427,0,0,1-1.422-1.422V47.719A1.427,1.427,0,0,1,71.484,46.3h.078a1.427,1.427,0,0,1,1.422,1.422v2.219A1.427,1.427,0,0,1,71.562,51.359Zm-.078-4.125a.487.487,0,0,0-.484.484v2.219a.487.487,0,0,0,.484.484h.078a.487.487,0,0,0,.484-.484V47.719a.487.487,0,0,0-.484-.484Z" fill="#cad4ff"/>
              </g>
            </g>
          </g>
        </g>
      </g>
    </g>
  </g>
</svg>
