<svg xmlns="http://www.w3.org/2000/svg" xmlns:xlink="http://www.w3.org/1999/xlink" width="24" height="24" viewBox="0 0 24 24">
  <defs>
    <clipPath id="clip-path">
      <rect id="Rectangle_4932" data-name="Rectangle 4932" width="24" height="24" transform="translate(302 663)" fill="#d34b27" stroke="#707070" stroke-width="1"/>
    </clipPath>
  </defs>
  <g id="Mask_Group_187" data-name="Mask Group 187" transform="translate(-302 -663)" clip-path="url(#clip-path)">
    <g id="email" transform="translate(302 663)">
      <path id="Path_22228" data-name="Path 22228" d="M13.466,7.839a.351.351,0,0,0-.35-.353h0a.352.352,0,0,0-.351.35v.177a1.438,1.438,0,0,0-.889-.3,1.79,1.79,0,0,0-1.687,1.918,1.844,1.844,0,0,0,1.653,1.985,1.445,1.445,0,0,0,1.033-.448,1.157,1.157,0,0,0,.216.3,1,1,0,0,0,.711.306,1.554,1.554,0,0,0,1.438-1.024,3.174,3.174,0,0,0,.178-2.1l0-.011a3.542,3.542,0,1,0-5.57,3.816,3.571,3.571,0,0,0,2.081.749h.01a.352.352,0,0,0,.01-.7,2.857,2.857,0,0,1-2.668-2.12,2.839,2.839,0,0,1,5.463-1.546,2.606,2.606,0,0,1-.153,1.655.853.853,0,0,1-.785.581.311.311,0,0,1-.213-.1.484.484,0,0,1-.135-.338Zm-1.627,3.074c-.457,0-.95-.49-.95-1.282a1.1,1.1,0,0,1,.984-1.215c.506,0,.862.47.881,1.149v.129c-.027.679-.427,1.22-.914,1.22Z" fill="#d34b27"/>
      <path id="Path_22229" data-name="Path 22229" d="M22.659,22.493h0V10.5a1.532,1.532,0,0,0-.453-1.083h0l0,0L20.821,8.056V7.263a.352.352,0,0,0-.7,0V11l-6.388,6.376-1-.552a1.5,1.5,0,0,0-1.452,0l-1,.552L3.882,11V4.933a.821.821,0,0,1,.82-.82H19.3a.821.821,0,0,1,.82.82v.834a.352.352,0,0,0,.7,0V4.933A1.525,1.525,0,0,0,19.3,3.41H16.087L13.022.4l-.01-.01a1.5,1.5,0,0,0-2.025,0l-.01.01L7.913,3.41H4.7A1.525,1.525,0,0,0,3.179,4.933V8.056L1.8,9.412l0,0h0v0A1.533,1.533,0,0,0,1.341,10.5v4.012a.352.352,0,1,0,.7,0V10.5a.818.818,0,0,1,.053-.286L3.282,11.4l6.346,6.334L2.044,21.9V16.043a.352.352,0,1,0-.7,0v6.449h0s0,0,0,.006A1.509,1.509,0,0,0,2.848,24H15.827a.352.352,0,0,0,0-.7H2.848a.805.805,0,0,1-.78-.61l8.308-4.566,1.236-.679a.8.8,0,0,1,.775,0l1.236.679,8.308,4.566a.805.805,0,0,1-.78.61H17.359a.352.352,0,0,0,0,.7h3.793a1.509,1.509,0,0,0,1.507-1.5s0,0,0-.006ZM11.465.909a.8.8,0,0,1,1.071,0l2.548,2.5H8.916ZM3.179,10.3l-.636-.635.636-.624Zm17.54,1.1L21.9,10.213a.818.818,0,0,1,.053.286V21.9l-7.584-4.167Zm.739-1.731-.636.635V9.041Z" fill="#d34b27"/>
    </g>
  </g>
</svg>
