<svg xmlns="http://www.w3.org/2000/svg" xmlns:xlink="http://www.w3.org/1999/xlink" width="20" height="20" viewBox="0 0 20 20">
  <defs>
    <clipPath id="clip-path">
      <rect id="Rectangle_2348" data-name="Rectangle 2348" width="20" height="20" transform="translate(36 336)" fill="#404040" stroke="#707070" stroke-width="1"/>
    </clipPath>
  </defs>
  <g id="Mask_Group_189" data-name="Mask Group 189" transform="translate(-36 -336)" clip-path="url(#clip-path)">
    <g id="Delivery_Food_Order" data-name="Delivery Food Order" transform="translate(39.542 336)">
      <path id="Path_43061" data-name="Path 43061" d="M16.667,13.75V2.083A2.083,2.083,0,0,0,14.583,0h-7.5A2.083,2.083,0,0,0,5,2.083v15a2.083,2.083,0,0,0,2.083,2.083H9.7l.858.733a.417.417,0,1,0,.542-.633l-2.5-2.15a.375.375,0,0,1,.367-.637l1.729.6a.421.421,0,0,0,.55-.417V11.25a.417.417,0,1,1,.833,0v4.583a.417.417,0,1,0,.833,0V14.167a.417.417,0,1,1,.833,0v1.667a.417.417,0,0,0,.833,0v-1.25a.417.417,0,0,1,.833,0v1.25a.417.417,0,0,0,.833,0V15a.417.417,0,1,1,.833,0v4.583a.417.417,0,1,0,.833,0V15A1.25,1.25,0,0,0,16.667,13.75ZM12.917.833V1.25a.417.417,0,0,1-.417.417H9.167A.417.417,0,0,1,8.75,1.25V.833ZM11.667,10a1.25,1.25,0,0,0-1.175.833H7.917v-.417a2.917,2.917,0,0,1,5.833,0v.417h-.908A1.25,1.25,0,0,0,11.667,10ZM15,13.333a1.225,1.225,0,0,0-.612.167,1.25,1.25,0,0,0-1.471-.508V11.667h1.667a.417.417,0,0,0,0-.833v-.417A3.75,3.75,0,0,0,11.25,6.692V6.25a.417.417,0,0,0-.833,0v.442a3.75,3.75,0,0,0-3.333,3.725v.417a.417.417,0,0,0,0,.833h3.333v4.421l-1.2-.417a1.208,1.208,0,0,0-1.175,2.058l.708.6H7.083a1.25,1.25,0,0,1-1.25-1.25v-15A1.25,1.25,0,0,1,7.083.833h.833V1.25A1.25,1.25,0,0,0,9.167,2.5H12.5a1.25,1.25,0,0,0,1.25-1.25V.833h.833a1.25,1.25,0,0,1,1.25,1.25V13.658A1.25,1.25,0,0,0,15,13.333Z" transform="translate(-5)" fill="#404040"/>
    </g>
  </g>
</svg>
