<svg xmlns="http://www.w3.org/2000/svg" xmlns:xlink="http://www.w3.org/1999/xlink" width="24" height="24" viewBox="0 0 24 24">
  <defs>
    <clipPath id="clip-path">
      <rect id="Rectangle_2348" data-name="Rectangle 2348" width="24" height="24" transform="translate(36 336)" fill="#a8a8a8" stroke="#707070" stroke-width="1"/>
    </clipPath>
  </defs>
  <g id="Mask_Group_189" data-name="Mask Group 189" transform="translate(-36 -336)" clip-path="url(#clip-path)">
    <g id="Delivery_Food_Order" data-name="Delivery Food Order" transform="translate(35.25 336)">
      <path id="Path_43061" data-name="Path 43061" d="M19,16.5V2.5A2.5,2.5,0,0,0,16.5,0h-9A2.5,2.5,0,0,0,5,2.5v18A2.5,2.5,0,0,0,7.5,23h3.145l1.03.88a.5.5,0,0,0,.65-.76l-3-2.58a.45.45,0,0,1,.44-.765l2.075.725a.5.5,0,0,0,.66-.5V13.5a.5.5,0,1,1,1,0V19a.5.5,0,1,0,1,0V17a.5.5,0,1,1,1,0v2a.5.5,0,1,0,1,0V17.5a.5.5,0,0,1,1,0V19a.5.5,0,0,0,1,0V18a.5.5,0,1,1,1,0v5.5a.5.5,0,1,0,1,0V18A1.5,1.5,0,0,0,19,16.5ZM14.5,1v.5A.5.5,0,0,1,14,2H10a.5.5,0,0,1-.5-.5V1ZM13,12a1.5,1.5,0,0,0-1.41,1H8.5v-.5a3.5,3.5,0,0,1,7,0V13H14.41A1.5,1.5,0,0,0,13,12Zm4,4a1.47,1.47,0,0,0-.735.2,1.5,1.5,0,0,0-1.765-.61V14h2a.5.5,0,1,0,0-1v-.5a4.5,4.5,0,0,0-4-4.47V7.5a.5.5,0,0,0-1,0v.53a4.5,4.5,0,0,0-4,4.47V13a.5.5,0,0,0,0,1h4v5.3l-1.44-.5a1.45,1.45,0,0,0-1.41,2.47L9.5,22h-2A1.5,1.5,0,0,1,6,20.5V2.5A1.5,1.5,0,0,1,7.5,1h1v.5A1.5,1.5,0,0,0,10,3h4a1.5,1.5,0,0,0,1.5-1.5V1h1A1.5,1.5,0,0,1,18,2.5V16.39A1.5,1.5,0,0,0,17,16Z" fill="#a8a8a8"/>
    </g>
  </g>
</svg>
