<svg xmlns="http://www.w3.org/2000/svg" xmlns:xlink="http://www.w3.org/1999/xlink" width="40" height="40" viewBox="0 0 40 40">
  <defs>
    <clipPath id="clip-path">
      <rect id="Rectangle_19293" data-name="Rectangle 19293" width="40" height="40" transform="translate(28 26)" fill="#fff" stroke="#707070" stroke-width="1"/>
    </clipPath>
    <linearGradient id="linear-gradient" x1="-0.214" y1="-0.146" x2="-0.21" y2="-0.146" gradientUnits="objectBoundingBox">
      <stop offset="0" stop-color="#ffb541"/>
      <stop offset="1" stop-color="#f59500"/>
    </linearGradient>
    <linearGradient id="linear-gradient-2" x1="-1.437" y1="-0.275" x2="-1.429" y2="-0.275" gradientUnits="objectBoundingBox">
      <stop offset="0" stop-color="#ffd952"/>
      <stop offset="1" stop-color="#ffa501"/>
    </linearGradient>
    <linearGradient id="linear-gradient-3" x1="-0.437" y1="-0.275" x2="-0.429" y2="-0.275" gradientUnits="objectBoundingBox">
      <stop offset="0" stop-color="#ffdf6c"/>
      <stop offset="1" stop-color="#ffa501"/>
    </linearGradient>
    <linearGradient id="linear-gradient-4" x1="-0.662" y1="-1.543" x2="-0.655" y2="-1.543" gradientUnits="objectBoundingBox">
      <stop offset="0" stop-color="#ffa841"/>
      <stop offset="1" stop-color="#f27b00"/>
    </linearGradient>
  </defs>
  <g id="Mask_Group_15630" data-name="Mask Group 15630" transform="translate(-28 -26)" clip-path="url(#clip-path)">
    <g id="Exp-4.-S" transform="translate(25.739 23.738)">
      <g id="Group_17589" data-name="Group 17589">
        <path id="Path_46215" data-name="Path 46215" d="M20.368,5.539a2.113,2.113,0,0,1,3.785,0l3.686,7.426,8.2,1.21a2.113,2.113,0,0,1,1.17,3.6l-5.924,5.8L32.67,31.75a2.113,2.113,0,0,1-3.062,2.225l-7.347-3.842-7.347,3.842a2.113,2.113,0,0,1-3.062-2.225l1.383-8.175-5.924-5.8a2.113,2.113,0,0,1,1.17-3.6l8.2-1.21Z" fill-rule="evenodd" fill="url(#linear-gradient)"/>
        <path id="Path_46216" data-name="Path 46216" d="M22.261,4.481a2.113,2.113,0,0,1,1.893,1.174l3.686,7.426,8.2,1.21a2.113,2.113,0,0,1,1.7,1.437l.012.037L22.261,20.759Z" fill-rule="evenodd" fill="url(#linear-gradient-2)"/>
        <path id="Path_46217" data-name="Path 46217" d="M22.261,20.759,6.768,15.765l.012-.037a2.113,2.113,0,0,1,1.7-1.437l8.2-1.21,3.686-7.426a2.113,2.113,0,0,1,1.893-1.174Z" fill-rule="evenodd" fill="url(#linear-gradient-3)"/>
        <path id="Path_46218" data-name="Path 46218" d="M31.841,33.771l-.059.044a2.128,2.128,0,0,1-2.221.162l-7.347-3.809-7.347,3.809a2.128,2.128,0,0,1-2.187-.138l9.534-13.08Z" fill-rule="evenodd" fill="url(#linear-gradient-4)"/>
        <g id="Group_17588" data-name="Group 17588">
          <path id="Path_46219" data-name="Path 46219" d="M21.739,33.874V40.99a.522.522,0,1,0,1.043,0V33.874a.522.522,0,0,0-1.043,0Z" fill="#f89800" fill-rule="evenodd"/>
          <path id="Path_46220" data-name="Path 46220" d="M34.842,25.018l6.726,2.326a.522.522,0,1,0,.341-.986l-6.726-2.326a.522.522,0,0,0-.341.986Z" fill="#f89800" fill-rule="evenodd"/>
          <path id="Path_46221" data-name="Path 46221" d="M9.338,24.032,2.612,26.358a.522.522,0,1,0,.341.986l6.726-2.326a.522.522,0,0,0-.341-.986Z" fill="#f89800" fill-rule="evenodd"/>
          <path id="Path_46222" data-name="Path 46222" d="M31.157,9.69l4.034-5.863a.522.522,0,1,0-.86-.591L30.3,9.1a.522.522,0,0,0,.86.591Z" fill="#f89800" fill-rule="evenodd"/>
          <path id="Path_46223" data-name="Path 46223" d="M14.736,9.059,10.16,3.608a.522.522,0,1,0-.8.671L13.937,9.73a.522.522,0,0,0,.8-.671Z" fill="#f89800" fill-rule="evenodd"/>
        </g>
      </g>
    </g>
  </g>
</svg>
