<svg xmlns="http://www.w3.org/2000/svg" xmlns:xlink="http://www.w3.org/1999/xlink" width="160" height="160" viewBox="0 0 160 160">
  <defs>
    <clipPath id="clip-path">
      <rect id="Rectangle_5220" data-name="Rectangle 5220" width="160" height="160" transform="translate(922 229)" fill="#fff" stroke="#707070" stroke-width="1"/>
    </clipPath>
  </defs>
  <g id="Mask_Group_14744" data-name="Mask Group 14744" transform="translate(-922 -229)" clip-path="url(#clip-path)">
    <g id="packaging" transform="translate(922 229.826)">
      <g id="Group_15244" data-name="Group 15244">
        <g id="Group_15221" data-name="Group 15221">
          <g id="Group_15217" data-name="Group 15217" transform="translate(0 18.868)">
            <g id="Group_15216" data-name="Group 15216">
              <g id="Group_15214" data-name="Group 15214" transform="translate(25.335 37.511)">
                <g id="Group_15213" data-name="Group 15213">
                  <path id="Path_43489" data-name="Path 43489" d="M126.157,150.5H26.776a4.905,4.905,0,0,1-4.905-4.905V48.668H131.063V145.6A4.906,4.906,0,0,1,126.157,150.5Z" transform="translate(-21.871 -48.668)" fill="#ffaf40"/>
                  <path id="Path_43490" data-name="Path 43490" d="M76.209,63.324H35.974a6.253,6.253,0,0,0,0,12.506H76.209a6.253,6.253,0,0,0,0-12.506Z" transform="translate(-20.627 -46.346)" fill="#ffc751"/>
                  <path id="Path_43491" data-name="Path 43491" d="M61.563,63.324H50.073a6.253,6.253,0,0,0,0,12.506H61.563a6.253,6.253,0,0,0,0-12.506Z" transform="translate(-18.393 -46.346)" fill="#ffe059"/>
                  <path id="Path_43492" data-name="Path 43492" d="M125.942,145.6a4.9,4.9,0,0,1-4.905,4.905H54.177A81.161,81.161,0,0,0,115.145,48.669h10.8Z" transform="translate(-16.752 -48.668)" fill="#ff993a"/>
                  <path id="Path_43493" data-name="Path 43493" d="M21.871,48.668H131.063V65.646H21.871Z" transform="translate(-21.871 -48.668)" fill="#e86300"/>
                  <g id="Group_15212" data-name="Group 15212" transform="translate(54.432 57.563)">
                    <path id="Path_43494" data-name="Path 43494" d="M107.7,131.072H73.763a4.905,4.905,0,0,1-4.905-4.905v-22.9a4.905,4.905,0,0,1,4.905-4.905H107.7a4.905,4.905,0,0,1,4.905,4.905v22.9A4.905,4.905,0,0,1,107.7,131.072Z" transform="translate(-68.858 -98.359)" fill="#f9f8f2"/>
                    <path id="Path_43495" data-name="Path 43495" d="M83.247,112.628V98.359H73.763a4.905,4.905,0,0,0-4.905,4.905v14.269h9.484A4.905,4.905,0,0,0,83.247,112.628Z" transform="translate(-68.858 -98.359)" fill="#5cceff"/>
                    <path id="Path_43496" data-name="Path 43496" d="M110.311,103.266v22.9a4.907,4.907,0,0,1-4.905,4.905h-22.1A28.958,28.958,0,0,0,103.395,98.36h2.011A4.9,4.9,0,0,1,110.311,103.266Z" transform="translate(-66.568 -98.358)" fill="#f1eee0"/>
                  </g>
                </g>
              </g>
              <path id="Path_43497" data-name="Path 43497" d="M120.751,48.668V65.646H86.957a47.242,47.242,0,0,0,24.084-16.978h9.71Z" transform="translate(13.776 -11.157)" fill="#d84d00"/>
              <path id="Path_43498" data-name="Path 43498" d="M100.469,111.453H90.811a4.423,4.423,0,1,1,0-8.846h9.658a4.423,4.423,0,1,1,0,8.846Z" transform="translate(13.686 -2.612)" fill="#27b2ff"/>
              <path id="Path_43499" data-name="Path 43499" d="M100.469,123.4H90.811a4.423,4.423,0,1,1,0-8.846h9.658a4.423,4.423,0,1,1,0,8.846Z" transform="translate(13.686 -0.719)" fill="#27b2ff"/>
              <path id="Path_43500" data-name="Path 43500" d="M84.082,63.324V85.039a3.128,3.128,0,0,1-3.129,3.129H60.676a3.128,3.128,0,0,1-3.129-3.129V63.324Z" transform="translate(9.117 -8.835)" fill="#fe255f"/>
              <path id="Path_43501" data-name="Path 43501" d="M78.052,69.579A6.252,6.252,0,0,1,71.8,75.83H57.547V63.324H71.8a6.25,6.25,0,0,1,6.252,6.255Z" transform="translate(9.117 -8.835)" fill="#fc709b"/>
              <path id="Path_43502" data-name="Path 43502" d="M65.642,69.577a6.253,6.253,0,0,1-6.253,6.253H57.547V63.324h1.842A6.253,6.253,0,0,1,65.642,69.577Z" transform="translate(9.117 -8.835)" fill="#f7a6c1"/>
              <g id="Group_15215" data-name="Group 15215">
                <path id="Path_43503" data-name="Path 43503" d="M129.582,17.747,106.619,53.81l11.017,16.978,24.356-38.251a6.258,6.258,0,0,0-.606-7.524l-6.829-7.666a3.129,3.129,0,0,0-4.976.4Z" transform="translate(16.891 -16.285)" fill="#ffaf40"/>
                <path id="Path_43504" data-name="Path 43504" d="M13.39,17.736,36.353,53.8,25.336,70.776.979,32.525A6.258,6.258,0,0,1,1.585,25l6.829-7.666a3.129,3.129,0,0,1,4.976.4Z" transform="translate(0 -16.287)" fill="#ffaf40"/>
              </g>
            </g>
            <path id="Path_43505" data-name="Path 43505" d="M141.8,31.583,117.444,69.834l-9.611-14.809a44.939,44.939,0,0,0,31.81-32.706l1.549,1.739A6.255,6.255,0,0,1,141.8,31.583Z" transform="translate(17.084 -15.332)" fill="#ff993a"/>
            <path id="Path_43506" data-name="Path 43506" d="M33.42,51.606,22.4,68.585l-3.887-6.107A41.685,41.685,0,0,0,22.4,44.84a41.733,41.733,0,0,0-2.66-14.712Z" transform="translate(2.933 -14.095)" fill="#ff993a"/>
            <path id="Path_43507" data-name="Path 43507" d="M20.726,43.559,13.055,31.774a4.942,4.942,0,0,0-7.028-1.315l-.081.058a4.942,4.942,0,0,0-1.282,6.665l7.55,11.858a5.009,5.009,0,0,0,7.279,1.281l.09-.07a5,5,0,0,0,1.143-6.692Z" transform="translate(0.616 -14.189)" fill="#ffc751"/>
          </g>
          <g id="Group_15220" data-name="Group 15220">
            <path id="Path_43508" data-name="Path 43508" d="M102.43,16.11H89.059a3.61,3.61,0,0,0-3.61,3.61V22.6H54.112a3.61,3.61,0,0,0-3.389,4.854L56.758,43.9a3.61,3.61,0,0,0,3.389,2.367h25.3v3.146H58.772a3.61,3.61,0,1,0,0,7.221H89.059a3.61,3.61,0,0,0,3.61-3.61V23.33h9.76a3.61,3.61,0,0,0,0-7.221ZM59.283,29.819H85.449v9.229H62.669Z" transform="translate(8.001 2.552)" fill="#008cff"/>
            <path id="Path_43509" data-name="Path 43509" d="M78.457,21.711H59.56a3.61,3.61,0,1,0,0,7.221h18.9a3.61,3.61,0,0,0,0-7.221Z" transform="translate(8.864 3.44)" fill="#27b2ff"/>
            <path id="Path_43510" data-name="Path 43510" d="M70.231,21.711H63.5a3.61,3.61,0,0,0,0,7.221h6.736a3.61,3.61,0,0,0,0-7.221Z" transform="translate(9.488 3.44)" fill="#5cceff"/>
            <path id="Path_43511" data-name="Path 43511" d="M77.634,35.91H64.755a3.61,3.61,0,0,0,0,7.221H77.634a3.61,3.61,0,0,0,0-7.221Z" transform="translate(9.687 5.689)" fill="#27b2ff"/>
            <g id="Group_15219" data-name="Group 15219" transform="translate(67.533 61.341)">
              <g id="Group_15218" data-name="Group 15218">
                <circle id="Ellipse_553" data-name="Ellipse 553" cx="4.229" cy="4.229" r="4.229" fill="#27b2ff"/>
                <circle id="Ellipse_554" data-name="Ellipse 554" cx="2.911" cy="2.911" r="2.911" transform="translate(0.388 0.368)" fill="#5cceff"/>
                <circle id="Ellipse_555" data-name="Ellipse 555" cx="4.229" cy="4.229" r="4.229" transform="translate(21.07)" fill="#27b2ff"/>
              </g>
              <circle id="Ellipse_556" data-name="Ellipse 556" cx="2.911" cy="2.911" r="2.911" transform="translate(21.475 0.368)" fill="#5cceff"/>
            </g>
            <path id="Path_43512" data-name="Path 43512" fill="#27b2ff"/>
            <path id="Path_43513" data-name="Path 43513" d="M52.836,35.446A4.825,4.825,0,0,1,49.714,34.3l-8.455-7.173A4.825,4.825,0,1,1,47.5,19.769l4.7,3.991L68.976,3.2a4.825,4.825,0,0,1,7.478,6.1L56.574,33.671a4.825,4.825,0,0,1-3.3,1.755Q53.056,35.446,52.836,35.446Z" transform="translate(6.267 0.226)" fill="#29e088"/>
            <path id="Path_43514" data-name="Path 43514" d="M61.88,8.348l-7.146,8.76a4.825,4.825,0,0,0,7.477,6.1l7.146-8.76a4.825,4.825,0,0,0-7.477-6.1Z" transform="translate(8.499 1.041)" fill="#79ff79"/>
          </g>
        </g>
        <g id="Group_15243" data-name="Group 15243" transform="translate(34.429 18.907)">
          <g id="Group_15228" data-name="Group 15228" transform="translate(70.796 18.727)">
            <g id="Group_15227" data-name="Group 15227">
              <g id="Group_15226" data-name="Group 15226">
                <g id="Group_15223" data-name="Group 15223">
                  <g id="Group_15222" data-name="Group 15222">
                    <path id="Path_43515" data-name="Path 43515" d="M116.892,46.941a1.439,1.439,0,0,0,0-2.4A41.025,41.025,0,0,1,105.4,33.131a1.462,1.462,0,0,0-2.423,0A40.754,40.754,0,0,1,97.8,39.4a40.95,40.95,0,0,1-6.319,5.134,1.439,1.439,0,0,0,0,2.4,41.025,41.025,0,0,1,11.493,11.405,1.462,1.462,0,0,0,2.423,0,41.025,41.025,0,0,1,11.493-11.405Z" transform="translate(-90.834 -32.487)" fill="#73e1ff"/>
                  </g>
                </g>
                <g id="Group_15225" data-name="Group 15225" transform="translate(6.189 6.907)">
                  <g id="Group_15224" data-name="Group 15224">
                    <path id="Path_43516" data-name="Path 43516" d="M116.046,46A41.029,41.029,0,0,0,104.552,57.4a1.462,1.462,0,0,1-2.422,0,40.765,40.765,0,0,0-5.174-6.271q-.384-.381-.779-.752.521.044,1.054.043A12.454,12.454,0,0,0,109.719,38.45l.007.007a40.941,40.941,0,0,0,6.319,5.135,1.439,1.439,0,0,1,0,2.4Z" transform="translate(-96.177 -38.45)" fill="#5cceff"/>
                  </g>
                </g>
              </g>
            </g>
          </g>
          <g id="Group_15235" data-name="Group 15235" transform="translate(86.841)">
            <g id="Group_15234" data-name="Group 15234">
              <g id="Group_15233" data-name="Group 15233">
                <g id="Group_15230" data-name="Group 15230">
                  <g id="Group_15229" data-name="Group 15229">
                    <path id="Path_43517" data-name="Path 43517" d="M118.439,23.95a.759.759,0,0,0,0-1.269,21.65,21.65,0,0,1-6.066-6.02.772.772,0,0,0-1.279,0,21.5,21.5,0,0,1-2.731,3.31,21.613,21.613,0,0,1-3.335,2.71.759.759,0,0,0,0,1.269,21.65,21.65,0,0,1,6.066,6.02.772.772,0,0,0,1.279,0,21.65,21.65,0,0,1,6.066-6.02Z" transform="translate(-104.686 -16.321)" fill="#5cceff"/>
                  </g>
                </g>
                <g id="Group_15232" data-name="Group 15232" transform="translate(3.267 3.646)">
                  <g id="Group_15231" data-name="Group 15231">
                    <path id="Path_43518" data-name="Path 43518" d="M117.992,23.451a21.657,21.657,0,0,0-6.066,6.02.772.772,0,0,1-1.279,0,21.508,21.508,0,0,0-2.731-3.31q-.2-.2-.412-.4.275.023.556.023a6.574,6.574,0,0,0,6.592-6.319l0,0a21.626,21.626,0,0,0,3.335,2.71A.759.759,0,0,1,117.992,23.451Z" transform="translate(-107.506 -19.469)" fill="#27b2ff"/>
                  </g>
                </g>
              </g>
            </g>
          </g>
          <g id="Group_15242" data-name="Group 15242" transform="translate(0 15.081)">
            <g id="Group_15241" data-name="Group 15241">
              <g id="Group_15240" data-name="Group 15240">
                <g id="Group_15237" data-name="Group 15237">
                  <g id="Group_15236" data-name="Group 15236">
                    <path id="Path_43519" data-name="Path 43519" d="M43.474,36.969a.759.759,0,0,0,0-1.269,21.65,21.65,0,0,1-6.066-6.02.772.772,0,0,0-1.279,0,21.649,21.649,0,0,1-6.066,6.02.759.759,0,0,0,0,1.269,21.649,21.649,0,0,1,6.066,6.02.772.772,0,0,0,1.279,0,21.65,21.65,0,0,1,6.066-6.02Z" transform="translate(-29.721 -29.34)" fill="#79ff79"/>
                  </g>
                </g>
                <g id="Group_15239" data-name="Group 15239" transform="translate(3.267 3.646)">
                  <g id="Group_15238" data-name="Group 15238">
                    <path id="Path_43520" data-name="Path 43520" d="M43.028,36.47a21.656,21.656,0,0,0-6.066,6.02.772.772,0,0,1-1.279,0,21.509,21.509,0,0,0-2.731-3.31q-.2-.2-.411-.4.275.023.556.023a6.574,6.574,0,0,0,6.592-6.319l0,0a21.626,21.626,0,0,0,3.335,2.71.759.759,0,0,1,0,1.269Z" transform="translate(-32.541 -32.487)" fill="#29e088"/>
                  </g>
                </g>
              </g>
            </g>
          </g>
        </g>
      </g>
      <g id="Group_15245" data-name="Group 15245" transform="translate(103.197 118.863)">
        <path id="Path_43521" data-name="Path 43521" d="M95.358,111.453H93.506a4.423,4.423,0,1,1,0-8.846h1.852a4.423,4.423,0,1,1,0,8.846Z" transform="translate(-89.083 -102.607)" fill="#5cceff"/>
        <path id="Path_43522" data-name="Path 43522" d="M95.358,123.4H93.506a4.423,4.423,0,1,1,0-8.846h1.852a4.423,4.423,0,1,1,0,8.846Z" transform="translate(-89.083 -100.715)" fill="#5cceff"/>
      </g>
    </g>
  </g>
</svg>
