<svg xmlns="http://www.w3.org/2000/svg" xmlns:xlink="http://www.w3.org/1999/xlink" width="24" height="24" viewBox="0 0 24 24">
  <defs>
    <clipPath id="clip-path">
      <rect id="Rectangle_4922" data-name="Rectangle 4922" width="24" height="24" transform="translate(36 658)" fill="#d34b27" stroke="#707070" stroke-width="1"/>
    </clipPath>
  </defs>
  <g id="Mask_Group_14714" data-name="Mask Group 14714" transform="translate(-36 -658)" clip-path="url(#clip-path)">
    <g id="help" transform="translate(33.23 655.221)">
      <g id="LWPOLYLINE">
        <g id="Group_14946" data-name="Group 14946">
          <path id="Path_43366" data-name="Path 43366" d="M14.458,17.959H14.45a.923.923,0,0,1-.915-.932l0-.462a.762.762,0,0,1,0-.079,4.42,4.42,0,0,1,1.736-2.827c.243-.224.473-.436.668-.657a1.25,1.25,0,0,0,.221-1.485,2.04,2.04,0,0,0-2.241-.8,1.717,1.717,0,0,0-1.247,1.307.924.924,0,0,1-1.784-.478,3.5,3.5,0,0,1,2.619-2.629,3.842,3.842,0,0,1,4.273,1.717,3.082,3.082,0,0,1-.459,3.6,11.044,11.044,0,0,1-.8.789c-.662.612-1.076,1.021-1.147,1.611l0,.417a.922.922,0,0,1-.922.916Z" fill="#d34b27"/>
        </g>
      </g>
      <g id="POINT">
        <g id="Group_14947" data-name="Group 14947">
          <path id="Path_43367" data-name="Path 43367" d="M14.458,20.727a.93.93,0,0,1-.651-.268.919.919,0,0,1,0-1.306.955.955,0,0,1,1.3,0,.915.915,0,0,1,.272.651.914.914,0,0,1-.923.923Z" fill="#d34b27"/>
        </g>
      </g>
      <g id="CIRCLE_2_">
        <g id="Group_14948" data-name="Group 14948">
          <path id="Path_43368" data-name="Path 43368" d="M14.736,26.772a11.905,11.905,0,0,1-3.094-.407A12,12,0,0,1,7.407,5.294,12,12,0,0,1,22.128,24.256a12.091,12.091,0,0,1-7.391,2.517Zm.058-22.14a10.149,10.149,0,0,0-2.672,19.95,10.075,10.075,0,0,0,2.614.343h0A10.154,10.154,0,0,0,19.3,5.687a10.131,10.131,0,0,0-4.51-1.054Z" fill="#d34b27"/>
        </g>
      </g>
    </g>
  </g>
</svg>
