<svg xmlns="http://www.w3.org/2000/svg" xmlns:xlink="http://www.w3.org/1999/xlink" width="48" height="48" viewBox="0 0 48 48">
  <defs>
    <clipPath id="clip-path">
      <circle id="Oval" cx="24" cy="24" r="24" fill="#fff" stroke="#fff" stroke-width="1"/>
    </clipPath>
    <clipPath id="clip-path-2">
      <rect id="Rectangle_731" data-name="Rectangle 731" width="20" height="20" transform="translate(974 351)" fill="#124d57" stroke="#707070" stroke-width="1"/>
    </clipPath>
  </defs>
  <g id="Group_14643" data-name="Group 14643" transform="translate(-690 -114)">
    <g id="Oval-2" data-name="Oval" transform="translate(690 114)">
      <g id="Oval-3" data-name="Oval" fill="#fff" stroke="#e9e9f0" stroke-width="1">
        <circle cx="24" cy="24" r="24" stroke="none"/>
        <circle cx="24" cy="24" r="23.5" fill="none"/>
      </g>
    </g>
    <g id="Mask_Group_6" data-name="Mask Group 6" transform="translate(-270 -223)" clip-path="url(#clip-path-2)">
      <g id="payment" transform="translate(974 351)">
        <path id="Path_1631" data-name="Path 1631" d="M13.53,9.453A5.273,5.273,0,1,0,18.8,14.727,5.279,5.279,0,0,0,13.53,9.453Zm.781,5.43a.586.586,0,0,1-.586.586H11.953a.586.586,0,0,1,0-1.172h1.186V13.1a.586.586,0,0,1,1.172,0Z" fill="#124d57"/>
        <path id="Path_1632" data-name="Path 1632" d="M7.183,15.852c-.11.02.038.007-3.046.011a.586.586,0,0,1,0-1.172H7.084A6.428,6.428,0,0,1,7.2,13.523H4.139a.586.586,0,0,1,0-1.172h3.4a6.454,6.454,0,0,1,6.012-4.069V2.324A3.481,3.481,0,0,1,14.437,0H4.1A2.932,2.932,0,0,0,1.174,2.929V19.4a.586.586,0,0,0,1.009.405l.75-.783.792.792a.586.586,0,0,0,.829,0l.75-.75.758.752a.586.586,0,0,0,.825,0l.77-.763.77.763a.586.586,0,0,0,.825,0l.149-.148a6.448,6.448,0,0,1-2.218-3.82ZM6.025,7.067a.586.586,0,0,1,.811-.17,1.251,1.251,0,0,0,1.02.148.551.551,0,0,0,.315-.413c.039-.35-.432-.524-.755-.652a2.111,2.111,0,0,1-1.2-.879,1.473,1.473,0,0,1,.807-2.057V2.958a.586.586,0,0,1,1.172,0v.048a1.618,1.618,0,0,1,.663.357.586.586,0,1,1-.795.861.7.7,0,0,0-.693-.051.3.3,0,0,0-.129.36c.164.3.892.36,1.455.8A1.619,1.619,0,0,1,8.2,8.17v.12a.586.586,0,0,1-1.172,0V8.214a2.5,2.5,0,0,1-.831-.336A.586.586,0,0,1,6.025,7.067ZM4.141,10H7.07a.586.586,0,0,1,0,1.172H4.141a.586.586,0,0,1,0-1.172Z" fill="#124d57"/>
        <path id="Path_1633" data-name="Path 1633" d="M16.755,0a2.071,2.071,0,0,0-2.071,2.071v6.18H18.24a.586.586,0,0,0,.586-.586V2.071A2.071,2.071,0,0,0,16.755,0Z" fill="#124d57"/>
      </g>
    </g>
  </g>
</svg>
