<svg xmlns="http://www.w3.org/2000/svg" xmlns:xlink="http://www.w3.org/1999/xlink" width="24" height="24" viewBox="0 0 24 24">
  <defs>
    <clipPath id="clip-path">
      <rect id="Rectangle_4922" data-name="Rectangle 4922" width="24" height="24" transform="translate(36 792)" fill="#a8a8a8" stroke="#707070" stroke-width="1"/>
    </clipPath>
  </defs>
  <g id="Mask_Group_190" data-name="Mask Group 190" transform="translate(-36 -792)" clip-path="url(#clip-path)">
    <g id="Icon" transform="translate(34.605 790.605)">
      <path id="Path_43062" data-name="Path 43062" d="M3.628,11.721V24a.838.838,0,0,0,.837.837h17.86A.838.838,0,0,0,23.163,24V11.721a.837.837,0,1,0-1.674,0V23.163H5.3V11.721a.837.837,0,1,0-1.674,0Z" fill="#a8a8a8" fill-rule="evenodd"/>
      <path id="Path_43063" data-name="Path 43063" d="M11.163,15.907A1.955,1.955,0,0,0,9.209,17.86V24a.838.838,0,0,0,.837.837h6.7A.838.838,0,0,0,17.581,24V17.86a1.955,1.955,0,0,0-1.953-1.953Zm0,1.674h4.465a.278.278,0,0,1,.279.279v5.3H10.884v-5.3a.278.278,0,0,1,.279-.279Z" fill="#a8a8a8" fill-rule="evenodd"/>
      <path id="Path_43064" data-name="Path 43064" d="M24.558,23.163H2.233a.837.837,0,1,0,0,1.674H24.558a.837.837,0,1,0,0-1.674Z" fill="#a8a8a8" fill-rule="evenodd"/>
      <path id="Path_43065" data-name="Path 43065" d="M20.3,1.953H6.495A1.954,1.954,0,0,0,4.748,3.033c-.674,1.35-2.26,4.522-2.785,5.712a2.112,2.112,0,0,0-.028,1.784c.006.012.011.025.018.037a3.627,3.627,0,0,0,5.973.747,3.625,3.625,0,0,0,5.47,0,3.625,3.625,0,0,0,5.47,0A3.618,3.618,0,0,0,21.6,12.558a3.818,3.818,0,0,0,3.272-1.922c.016-.026.029-.054.042-.081a2.178,2.178,0,0,0-.042-1.863L22.043,3.033A1.954,1.954,0,0,0,20.3,1.953ZM6.495,3.628H20.3a.278.278,0,0,1,.249.154l2.83,5.66a.5.5,0,0,1,.026.39,2.133,2.133,0,0,1-1.8,1.053,1.955,1.955,0,0,1-1.914-1.562.837.837,0,0,0-1.641,0,1.954,1.954,0,0,1-3.829,0,.837.837,0,0,0-1.641,0,1.954,1.954,0,0,1-3.829,0,.837.837,0,0,0-1.641,0,1.954,1.954,0,0,1-3.645.515.443.443,0,0,1,.011-.367l.018-.037C4,8.267,5.577,5.119,6.246,3.782a.278.278,0,0,1,.249-.154Z" fill="#a8a8a8" fill-rule="evenodd"/>
    </g>
  </g>
</svg>
