<svg xmlns="http://www.w3.org/2000/svg" xmlns:xlink="http://www.w3.org/1999/xlink" width="24" height="24" viewBox="0 0 24 24">
  <defs>
    <clipPath id="clip-path">
      <rect id="Rectangle_3931" data-name="Rectangle 3931" width="24" height="24" transform="translate(1629 97)" fill="#404040" stroke="#707070" stroke-width="1"/>
    </clipPath>
  </defs>
  <g id="Mask_Group_129" data-name="Mask Group 129" transform="translate(-1629 -97)" clip-path="url(#clip-path)">
    <g id="sort_1_" data-name="sort (1)" transform="translate(1632.993 97)">
      <g id="Group_14206" data-name="Group 14206" transform="translate(0 0)">
        <g id="Group_14205" data-name="Group 14205">
          <path id="Path_9011" data-name="Path 9011" d="M21.358,4.286,17.365.292h0q-.035-.035-.073-.066L17.256.2,17.213.168,17.169.142l-.04-.024L17.084.1l-.043-.02L17,.06,16.948.043,16.9.031,16.854.019,16.8.011,16.757,0a1,1,0,0,0-.2,0l-.044.006-.053.008-.049.012-.045.012L16.321.06l-.045.016L16.233.1l-.045.022-.04.024L16.1.168,16.061.2l-.036.027q-.038.031-.073.066h0L11.959,4.286A1,1,0,0,0,13.371,5.7L15.66,3.409V14.975a1,1,0,1,0,2,0V3.409L19.946,5.7a1,1,0,1,0,1.412-1.412Z" transform="translate(-5.677 0)" fill="#404040"/>
          <path id="Path_9012" data-name="Path 9012" d="M12.946,19.609,10.657,21.9V10.332a1,1,0,1,0-2,0V21.9L6.371,19.609a1,1,0,0,0-1.412,1.412l3.993,3.993h0c.023.023.047.045.073.066l.036.027.043.031.044.026.04.024.045.022.043.02.045.016.047.017.045.012.049.012.053.008.044.006a1,1,0,0,0,.2,0L9.8,25.3l.053-.008.049-.012.045-.012L10,25.247l.045-.016.043-.02.045-.022.04-.024.044-.026.043-.031.036-.027c.025-.021.049-.042.072-.065h0l3.993-3.993a1,1,0,1,0-1.412-1.412Z" transform="translate(-4.667 -1.347)" fill="#404040"/>
        </g>
      </g>
    </g>
  </g>
</svg>
