<svg xmlns="http://www.w3.org/2000/svg" xmlns:xlink="http://www.w3.org/1999/xlink" width="160" height="160" viewBox="0 0 160 160">
  <defs>
    <clipPath id="clip-path">
      <rect id="Rectangle_5220" data-name="Rectangle 5220" width="160" height="160" transform="translate(1061 206)" fill="#fff" stroke="#707070" stroke-width="1"/>
    </clipPath>
  </defs>
  <g id="Mask_Group_14749" data-name="Mask Group 14749" transform="translate(-1061 -206)" clip-path="url(#clip-path)">
    <g id="employee" transform="translate(1061 206)">
      <path id="Path_43542" data-name="Path 43542" d="M79.8,5.223A20.709,20.709,0,0,0,59.1,25.931V34.3a6.6,6.6,0,0,1,5.275-1.723V31.549a1.411,1.411,0,0,1,1.512-1.407A37.075,37.075,0,0,0,88.2,24.149a1.41,1.41,0,0,1,1.8.22c5.267,5.662,5.235,5.443,5.235,6.182v2.026a6.264,6.264,0,0,1,5.274,1.543V25.932A20.708,20.708,0,0,0,79.8,5.223Z" fill="#707487"/>
      <path id="Path_43543" data-name="Path 43543" d="M65.608,25.932A20.712,20.712,0,0,1,83.061,5.479,20.713,20.713,0,0,0,59.1,25.931V34.3a6.6,6.6,0,0,1,5.275-1.723V31.549a1.412,1.412,0,0,1,1.237-1.4V25.932Z" fill="#5b5d6e"/>
      <path id="Path_43544" data-name="Path 43544" d="M95.212,31.827V43.216c0,.123-.007.245-.009.368a6,6,0,1,0,.009-11.757Z" fill="#f0a479"/>
      <path id="Path_43545" data-name="Path 43545" d="M100.523,33.391a6.287,6.287,0,0,0-5.311-1.563V43.216c0,.123-.007.245-.009.368a6.282,6.282,0,0,0,5.321-1.563Z" fill="#e59770"/>
      <path id="Path_43546" data-name="Path 43546" d="M64.417,43.229V31.817c-3.518-.47-7.2,2.23-7.2,5.889a6.056,6.056,0,0,0,7.2,5.893C64.423,43.476,64.417,43.353,64.417,43.229Z" fill="#f0a479"/>
      <path id="Path_43547" data-name="Path 43547" d="M64.417,41.459a5.907,5.907,0,0,1-1.336-3.753,5.542,5.542,0,0,1,1.336-3.579v-2.31c-3.518-.47-7.2,2.23-7.2,5.889a6.056,6.056,0,0,0,7.2,5.893c0-.123-.009-.246-.009-.369V41.459Z" fill="#e59770"/>
      <path id="Path_43548" data-name="Path 43548" d="M80.025,57.681a15.974,15.974,0,0,1-8.691-2.455V63.71l8.653,10.681L88.641,63.71V55A15.125,15.125,0,0,1,80.025,57.681Z" fill="#f0a479"/>
      <path id="Path_43549" data-name="Path 43549" d="M77.774,57.535a15.621,15.621,0,0,1-6.439-2.309V63.71l6.439,7.948Z" fill="#e59770"/>
      <path id="Path_43550" data-name="Path 43550" d="M111.533,71.849,88.641,62.983,79.988,73.664,71.335,62.983,48.467,71.849S40,75.329,40,84.981v37.865a2.821,2.821,0,0,0,2.821,2.821h74.357A2.821,2.821,0,0,0,120,122.847V84.981C120,75.329,111.533,71.849,111.533,71.849Z" fill="#e4eaf8"/>
      <path id="Path_43551" data-name="Path 43551" d="M46.439,122.847V81.762a14,14,0,0,1,5.4-11.221l-3.372,1.308S40,75.329,40,84.981v37.866a2.821,2.821,0,0,0,2.821,2.821H49.26A2.822,2.822,0,0,1,46.439,122.847Z" fill="#d8dce5"/>
      <path id="Path_43552" data-name="Path 43552" d="M90,23.642a1.41,1.41,0,0,0-1.8-.22,37.075,37.075,0,0,1-22.316,5.994,1.411,1.411,0,0,0-1.512,1.407V43.194a15.436,15.436,0,0,0,30.868,0V29.824C95.24,29.084,95.271,29.3,90,23.642Z" fill="#f0a479"/>
      <path id="Path_43553" data-name="Path 43553" d="M70.821,43.194V29.387a32.622,32.622,0,0,1-4.937.028,1.411,1.411,0,0,0-1.512,1.407V43.194A15.621,15.621,0,0,0,83.03,58.109,15.239,15.239,0,0,1,70.821,43.194Z" fill="#e59770"/>
      <g id="Group_15266" data-name="Group 15266">
        <path id="Path_43554" data-name="Path 43554" d="M90.436,79.153l6.471-12.968-8.266-3.2L79.988,73.664l8.437,5.992A1.365,1.365,0,0,0,90.436,79.153Z" fill="#d8dce5"/>
        <path id="Path_43555" data-name="Path 43555" d="M69.552,79.153,63.081,66.184l8.266-3.2L80,73.664l-8.437,5.992A1.365,1.365,0,0,1,69.552,79.153Z" fill="#d8dce5"/>
      </g>
      <path id="Path_43556" data-name="Path 43556" d="M88.789,115.192,83.235,82.325H76.753L71.2,115.192a1.43,1.43,0,0,0,.331,1.145h0l7.668,8.449a1.075,1.075,0,0,0,1.593,0l7.668-8.449h0A1.43,1.43,0,0,0,88.789,115.192Z" fill="#ff5050"/>
      <g id="Group_15267" data-name="Group 15267">
        <path id="Path_43557" data-name="Path 43557" d="M77.98,116.337a1.43,1.43,0,0,1-.331-1.145L83.2,82.325h-6.45L71.2,115.191a1.43,1.43,0,0,0,.331,1.145l7.668,8.448a1.075,1.075,0,0,0,1.593,0l2.428-2.676Z" fill="#ed3a3a"/>
        <path id="Path_43558" data-name="Path 43558" d="M80,73.672v-.007l-.005,0-.005,0v.007L73.853,78.03l2.9,4.366h6.482l2.9-4.366Z" fill="#ed3a3a"/>
      </g>
      <path id="Path_43559" data-name="Path 43559" d="M83.214,75.955,80,73.672v-.007l-.005,0-.005,0v.007L73.853,78.03l2.9,4.365h6.439L80.7,78.648A.765.765,0,0,1,80.9,77.6Z" fill="#db2a2a"/>
      <path id="Path_43560" data-name="Path 43560" d="M119.8,34.332A20.709,20.709,0,0,0,99.1,55.041v8.373a6.6,6.6,0,0,1,5.275-1.723V60.659a1.411,1.411,0,0,1,1.512-1.407A37.075,37.075,0,0,0,128.2,53.259a1.41,1.41,0,0,1,1.8.22c5.267,5.662,5.235,5.443,5.235,6.182v2.026a6.264,6.264,0,0,1,5.274,1.543V55.041A20.707,20.707,0,0,0,119.8,34.332Z" fill="#707487"/>
      <path id="Path_43561" data-name="Path 43561" d="M105.608,55.041a20.712,20.712,0,0,1,17.453-20.452A20.713,20.713,0,0,0,99.1,55.041v8.373a6.6,6.6,0,0,1,5.275-1.723V60.659a1.412,1.412,0,0,1,1.237-1.4Z" fill="#5b5d6e"/>
      <path id="Path_43562" data-name="Path 43562" d="M135.212,60.937V72.325c0,.123-.007.245-.009.368a6,6,0,1,0,.009-11.757Z" fill="#f0a479"/>
      <path id="Path_43563" data-name="Path 43563" d="M140.523,62.5a6.287,6.287,0,0,0-5.311-1.563V72.325c0,.123-.007.245-.009.368a6.282,6.282,0,0,0,5.321-1.563Z" fill="#e59770"/>
      <path id="Path_43564" data-name="Path 43564" d="M104.417,72.339V60.926c-3.518-.47-7.2,2.23-7.2,5.889a6.056,6.056,0,0,0,7.2,5.893C104.423,72.585,104.417,72.462,104.417,72.339Z" fill="#f0a479"/>
      <path id="Path_43565" data-name="Path 43565" d="M104.417,70.568a5.907,5.907,0,0,1-1.336-3.753,5.542,5.542,0,0,1,1.336-3.579v-2.31c-3.518-.47-7.2,2.23-7.2,5.889a6.056,6.056,0,0,0,7.2,5.893c0-.123-.009-.246-.009-.369V70.568Z" fill="#e59770"/>
      <path id="Path_43566" data-name="Path 43566" d="M120.026,86.79a15.974,15.974,0,0,1-8.691-2.455V92.82l8.653,10.681,8.653-10.681V84.106A15.127,15.127,0,0,1,120.026,86.79Z" fill="#f0a479"/>
      <path id="Path_43567" data-name="Path 43567" d="M117.774,86.645a15.621,15.621,0,0,1-6.439-2.309V92.82l6.439,7.948Z" fill="#e59770"/>
      <path id="Path_43568" data-name="Path 43568" d="M151.533,100.958l-22.892-8.866-8.653,10.681-8.653-10.681-22.868,8.866S80,104.439,80,114.091v37.865a2.821,2.821,0,0,0,2.821,2.821h74.357A2.821,2.821,0,0,0,160,151.956V114.091C160,104.439,151.533,100.958,151.533,100.958Z" fill="#e4eaf8"/>
      <path id="Path_43569" data-name="Path 43569" d="M86.439,151.956V110.871a14,14,0,0,1,5.4-11.221l-3.372,1.307S80,104.439,80,114.091v37.866a2.822,2.822,0,0,0,2.822,2.821h6.439A2.822,2.822,0,0,1,86.439,151.956Z" fill="#d8dce5"/>
      <path id="Path_43570" data-name="Path 43570" d="M130,52.751a1.41,1.41,0,0,0-1.8-.22,37.075,37.075,0,0,1-22.316,5.994,1.411,1.411,0,0,0-1.512,1.407V72.3a15.436,15.436,0,0,0,30.868,0V58.933C135.239,58.194,135.271,58.413,130,52.751Z" fill="#f0a479"/>
      <path id="Path_43571" data-name="Path 43571" d="M110.821,72.3V58.5a32.622,32.622,0,0,1-4.937.028,1.411,1.411,0,0,0-1.512,1.407V72.3a15.621,15.621,0,0,0,18.659,14.914A15.24,15.24,0,0,1,110.821,72.3Z" fill="#e59770"/>
      <g id="Group_15268" data-name="Group 15268">
        <path id="Path_43572" data-name="Path 43572" d="M130.436,108.262l6.471-12.968-8.266-3.2-8.653,10.681,8.437,5.992A1.365,1.365,0,0,0,130.436,108.262Z" fill="#d8dce5"/>
        <path id="Path_43573" data-name="Path 43573" d="M109.552,108.262l-6.471-12.968,8.266-3.2L120,102.774l-8.437,5.992A1.365,1.365,0,0,1,109.552,108.262Z" fill="#d8dce5"/>
      </g>
      <path id="Path_43574" data-name="Path 43574" d="M128.789,144.3l-5.554-32.866h-6.482L111.2,144.3a1.43,1.43,0,0,0,.331,1.145h0L119.2,153.9a1.075,1.075,0,0,0,1.593,0l7.668-8.449h0A1.431,1.431,0,0,0,128.789,144.3Z" fill="#ff5050"/>
      <g id="Group_15269" data-name="Group 15269">
        <path id="Path_43575" data-name="Path 43575" d="M117.98,145.447a1.43,1.43,0,0,1-.331-1.145l5.554-32.866h-6.45L111.2,144.3a1.43,1.43,0,0,0,.331,1.145l7.668,8.448a1.075,1.075,0,0,0,1.593,0l2.428-2.676Z" fill="#ed3a3a"/>
        <path id="Path_43576" data-name="Path 43576" d="M120,102.781v-.007l-.005,0-.005,0v.007l-6.136,4.358,2.9,4.366h6.482l2.9-4.366Z" fill="#ed3a3a"/>
      </g>
      <path id="Path_43577" data-name="Path 43577" d="M123.214,105.064,120,102.781v-.007l-.005,0-.005,0v.007l-6.136,4.358,2.9,4.365h6.439l-2.49-3.748a.766.766,0,0,1,.194-1.048Z" fill="#db2a2a"/>
      <g id="Group_15270" data-name="Group 15270">
        <path id="Path_43578" data-name="Path 43578" d="M96.474,154.778V118.461a2.415,2.415,0,0,0-4.829,0v36.316Z" fill="#d8dce5"/>
        <path id="Path_43579" data-name="Path 43579" d="M147.965,154.778V118.461a2.415,2.415,0,1,0-4.829,0v36.316Z" fill="#d8dce5"/>
      </g>
      <path id="Path_43580" data-name="Path 43580" d="M39.8,34.332A20.709,20.709,0,0,0,19.1,55.041v8.373a6.6,6.6,0,0,1,5.275-1.723V60.659a1.411,1.411,0,0,1,1.513-1.407A37.075,37.075,0,0,0,48.2,53.259a1.41,1.41,0,0,1,1.8.22c5.267,5.662,5.235,5.443,5.235,6.182v2.026a6.264,6.264,0,0,1,5.274,1.543V55.041A20.707,20.707,0,0,0,39.8,34.332Z" fill="#707487"/>
      <path id="Path_43581" data-name="Path 43581" d="M25.608,55.041A20.712,20.712,0,0,1,43.061,34.589,20.713,20.713,0,0,0,19.1,55.041v8.373a6.6,6.6,0,0,1,5.275-1.723V60.659a1.412,1.412,0,0,1,1.237-1.4Z" fill="#5b5d6e"/>
      <path id="Path_43582" data-name="Path 43582" d="M55.212,60.937V72.325c0,.123-.007.245-.009.368a6,6,0,1,0,.009-11.757Z" fill="#f0a479"/>
      <path id="Path_43583" data-name="Path 43583" d="M60.523,62.5a6.287,6.287,0,0,0-5.311-1.563V72.325c0,.123-.007.245-.009.368a6.282,6.282,0,0,0,5.321-1.563Z" fill="#e59770"/>
      <path id="Path_43584" data-name="Path 43584" d="M24.417,72.339V60.926c-3.518-.47-7.2,2.23-7.2,5.889a6.056,6.056,0,0,0,7.2,5.893C24.423,72.585,24.417,72.462,24.417,72.339Z" fill="#f0a479"/>
      <path id="Path_43585" data-name="Path 43585" d="M24.417,70.568a5.907,5.907,0,0,1-1.336-3.753,5.542,5.542,0,0,1,1.336-3.579v-2.31c-3.518-.47-7.2,2.23-7.2,5.889a6.056,6.056,0,0,0,7.2,5.893c0-.123-.009-.246-.009-.369V70.568Z" fill="#e59770"/>
      <path id="Path_43586" data-name="Path 43586" d="M40.025,86.79a15.974,15.974,0,0,1-8.691-2.455V92.82L39.988,103.5,48.641,92.82V84.106A15.127,15.127,0,0,1,40.025,86.79Z" fill="#f0a479"/>
      <path id="Path_43587" data-name="Path 43587" d="M37.774,86.645a15.621,15.621,0,0,1-6.439-2.309V92.82l6.439,7.948S37.774,86.645,37.774,86.645Z" fill="#e59770"/>
      <path id="Path_43588" data-name="Path 43588" d="M71.533,100.958,48.641,92.092l-8.653,10.681L31.335,92.092,8.467,100.958S0,104.439,0,114.091v37.865a2.821,2.821,0,0,0,2.821,2.821H77.179A2.821,2.821,0,0,0,80,151.956V114.091C80,104.439,71.533,100.958,71.533,100.958Z" fill="#e4eaf8"/>
      <path id="Path_43589" data-name="Path 43589" d="M6.439,151.956V110.871a14,14,0,0,1,5.4-11.221l-3.372,1.307S0,104.439,0,114.091v37.866a2.821,2.821,0,0,0,2.821,2.821H9.26A2.822,2.822,0,0,1,6.439,151.956Z" fill="#d8dce5"/>
      <path id="Path_43590" data-name="Path 43590" d="M50,52.751a1.41,1.41,0,0,0-1.8-.22,37.075,37.075,0,0,1-22.316,5.994,1.411,1.411,0,0,0-1.513,1.407V72.3A15.23,15.23,0,0,0,40.026,87.517,15.231,15.231,0,0,0,55.24,72.3V58.933C55.239,58.194,55.271,58.413,50,52.751Z" fill="#f0a479"/>
      <path id="Path_43591" data-name="Path 43591" d="M30.821,72.3V58.5a32.622,32.622,0,0,1-4.937.028,1.411,1.411,0,0,0-1.513,1.407V72.3A15.23,15.23,0,0,0,40.026,87.518a15.212,15.212,0,0,0,3-.3A15.24,15.24,0,0,1,30.821,72.3Z" fill="#e59770"/>
      <g id="Group_15271" data-name="Group 15271">
        <path id="Path_43592" data-name="Path 43592" d="M50.436,108.262l6.471-12.968-8.266-3.2-8.653,10.681,8.437,5.992A1.365,1.365,0,0,0,50.436,108.262Z" fill="#d8dce5"/>
        <path id="Path_43593" data-name="Path 43593" d="M29.552,108.262,23.081,95.294l8.266-3.2L40,102.774l-8.437,5.992A1.365,1.365,0,0,1,29.552,108.262Z" fill="#d8dce5"/>
      </g>
      <path id="Path_43594" data-name="Path 43594" d="M48.789,144.3l-5.554-32.866H36.753L31.2,144.3a1.43,1.43,0,0,0,.331,1.145h0L39.2,153.9a1.075,1.075,0,0,0,1.593,0l7.668-8.449h0A1.43,1.43,0,0,0,48.789,144.3Z" fill="#ff5050"/>
      <g id="Group_15272" data-name="Group 15272">
        <path id="Path_43595" data-name="Path 43595" d="M37.98,145.447a1.43,1.43,0,0,1-.331-1.145L43.2,111.435h-6.45L31.2,144.3a1.43,1.43,0,0,0,.331,1.145l7.668,8.448a1.075,1.075,0,0,0,1.593,0l2.428-2.676Z" fill="#ed3a3a"/>
        <path id="Path_43596" data-name="Path 43596" d="M40,102.781v-.007l-.005,0-.005,0v.007l-6.136,4.358,2.9,4.366h6.482l2.9-4.366Z" fill="#ed3a3a"/>
      </g>
      <path id="Path_43597" data-name="Path 43597" d="M43.214,105.064,40,102.781v-.007l-.005,0-.005,0v.007l-6.136,4.358,2.9,4.365h6.439l-2.49-3.748a.766.766,0,0,1,.194-1.048Z" fill="#db2a2a"/>
      <g id="Group_15273" data-name="Group 15273">
        <path id="Path_43598" data-name="Path 43598" d="M16.473,154.778V118.461a2.415,2.415,0,0,0-4.829,0v36.316Z" fill="#d8dce5"/>
        <path id="Path_43599" data-name="Path 43599" d="M67.965,154.778V118.461a2.415,2.415,0,0,0-4.829,0v36.316Z" fill="#d8dce5"/>
      </g>
    </g>
  </g>
</svg>
