<svg xmlns="http://www.w3.org/2000/svg" xmlns:xlink="http://www.w3.org/1999/xlink" width="24" height="24" viewBox="0 0 24 24">
  <defs>
    <clipPath id="clip-path">
      <rect id="Rectangle_5767" data-name="Rectangle 5767" width="24" height="24" transform="translate(80 402)" fill="#404040" stroke="#707070" stroke-width="1"/>
    </clipPath>
  </defs>
  <g id="Mask_Group_15264" data-name="Mask Group 15264" transform="translate(-80 -402)" clip-path="url(#clip-path)">
    <g id="category_1_" data-name="category (1)" transform="translate(78.604 400.604)">
      <path id="Path_44049" data-name="Path 44049" d="M3.349,3.07a.279.279,0,0,0-.279.279v6.7a.279.279,0,0,0,.279.279h6.7a.279.279,0,0,0,.279-.279v-6.7a.279.279,0,0,0-.279-.279ZM1.4,3.349A1.953,1.953,0,0,1,3.349,1.4h6.7A1.953,1.953,0,0,1,12,3.349v6.7A1.953,1.953,0,0,1,10.047,12h-6.7A1.953,1.953,0,0,1,1.4,10.047Z" fill="#404040" fill-rule="evenodd"/>
      <path id="Path_44050" data-name="Path 44050" d="M3.349,16.465a.279.279,0,0,0-.279.279v6.7a.279.279,0,0,0,.279.279h6.7a.279.279,0,0,0,.279-.279v-6.7a.279.279,0,0,0-.279-.279ZM1.4,16.744a1.953,1.953,0,0,1,1.953-1.953h6.7A1.953,1.953,0,0,1,12,16.744v6.7A1.953,1.953,0,0,1,10.047,25.4h-6.7A1.953,1.953,0,0,1,1.4,23.442Z" fill="#404040" fill-rule="evenodd"/>
      <path id="Path_44051" data-name="Path 44051" d="M16.744,3.07a.279.279,0,0,0-.279.279v6.7a.279.279,0,0,0,.279.279h6.7a.279.279,0,0,0,.279-.279v-6.7a.279.279,0,0,0-.279-.279Zm-1.953.279A1.953,1.953,0,0,1,16.744,1.4h6.7A1.953,1.953,0,0,1,25.4,3.349v6.7A1.953,1.953,0,0,1,23.442,12h-6.7a1.953,1.953,0,0,1-1.953-1.953Z" fill="#404040" fill-rule="evenodd"/>
      <path id="Path_44052" data-name="Path 44052" d="M14.791,15.628a.837.837,0,0,1,.837-.837h8.93a.837.837,0,1,1,0,1.674h-8.93A.837.837,0,0,1,14.791,15.628Z" fill="#404040" fill-rule="evenodd"/>
      <path id="Path_44053" data-name="Path 44053" d="M19.256,20.093a.837.837,0,0,1,.837-.837h4.465a.837.837,0,1,1,0,1.674H20.093A.837.837,0,0,1,19.256,20.093Z" fill="#404040" fill-rule="evenodd"/>
      <path id="Path_44054" data-name="Path 44054" d="M14.791,24.558a.837.837,0,0,1,.837-.837h8.93a.837.837,0,1,1,0,1.674h-8.93A.837.837,0,0,1,14.791,24.558Z" fill="#404040" fill-rule="evenodd"/>
    </g>
  </g>
</svg>
