<svg xmlns="http://www.w3.org/2000/svg" xmlns:xlink="http://www.w3.org/1999/xlink" width="55" height="55" viewBox="0 0 55 55">
  <defs>
    <clipPath id="clip-path">
      <rect id="Rectangle_5166" data-name="Rectangle 5166" width="55" height="55" transform="translate(907 378)" fill="#fff" stroke="#707070" stroke-width="1"/>
    </clipPath>
  </defs>
  <g id="Mask_Group_14720" data-name="Mask Group 14720" transform="translate(-907 -378)" clip-path="url(#clip-path)">
    <g id="customer-service_1_" data-name="customer-service (1)" transform="translate(910.387 378)">
      <path id="Path_43395" data-name="Path 43395" d="M50.782,30.289,40,33.094a4.122,4.122,0,0,1-2.034.01L26.585,30.267a4.051,4.051,0,0,1-3.071-3.93V13.906A13.906,13.906,0,0,1,37.42,0h2.487A13.906,13.906,0,0,1,53.813,13.906V26.369A4.051,4.051,0,0,1,50.782,30.289Z" transform="translate(-14.788)" fill="#fd9727"/>
      <path id="Path_43396" data-name="Path 43396" d="M51.262,0H48.775a14.037,14.037,0,0,0-1.842.122A13.908,13.908,0,0,1,59,13.906V26.369a4.051,4.051,0,0,1-3.031,3.92l-8.78,2.283,2.132.532a4.121,4.121,0,0,0,2.034-.01l10.785-2.8a4.051,4.051,0,0,0,3.031-3.92V13.906A13.906,13.906,0,0,0,51.262,0Z" transform="translate(-26.143)" fill="#ff6d3a"/>
      <g id="Group_14995" data-name="Group 14995" transform="translate(7.8 15.383)">
        <path id="Path_43397" data-name="Path 43397" d="M23.286,37.067h2.951v-7.2H23.286a1.57,1.57,0,0,0-1.57,1.57V35.5A1.57,1.57,0,0,0,23.286,37.067Z" transform="translate(-21.717 -29.862)" fill="#3d6687"/>
        <path id="Path_43398" data-name="Path 43398" d="M79.459,37.067H76.508v-7.2h2.951a1.57,1.57,0,0,1,1.57,1.57V35.5A1.57,1.57,0,0,1,79.459,37.067Z" transform="translate(-48.283 -29.862)" fill="#3d6687"/>
      </g>
      <path id="Path_43399" data-name="Path 43399" d="M52.77,61.522A2.21,2.21,0,0,1,51,59.355V54.373H41.219v4.982a2.21,2.21,0,0,1-1.774,2.167l-1.191.239v8H53.961v-8Z" transform="translate(-21.935 -26.364)" fill="#fed9a8"/>
      <path id="Path_43400" data-name="Path 43400" d="M47.588,70.549l-9.8-3.057a.88.88,0,0,0-.868.2l-6.168,5.846-6.168-5.845a.88.88,0,0,0-.868-.2l-9.8,3.057a10.218,10.218,0,0,0-7.332,9.8v6.532a.942.942,0,0,0,.942.942H53.979a.942.942,0,0,0,.942-.942V80.351A10.218,10.218,0,0,0,47.588,70.549Z" transform="translate(-6.575 -32.705)" fill="#ff4c4c"/>
      <path id="Path_43401" data-name="Path 43401" d="M75.062,70.549l-9.8-3.057a.88.88,0,0,0-.868.2l-1.153,1.093,5.654,1.763a10.218,10.218,0,0,1,7.332,9.8v7.474h5.23a.942.942,0,0,0,.942-.942V80.351A10.218,10.218,0,0,0,75.062,70.549Z" transform="translate(-34.048 -32.705)" fill="#ef2929"/>
      <path id="Path_43402" data-name="Path 43402" d="M42.031,36.252h0A12.185,12.185,0,0,1,29.846,24.067V20.643A12.185,12.185,0,0,1,42.031,8.458h0A12.185,12.185,0,0,1,54.216,20.643v3.424A12.185,12.185,0,0,1,42.031,36.252Z" transform="translate(-17.858 -4.101)" fill="#fed9a8"/>
      <path id="Path_43403" data-name="Path 43403" d="M56.609,11.536V25.56a12.19,12.19,0,0,1-9.1,11.791,12.205,12.205,0,0,0,3.086.395h0A12.185,12.185,0,0,0,62.781,25.56V22.135A12.18,12.18,0,0,0,56.609,11.536Z" transform="translate(-26.423 -5.593)" fill="#f4c892"/>
      <g id="Group_14996" data-name="Group 14996" transform="translate(13.051 34.747)">
        <path id="Path_43404" data-name="Path 43404" d="M36.863,67.693l6.168,5.845-3.8,1.3a2.431,2.431,0,0,1-2.613-.7l-4.705-5.37L36,67.492A.88.88,0,0,1,36.863,67.693Z" transform="translate(-31.91 -67.452)" fill="#d4145a"/>
        <path id="Path_43405" data-name="Path 43405" d="M59.668,67.693,53.5,73.539l3.448,1.175a2.994,2.994,0,0,0,3.217-.861l4.457-5.087-4.086-1.274A.88.88,0,0,0,59.668,67.693Z" transform="translate(-42.378 -67.452)" fill="#d4145a"/>
      </g>
      <path id="Path_43406" data-name="Path 43406" d="M32.874,93.812H26.6a.63.63,0,0,1-.631-.631V90.4a.63.63,0,0,1,.631-.631h6.272a.63.63,0,0,1,.631.631v2.778A.63.63,0,0,1,32.874,93.812Z" transform="translate(-15.979 -43.528)" fill="#eda558"/>
      <path id="Path_43407" data-name="Path 43407" d="M53.813,16.475s-5.257-.417-7.056-5.253c0,0-12.709,10.175-23.243,5.253V13.906A13.906,13.906,0,0,1,37.42,0h2.487A13.906,13.906,0,0,1,53.813,13.906Z" transform="translate(-14.788)" fill="#fd9727"/>
      <path id="Path_43408" data-name="Path 43408" d="M51.262,0H48.775a14.037,14.037,0,0,0-1.842.122A13.91,13.91,0,0,1,58.959,12.875a8.984,8.984,0,0,0,6.209,3.6V13.906A13.906,13.906,0,0,0,51.262,0Z" transform="translate(-26.143)" fill="#ff6d3a"/>
      <g id="Group_14997" data-name="Group 14997" transform="translate(5.439 45.843)">
        <path id="Path_43409" data-name="Path 43409" d="M87.468,88.993a.833.833,0,0,0-.833.833v8.443H88.3V89.825A.832.832,0,0,0,87.468,88.993Z" transform="translate(-50.832 -88.993)" fill="#d4145a"/>
        <path id="Path_43410" data-name="Path 43410" d="M17.965,88.993a.833.833,0,0,0-.833.833v8.443H18.8V89.825A.832.832,0,0,0,17.965,88.993Z" transform="translate(-17.132 -88.993)" fill="#d4145a"/>
      </g>
      <path id="Path_43411" data-name="Path 43411" d="M67.181,43.848v1.519a2.673,2.673,0,0,1-2.227,2.641l-8.378,1.437a.832.832,0,1,0,.281,1.64l8.378-1.437a4.334,4.334,0,0,0,3.609-4.281V43.848Z" transform="translate(-30.483 -21.26)" fill="#3d6687"/>
      <path id="Path_43412" data-name="Path 43412" d="M56.2,56a1.61,1.61,0,0,1-.27-3.2l2.714-.465a1.61,1.61,0,1,1,.544,3.173l-2.714.465A1.628,1.628,0,0,1,56.2,56Z" transform="translate(-29.858 -25.368)" fill="#d4145a"/>
    </g>
  </g>
</svg>
