<svg xmlns="http://www.w3.org/2000/svg" xmlns:xlink="http://www.w3.org/1999/xlink" width="28" height="28" viewBox="0 0 28 28">
  <defs>
    <clipPath id="clip-path">
      <rect id="Rectangle_4938" data-name="Rectangle 4938" width="28" height="28" transform="translate(463 796)" fill="#fff" stroke="#707070" stroke-width="1"/>
    </clipPath>
    <linearGradient id="linear-gradient" x1="0.099" y1="-0.011" x2="0.836" y2="0.798" gradientUnits="objectBoundingBox">
      <stop offset="0" stop-color="#1d1d1b"/>
      <stop offset="0.369" stop-color="#1d1d1b" stop-opacity="0.855"/>
      <stop offset="0.75" stop-color="#1d1d1b" stop-opacity="0.427"/>
      <stop offset="1" stop-color="#1d1d1b" stop-opacity="0"/>
    </linearGradient>
  </defs>
  <g id="Mask_Group_179" data-name="Mask Group 179" transform="translate(-463 -796)" clip-path="url(#clip-path)">
    <g id="twitter_2_" data-name="twitter (2)" transform="translate(463 796)">
      <circle id="Ellipse_320" data-name="Ellipse 320" cx="14" cy="14" r="14" fill="#03a9f4"/>
      <path id="Path_22219" data-name="Path 22219" d="M27.66,13.36a14.076,14.076,0,0,0-.239-2.584L22.753,6.109a15.885,15.885,0,0,1-2.5.942,3.961,3.961,0,0,0-6.723,3.516A11.573,11.573,0,0,1,5.4,6.611a3.777,3.777,0,0,0-.512,1.883,3.708,3.708,0,0,0,1.729,3.139,3.493,3.493,0,0,1-1.793-.5A3.829,3.829,0,0,0,7.961,14.9a4.271,4.271,0,0,1-1.793.063A3.939,3.939,0,0,0,9.882,17.6a7.836,7.836,0,0,1-5.827,1.569l8.113,8.114a14.153,14.153,0,0,0,1.491.079,14,14,0,0,0,14-14Z" transform="translate(0.34 0.64)" opacity="0.49" fill="url(#linear-gradient)"/>
      <path id="Path_22220" data-name="Path 22220" d="M20.255,7.05a3.961,3.961,0,0,0-6.723,3.516A11.573,11.573,0,0,1,5.4,6.611a3.777,3.777,0,0,0-.512,1.883,3.708,3.708,0,0,0,1.729,3.139,3.493,3.493,0,0,1-1.793-.5A3.829,3.829,0,0,0,7.961,14.9a4.272,4.272,0,0,1-1.793.063A3.939,3.939,0,0,0,9.882,17.6a7.836,7.836,0,0,1-5.827,1.569,11.694,11.694,0,0,0,12.766-.413A11.2,11.2,0,0,0,21.28,9.562a9.624,9.624,0,0,0,1.985-1.946,9.127,9.127,0,0,1-2.241.628,4.141,4.141,0,0,0,1.729-2.135A15.894,15.894,0,0,1,20.255,7.05Z" transform="translate(0.34 0.64)" fill="#fff" fill-rule="evenodd"/>
    </g>
  </g>
</svg>
