<svg xmlns="http://www.w3.org/2000/svg" xmlns:xlink="http://www.w3.org/1999/xlink" width="60" height="60" viewBox="0 0 60 60">
  <defs>
    <clipPath id="clip-path">
      <rect id="Rectangle_3929" data-name="Rectangle 3929" width="60" height="60" transform="translate(4348 157)" fill="#7b7b7b" stroke="#707070" stroke-width="1"/>
    </clipPath>
  </defs>
  <g id="Mask_Group_128" data-name="Mask Group 128" transform="translate(-4348 -157)" clip-path="url(#clip-path)">
    <g id="cloud-computing_2_" data-name="cloud-computing (2)" transform="translate(4348 163.301)">
      <g id="Group_14202" data-name="Group 14202" transform="translate(0 0)">
        <g id="Group_14201" data-name="Group 14201">
          <path id="Path_8975" data-name="Path 8975" d="M48.851,19.335A20.153,20.153,0,0,0,9.206,22.779a10.992,10.992,0,0,0,1.832,21.838H20.2V40.953h-9.16a7.328,7.328,0,1,1,0-14.656,1.832,1.832,0,0,0,1.832-1.832,16.489,16.489,0,0,1,32.666-3.206,1.832,1.832,0,0,0,1.557,1.466,9.16,9.16,0,0,1-1.246,18.229H38.518v3.664h7.328a12.824,12.824,0,0,0,3-25.282Z" transform="translate(0 -4.084)" fill="#7b7b7b"/>
          <path id="Path_8976" data-name="Path 8976" d="M20.763,19.012,13.435,26.34l2.583,2.583,4.214-4.2V42.3H23.9V24.728l4.2,4.2,2.583-2.583-7.328-7.328A1.832,1.832,0,0,0,20.763,19.012Z" transform="translate(7.294 3.732)" fill="#7b7b7b"/>
        </g>
      </g>
    </g>
  </g>
</svg>
