<svg xmlns="http://www.w3.org/2000/svg" xmlns:xlink="http://www.w3.org/1999/xlink" width="24" height="24" viewBox="0 0 24 24">
  <defs>
    <clipPath id="clip-path">
      <rect id="Rectangle_5226" data-name="Rectangle 5226" width="24" height="24" transform="translate(1404 36)" fill="#fff" stroke="#707070" stroke-width="1"/>
    </clipPath>
  </defs>
  <g id="Mask_Group_15629" data-name="Mask Group 15629" transform="translate(-1404 -36)" clip-path="url(#clip-path)">
    <g id="token" transform="translate(1404 36)">
      <g id="Page-1_34_">
        <g id="_x30_35---Reward-Points">
          <path id="Shape_256_" d="M12,4.475a9.763,9.763,0,1,0,9.763,9.763A9.763,9.763,0,0,0,12,4.475Zm5.125,16.6A8.544,8.544,0,0,1,4.37,10.393a.407.407,0,1,1,.726.366,7.648,7.648,0,0,0-.825,3.478A7.729,7.729,0,0,0,16.637,20.42a.407.407,0,1,1,.488.651Zm.6-7.447L15.946,15.43a.5.5,0,0,0-.133.434l.423,2.563a1.3,1.3,0,0,1-.523,1.279,1.2,1.2,0,0,1-1.279.076l-2.245-1.227a.387.387,0,0,0-.377,0L9.566,19.782a1.2,1.2,0,0,1-1.279-.076,1.3,1.3,0,0,1-.523-1.279l.423-2.563a.5.5,0,0,0-.132-.433L6.272,13.623a1.309,1.309,0,0,1-.305-1.34,1.247,1.247,0,0,1,.994-.854l2.485-.375a.433.433,0,0,0,.321-.249l1.12-2.359a1.22,1.22,0,0,1,2.226,0l1.12,2.359a.433.433,0,0,0,.321.249l2.485.375a1.247,1.247,0,0,1,.994.854A1.309,1.309,0,0,1,17.727,13.624Zm1.891,4.482a.407.407,0,0,1-.725-.369,7.65,7.65,0,0,0,.836-3.5A7.729,7.729,0,0,0,7.363,8.054.407.407,0,1,1,6.875,7.4a8.544,8.544,0,0,1,12.744,10.7Z" fill="#fff"/>
          <path id="Shape_255_" d="M16.918,12.236l-2.485-.375a1.243,1.243,0,0,1-.936-.7L12.377,8.8a.409.409,0,0,0-.757,0L10.5,11.156a1.244,1.244,0,0,1-.936.7l-2.485.375a.434.434,0,0,0-.343.305.5.5,0,0,0,.113.511l1.783,1.807A1.316,1.316,0,0,1,8.987,16l-.423,2.563a.488.488,0,0,0,.191.483.384.384,0,0,0,.418.025l2.245-1.227a1.2,1.2,0,0,1,1.158,0l2.245,1.227a.385.385,0,0,0,.418-.025.488.488,0,0,0,.191-.483L15.006,16a1.316,1.316,0,0,1,.356-1.139l1.783-1.807a.5.5,0,0,0,.113-.512.434.434,0,0,0-.34-.3Z" fill="#fff"/>
          <path id="Shape_254_" d="M11.593.407V2.847a.407.407,0,0,0,.814,0V.407a.407.407,0,0,0-.814,0Z" fill="#fff"/>
          <path id="Shape_253_" d="M14.441.407V3.254a.407.407,0,0,0,.814,0V.407a.407.407,0,0,0-.814,0Z" fill="#fff"/>
          <path id="Shape_252_" d="M17.288,4.475a.407.407,0,1,0,.814,0V2.847a.407.407,0,1,0-.814,0Z" fill="#fff"/>
          <path id="Shape_251_" d="M17.695,1.627A.407.407,0,0,0,18.1,1.22V.407a.407.407,0,1,0-.814,0V1.22A.407.407,0,0,0,17.695,1.627Z" fill="#fff"/>
          <path id="Shape_250_" d="M20.542,2.034a.407.407,0,0,0-.407.407V7.485a9.663,9.663,0,0,1,.814,1.127V2.441a.407.407,0,0,0-.407-.407Z" fill="#fff"/>
          <path id="Shape_249_" d="M8.746.407V3.254a.407.407,0,1,0,.814,0V.407a.407.407,0,1,0-.814,0Z" fill="#fff"/>
          <path id="Shape_248_" d="M6.305,2.441a.407.407,0,0,0-.407.407V4.475a.407.407,0,0,0,.814,0V2.847A.407.407,0,0,0,6.305,2.441Z" fill="#fff"/>
          <path id="Shape_247_" d="M6.712.407a.407.407,0,1,0-.814,0V1.22a.407.407,0,1,0,.814,0Z" fill="#fff"/>
          <path id="Shape_246_" d="M3.051,2.441V8.612a9.663,9.663,0,0,1,.814-1.127V2.441a.407.407,0,0,0-.814,0Z" fill="#fff"/>
        </g>
      </g>
    </g>
  </g>
</svg>
