<svg xmlns="http://www.w3.org/2000/svg" xmlns:xlink="http://www.w3.org/1999/xlink" width="24" height="24" viewBox="0 0 24 24">
  <defs>
    <clipPath id="clip-path">
      <rect id="Rectangle_4941" data-name="Rectangle 4941" width="24" height="24" transform="translate(302 661)" fill="#d34b27" stroke="#707070" stroke-width="1"/>
    </clipPath>
  </defs>
  <g id="Mask_Group_189" data-name="Mask Group 189" transform="translate(-302 -661)" clip-path="url(#clip-path)">
    <g id="whatsapp_7_" data-name="whatsapp (7)" transform="translate(302.047 661)">
      <path id="Path_22241" data-name="Path 22241" d="M20.4,3.482A11.89,11.89,0,0,0,5.08,2.216a.469.469,0,1,0,.546.762A10.95,10.95,0,1,1,6.732,21.495a.47.47,0,0,0-.348-.042l-5.218,1.41,1.423-5.077a.468.468,0,0,0-.047-.364,10.956,10.956,0,0,1,.541-11.9.469.469,0,0,0-.762-.546,11.894,11.894,0,0,0-.687,12.747L.041,23.4a.469.469,0,0,0,.574.579l5.834-1.577A11.89,11.89,0,0,0,20.4,3.482Zm0,0" fill="#d34b27"/>
      <path id="Path_22242" data-name="Path 22242" d="M19.677,17.571a.469.469,0,0,0,.65-.13A10.013,10.013,0,1,0,3.35,16.948l.3.516-.916,3.271a.469.469,0,0,0,.574.579L6.687,20.4l.5.273a10.022,10.022,0,0,0,10.362-.451.469.469,0,0,0-.52-.78,9.085,9.085,0,0,1-9.391.409l-.662-.364a.47.47,0,0,0-.348-.042l-2.763.747.748-2.668a.469.469,0,0,0-.047-.364l-.4-.688a9.076,9.076,0,1,1,15.388.448.469.469,0,0,0,.13.65Zm0,0" fill="#d34b27"/>
      <path id="Path_22243" data-name="Path 22243" d="M10.28,10.449l.031-.036a1.27,1.27,0,0,0,.151-1.406c-.241-.563-.871-2-.93-2.138A1.082,1.082,0,0,0,8.5,6.247a5.917,5.917,0,0,0-.684.008H7.808c-.072.01-1.76.284-2.052,2.814-.134,1.163.4,2.549,1.6,4.119A11.773,11.773,0,0,0,11.7,16.882a8.1,8.1,0,0,0,3.426.992l.118,0a3.09,3.09,0,0,0,2.473-1.079,2.366,2.366,0,0,0,.49-1.077,6.586,6.586,0,0,0,.039-.671,1.082,1.082,0,0,0-.571-1.056c-.13-.065-1.472-.73-2.023-1a1.117,1.117,0,0,0-1.409.25l-.007.008a2.983,2.983,0,0,0-.332.412c-.123.165-.369.493-.473.6a4.849,4.849,0,0,1-2-1.118A7.566,7.566,0,0,1,9.678,11.17a.091.091,0,0,1-.005-.036c.161-.166.424-.471.607-.686Zm.575,3.44a10.409,10.409,0,0,0,1.517.993c.28.142,1.132.574,1.657.109a6.167,6.167,0,0,0,.626-.767c.079-.106.177-.236.214-.281.025-.022.045-.044.063-.064.084-.092.123-.133.311-.042.565.274,1.974.973,2.024,1a.273.273,0,0,1,.041.187c-.01.389-.026.529-.029.555a.069.069,0,0,0,0,.014,1.494,1.494,0,0,1-.323.655,2.241,2.241,0,0,1-1.738.691,7.006,7.006,0,0,1-3.091-.889A10.782,10.782,0,0,1,8.1,12.622,5.287,5.287,0,0,1,6.688,9.178c.2-1.7,1.126-1.964,1.25-1.992.044,0,.193-.009.546,0a.274.274,0,0,1,.184.05c.023.053.684,1.563.931,2.14.123.288.048.373.011.414l-.017.019-.027.032c-.271.317-.461.533-.567.641a.969.969,0,0,0-.136,1.155,8.461,8.461,0,0,0,1.991,2.253Zm0,0" fill="#d34b27"/>
      <path id="Path_22244" data-name="Path 22244" d="M3.918,4.282A.469.469,0,1,0,3.6,3.467h0a.469.469,0,0,0,.315.815Zm0,0" fill="#d34b27"/>
      <path id="Path_22245" data-name="Path 22245" d="M18.4,18.322h0a.469.469,0,1,0,.662-.032A.469.469,0,0,0,18.4,18.322Zm0,0" fill="#d34b27"/>
    </g>
  </g>
</svg>
